<?xml version="1.0" encoding="utf-8"?>
<!-- Generator: Adobe Illustrator 23.0.2, SVG Export Plug-In . SVG Version: 6.00 Build 0)  -->
<svg version="1.1" id="Ebene_1-1484525896" xmlns="http://www.w3.org/2000/svg" xmlns:xlink="http://www.w3.org/1999/xlink" x="0px"
	 y="0px" viewBox="0 0 770.9 998.5" style="enable-background:new 0 0 770.9 998.5;" xml:space="preserve">
<title>Nitro Snowboard Company</title>
<path d="M586.3,169.7v437.5L302.8,325.5v281.7H182.9V170.8l119.9,0.3l155.7,156.6V169.7H586.3z"/>
<polygon points="0,0 0,781.8 492.1,781.8 398,687.7 94.2,687.7 94.2,94.2 676.8,94.2 676.8,744.7 619.4,687.7 485.4,687.7 
	580.2,781.8 580.5,781.8 770.9,971 770.9,0 "/>
<path d="M503.2,909.5c0,22.7,18.4,41.1,41.1,41.1c22.7,0,41.1-18.4,41.1-41.1c0-22.7-18.4-41.1-41.1-41.1
	C521.6,868.4,503.2,886.8,503.2,909.5C503.2,909.5,503.2,909.5,503.2,909.5z M241.3,869.3h-32.5v124.1h-46.1V825.6l46.1,0.1h140.5
	l58.4,0.1c27.5-0.1,51.1,19.9,55.4,47.1c20.2-44.8,73-64.8,117.8-44.5c44.8,20.2,64.8,73,44.5,117.8c-20.2,44.8-73,64.8-117.8,44.5
	c-30.9-14-51.2-44.3-52.4-78.2c-4.5,7-10.5,13-17.5,17.5l-4.4,2.7l61.3,60.9h-54.1L367.4,920c34.3-12.7,44.9-21,44.9-32.5
	c0.1-9.9-7.9-18-17.7-18.1c-0.1,0-0.2,0-0.3,0H367l0.1,123.9h-46.3V869.3h-33.5v124.1h-45.9V869.3z M154.6,825.7v167.7L46,885.4v108
	H0V826.1l46,0.1l59.7,60v-60.5H154.6z"/>
</svg>
