<svg xmlns="http://www.w3.org/2000/svg" width="770.90002" height="998.63668" viewBox="0 0 770.90002 998.63668"><defs><style>.a{fill:#742b83;}.b{fill:#e12029;}.c{fill:#f48c1f;}.d{fill:#fceb00;}.e{fill:#0a8043;}.f{fill:#465eae;}</style></defs><path class="a" d="M503.2,909.5a41.1,41.1,0,1,0,41.1-41.1,41.09859,41.09859,0,0,0-41.1,41.1ZM241.3,869.3H208.8V993.4H162.7V825.6l46.1.1H349.3l58.4.1a55.91371,55.91371,0,0,1,55.4,47.1,88.87627,88.87627,0,1,1-7.9,39.6,58.41,58.41,0,0,1-17.5,17.5l-4.4,2.7,61.3,60.9H440.5L367.4,920c34.3-12.7,44.9-21,44.9-32.5a17.948,17.948,0,0,0-17.7-18.1H367l.1,123.9H320.8V869.3H287.3V993.4H241.4V869.3Zm-86.7-43.6v167.7l-108.6-108v108H0V826.1l46,.1,59.7,60V825.7h48.9Z" transform="translate(0 0)"/><polygon class="b" points="94.2 161.833 94.2 94.2 676.8 94.2 676.8 161.833 770.9 161.833 770.9 0 0 0 0 161.833 94.2 161.833"/><rect class="c" x="458.5" y="169.70001" width="127.79999" height="153.96667"/><polygon class="c" points="182.9 323.667 454.49 323.667 302.8 171.1 182.9 170.8 182.9 323.667"/><rect class="c" y="161.83331" width="94.20001" height="161.83337"/><rect class="c" x="676.79999" y="161.83331" width="94.10004" height="161.83337"/><polygon class="d" points="586.3 323.667 458.5 323.667 458.5 327.7 454.49 323.667 182.9 323.667 182.9 485.5 302.8 485.5 302.8 325.5 463.822 485.5 586.3 485.5 586.3 323.667"/><rect class="d" y="323.66669" width="94.20001" height="161.83331"/><rect class="d" x="676.79999" y="323.66669" width="94.10004" height="161.83331"/><rect class="e" x="182.90002" y="485.5" width="119.89996" height="121.70001"/><polygon class="e" points="463.822 485.5 586.3 607.2 586.3 485.5 463.822 485.5"/><rect class="e" y="485.5" width="94.20001" height="161.83337"/><rect class="e" x="676.79999" y="485.5" width="94.10004" height="161.83337"/><polygon class="a" points="770.9 809.167 608.04 809.167 770.9 971 770.9 809.167"/><polygon class="f" points="398 687.7 94.2 687.7 94.2 647.333 0 647.333 0 781.8 492.1 781.8 398 687.7"/><polygon class="f" points="770.9 647.333 676.8 647.333 676.8 744.7 619.4 687.7 485.4 687.7 580.2 781.8 580.5 781.8 608.04 809.167 770.9 809.167 770.9 647.333"/></svg>