<svg id="Layer_1" data-name="Layer 1" xmlns="http://www.w3.org/2000/svg" viewBox="0 0 283.46 283.46"><defs><style>.cls-1{fill:#58595b;}.cls-2{fill:#d2232a;}</style></defs><path class="cls-1" d="M113.45,112.94h15.46l-10.4,50.18H103.05Z"/><path class="cls-1" d="M144.72,125.8H130.81l2.67-12.86h43.29L174.1,125.8H160.18l-7.73,37.32H137Z"/><path class="cls-2" d="M175.72,126.65h13.91L182,163.12H168.13Zm14.68-3.94H176.49l2-9.77h13.91Z"/><path class="cls-2" d="M197.5,126.65h13.42l-1,4.64H210a16.09,16.09,0,0,1,5-4,13.46,13.46,0,0,1,6.32-1.55,19,19,0,0,1,4.54.53,11,11,0,0,1,3.79,1.69,8,8,0,0,1,2.6,3.06,10,10,0,0,1,.95,4.56,20.87,20.87,0,0,1-.28,3.06c-.19,1.24-.42,2.54-.7,3.9l-4.43,20.59H213.88l3.58-16.72c.23-1.08.48-2.17.74-3.27a13,13,0,0,0,.38-2.78,3.12,3.12,0,0,0-1.12-2.63,4.41,4.41,0,0,0-2.81-.88,6.27,6.27,0,0,0-2.81.56,5.75,5.75,0,0,0-1.9,1.51,8.09,8.09,0,0,0-1.27,2.21,17.33,17.33,0,0,0-.77,2.68l-4.07,19.32H189.91Z"/><path class="cls-2" d="M273.47,156.8q-.5,2.52-1.09,4.95a26.49,26.49,0,0,1-1.54,4.53,17.06,17.06,0,0,1-2.4,3.87,12.87,12.87,0,0,1-3.65,3,19.36,19.36,0,0,1-5.37,2,35.41,35.41,0,0,1-7.59.7c-.71,0-1.63,0-2.78-.1a30.65,30.65,0,0,1-3.62-.46,20.21,20.21,0,0,1-3.83-1.12,11.41,11.41,0,0,1-3.44-2.15,10.2,10.2,0,0,1-2.43-3.37,10.61,10.61,0,0,1-.77-5h13.77a4.29,4.29,0,0,0,1.13,3.17,5.3,5.3,0,0,0,3.23.77,5.52,5.52,0,0,0,2.6-.56,5.05,5.05,0,0,0,1.72-1.48,6.67,6.67,0,0,0,1-2.07c.24-.77.45-1.56.63-2.36l.85-3.86h-.14a10.21,10.21,0,0,1-3.9,2.74,12.87,12.87,0,0,1-4.82.91,16.37,16.37,0,0,1-5.94-1,12.25,12.25,0,0,1-7.31-7.3,16.18,16.18,0,0,1-1-5.87,25.84,25.84,0,0,1,1.16-7.66,21.59,21.59,0,0,1,3.37-6.75,17.27,17.27,0,0,1,5.48-4.78,15.22,15.22,0,0,1,7.56-1.83,16.33,16.33,0,0,1,6.28,1.2,8.77,8.77,0,0,1,4.54,4.43h.14l.91-4.71h13.42Zm-15.46-21a5.68,5.68,0,0,0-3.44,1,7.79,7.79,0,0,0-2.25,2.53,11.39,11.39,0,0,0-1.23,3.34,16.57,16.57,0,0,0-.39,3.44,7,7,0,0,0,1.2,4.15,4.08,4.08,0,0,0,3.58,1.69,5.91,5.91,0,0,0,4-1.3,9.47,9.47,0,0,0,2.35-3,12.2,12.2,0,0,0,1.13-3.48,18,18,0,0,0,.28-2.67,17.36,17.36,0,0,0-.11-1.83,4.47,4.47,0,0,0-.63-1.86,4,4,0,0,0-1.54-1.44A6.09,6.09,0,0,0,258,135.85Z"/><path class="cls-1" d="M222.61,122.92H220l1.21-5.81,0,0a4.19,4.19,0,0,1-1.75,1.36,5.54,5.54,0,0,1-2.18.43,4.54,4.54,0,0,1-1.88-.36,3.53,3.53,0,0,1-1.34-1,4.29,4.29,0,0,1-.78-1.5,6.61,6.61,0,0,1-.25-1.87,10,10,0,0,1,.42-2.88,8.11,8.11,0,0,1,1.26-2.49,6.34,6.34,0,0,1,2.05-1.76,6,6,0,0,1,2.86-.66,4.59,4.59,0,0,1,2.14.49,3,3,0,0,1,1.42,1.62h.05l.37-1.79H226Zm-7-9.12a4.28,4.28,0,0,0,.15,1.16,2.57,2.57,0,0,0,.47,1,2.29,2.29,0,0,0,.84.64,2.93,2.93,0,0,0,1.25.24,3.32,3.32,0,0,0,1.83-.5A4.26,4.26,0,0,0,221.4,115a6,6,0,0,0,.72-1.8,8.18,8.18,0,0,0,.23-2,3.06,3.06,0,0,0-.66-2,2.39,2.39,0,0,0-1.93-.8,3.28,3.28,0,0,0-1.84.51,4.56,4.56,0,0,0-1.3,1.29,6,6,0,0,0-.77,1.73A7.24,7.24,0,0,0,215.6,113.8Z"/><path class="cls-1" d="M236.87,118.54h-2.46l.37-1.73,0,0a5.06,5.06,0,0,1-1.78,1.54,5,5,0,0,1-2.31.55A3.58,3.58,0,0,1,228,118a3.13,3.13,0,0,1-.84-2.3c0-.21,0-.46,0-.73a6.82,6.82,0,0,1,.09-.74l1.59-7.58h2.62L230,114c0,.2-.09.39-.13.57a3.38,3.38,0,0,0,0,.53c0,.09,0,.23,0,.43a1.25,1.25,0,0,0,.17.57,1.33,1.33,0,0,0,.53.49,2.25,2.25,0,0,0,1.1.21,2.94,2.94,0,0,0,1.39-.33,4.08,4.08,0,0,0,1.12-.86,5.53,5.53,0,0,0,1.26-2.51l1.33-6.43h2.62Z"/><path class="cls-1" d="M250.27,115.09c-.05.22-.1.42-.15.62a1.88,1.88,0,0,0-.08.55.62.62,0,0,0,.11.39.56.56,0,0,0,.44.14,1.88,1.88,0,0,0,.46-.06l.46-.08-.42,1.89-1,.22a5.8,5.8,0,0,1-1,.1,1.51,1.51,0,0,1-1.1-.42,1.55,1.55,0,0,1-.49-1.1,4.74,4.74,0,0,1-1.83,1.15,6.46,6.46,0,0,1-2.16.37,4.61,4.61,0,0,1-1.4-.21,3.92,3.92,0,0,1-1.19-.6,2.86,2.86,0,0,1-.81-1,3,3,0,0,1-.3-1.38,3.83,3.83,0,0,1,.41-1.85,3.62,3.62,0,0,1,1.1-1.23,4.8,4.8,0,0,1,1.59-.71,9.58,9.58,0,0,1,1.88-.3l1.32-.1,1.3-.11a1.37,1.37,0,0,0,1-.47,1.73,1.73,0,0,0,.33-1.09,1.13,1.13,0,0,0-.6-1.14,3.18,3.18,0,0,0-1.4-.29,4.38,4.38,0,0,0-1.88.38,2.07,2.07,0,0,0-1.08,1.49h-2.48a4.77,4.77,0,0,1,.71-1.85,4.24,4.24,0,0,1,1.24-1.22,4.84,4.84,0,0,1,1.67-.67,9.64,9.64,0,0,1,2-.19,8,8,0,0,1,2.52.31,3.3,3.3,0,0,1,1.33.74,1.9,1.9,0,0,1,.52.91,4.42,4.42,0,0,1,.09.79,9,9,0,0,1-.23,1.8Zm-7.88.18a1.26,1.26,0,0,0,.19.73,1.57,1.57,0,0,0,.5.46,2.26,2.26,0,0,0,.66.25,4,4,0,0,0,2.36-.24,3.29,3.29,0,0,0,1.08-.87,4.3,4.3,0,0,0,.66-1.3,10.71,10.71,0,0,0,.38-1.6l0,0a1.64,1.64,0,0,1-.74.39,7.61,7.61,0,0,1-.89.16l-1.28.09a5.77,5.77,0,0,0-1.35.24,2.82,2.82,0,0,0-1.09.6A1.46,1.46,0,0,0,242.39,115.27Z"/><path class="cls-1" d="M255.87,102.13h2.62l-3.4,16.41h-2.62Z"/><path class="cls-2" d="M260.47,106.66h2.62l-2.46,11.88H258Zm.94-4.53H264l-.51,2.48h-2.61Z"/><path class="cls-2" d="M267.48,103.1H270l-.73,3.56h2.37l-.42,2h-2.36l-1.22,5.81c-.06.26-.12.51-.16.74a2.64,2.64,0,0,0-.07.55,1.09,1.09,0,0,0,.17.63c.12.16.37.24.77.24H269a3.36,3.36,0,0,0,.74-.1l-.43,1.93a8.69,8.69,0,0,1-1.08.18,8.48,8.48,0,0,1-1.08.07,3.29,3.29,0,0,1-1.18-.18,1.82,1.82,0,0,1-.72-.5,1.67,1.67,0,0,1-.37-.71,3.21,3.21,0,0,1-.1-.81,5.27,5.27,0,0,1,.06-.76,3.82,3.82,0,0,1,.1-.58l1.36-6.5h-2.07l.41-2h2.07Z"/><path class="cls-1" d="M272.14,106.66h2.76l1.24,8.68h0l4.48-8.68h2.8l-6.79,12.24-.9,1.64a7.14,7.14,0,0,1-1,1.39,4.48,4.48,0,0,1-1.32,1,4.35,4.35,0,0,1-1.86.36,7.16,7.16,0,0,1-1.59-.19l.48-2.18.51.13a2.94,2.94,0,0,0,.51,0,2.32,2.32,0,0,0,1-.21,1.57,1.57,0,0,0,.68-.8l1-1.9Z"/><circle class="cls-1" cx="68.6" cy="80.4" r="14.7" transform="translate(-0.82 0.7) rotate(-0.58)"/><path class="cls-2" d="M0,67.47c29.6,11,50.86,41.22,50.86,76.8,0,32.47-17.7,60.48-43.28,73.5a75.52,75.52,0,0,0,65.58-74.85A75.49,75.49,0,0,0,0,67.47Z"/><path class="cls-2" d="M115.05,81.27c-21.39,7.79-36.77,29.2-36.77,54.41,0,23,12.8,42.85,31.29,52.07-26.75-3.45-47.41-25.87-47.41-53C62.16,105.74,85.69,82.15,115.05,81.27Z"/></svg>