<?xml version="1.0" encoding="utf-8"?>
<!-- Generator: Adobe Illustrator 25.2.1, SVG Export Plug-In . SVG Version: 6.00 Build 0)  -->
<svg version="1.1" id="Ebene_1" xmlns="http://www.w3.org/2000/svg" xmlns:xlink="http://www.w3.org/1999/xlink" x="0px" y="0px"
	 viewBox="0 0 7161.5 904.9" style="enable-background:new 0 0 7161.5 904.9;" xml:space="preserve">
<style type="text/css">
	.st0{fill:#010202;}
</style>
<g id="AK_x5F_Logo_x5F_oneline_x5F_black_1_">
	<g>
		<rect x="6014.1" y="277" class="st0" width="186.7" height="610.6"/>
		<g>
			<path class="st0" d="M6670.4,259.6c-62.8,0-137.9,28.3-171.2,86.2V277h-181v610.6h187.2V536.7c0-61.6,39.4-107.1,101-107.1
				c67.7,0,99.8,45.6,99.8,105.9v352.2h187.2V503.4C6893.3,369.2,6824.4,259.6,6670.4,259.6"/>
			<path class="st0" d="M5127.9,644.2c-13.9,44.9-47.4,89.3-119,89.3c-77.1,0-142-53.9-142-150.6c0-97.9,62.5-151.8,139.6-151.8
				c65.6,0,102,36.6,118.3,78.1h172.5V509l1.4,0c0.2-12.3-1-24.9-3.2-37.6l0.1,0c-0.1-0.4-0.2-0.7-0.3-1.1
				c-8.6-46.5-34-93.9-78.8-133c-32.9-30.6-75.1-54.7-126.6-67.6c-0.3-0.1-0.5-0.2-0.8-0.3l0,0.1c-26.3-6.5-55.1-10.1-86.2-10.1
				c-178.8,0-320.8,133.5-320.8,323.3c0,188.6,145.7,322.1,326.9,322.1c104.8,0,176.9-43.7,227-103.2
				c50.3-52.5,72.2-117.4,71.4-172.3l-176.3,0C5130.3,634.3,5129.3,639.2,5127.9,644.2"/>
			<polygon class="st0" points="5968.7,887.6 5724.2,485.1 5910.6,277 5703.7,277 5562.8,434.3 5562.8,17.4 5370.2,17.4 
				5370.2,887.6 5562.8,887.6 5562.8,638.3 5584.7,616.9 5749.1,887.6 			"/>
			<polygon class="st0" points="3863.2,17.4 3863.2,360.9 4117.9,17.4 4358.1,17.4 4072.3,369.3 4379.6,887.6 4140.6,887.6 
				3941.9,528.5 3863.2,624.2 3863.2,887.6 3670.7,887.6 3670.7,17.4 			"/>
			<rect x="4425.1" y="277" class="st0" width="186.7" height="610.6"/>
			<path class="st0" d="M4516.9,17.2c-59,0-108.1,49.2-108.1,109.4s49.2,109.4,108.1,109.4c61.4,0,110.6-49.2,110.6-109.4
				S4578.4,17.2,4516.9,17.2"/>
			<path class="st0" d="M6102.2,17.2c-59,0-108.1,49.2-108.1,109.4s49.2,109.4,108.1,109.4c61.4,0,110.6-49.2,110.6-109.4
				S6163.7,17.2,6102.2,17.2"/>
			<path class="st0" d="M642.9,887.6h222L539.4,17.4c-0.2-0.5-214.7,0-214.7,0L0,887.6h218.1l34.9-107.5h354.8L642.9,887.6z
				 M305,623.7l127.1-382.8l124.8,382.8H305z"/>
			<path class="st0" d="M1873.3,277h-131v-38.1c0-66.7,46.1-81.2,78.8-81.2c29.1,0,44.9,3.6,54.6,6.1V13.3
				C1858.7,4.8,1826,0,1788.4,0C1641.7,0,1558,94.6,1558,232.8V277h-95.8v155.2h95.8v455.4h184.3V432.2h131V277z"/>
			<path class="st0" d="M2196.9,259.6c-158,0-303.7,124.9-303.7,320.8c0,204.5,149.4,324.5,317.1,324.5
				c154.3,0,251.6-89.4,281-194.7l-181.4,0c-21.3,23-52.9,36.7-97.1,36.7c-72.2,0-134.7-49-138.4-117.5h423.7
				c1.2-3.7,3.7-31.8,3.7-57.6C2501.8,375.9,2385.5,259.6,2196.9,259.6 M2078.2,509.4c3.7-45.3,42.9-102.8,121.2-102.8
				c88.2,0,120,56.3,122.4,102.8H2078.2z"/>
			<rect x="1214.4" y="277" class="st0" width="186.7" height="610.6"/>
			<polygon class="st0" points="910.3,887.6 1097,887.6 1097,17.4 910.3,17.4 			"/>
			<path class="st0" d="M1306.6,17.2c-59,0-108.2,49.2-108.2,109.4s49.2,109.4,108.2,109.4c61.4,0,110.6-49.2,110.6-109.4
				S1368,17.2,1306.6,17.2"/>
			<path class="st0" d="M3296.4,682.1c67.9-70.8,97.4-158.4,96.4-232.6h-160.6c-3.4,29.5-18.9,80-49.3,112.8l-111.8-117.7l28.2-20.8
				c63.7-46.5,122.5-113.9,122.5-200.8c0-131-105.3-222.9-248.6-222.9c-121.2,0-246.1,82-246.1,230.2c0,78.4,49,140.8,90.6,186.1
				l12.2,13.5c-93.1,67.3-148.2,129.8-148.2,236.3c0,120,96.7,238.8,268.2,238.8c91.9,0,167.8-40.4,227.8-101.6l78,84.1h235.1
				L3296.4,682.1z M2973.2,149.4c42.9,0,75.9,31.8,75.9,73.5c0,28.2-14.7,57.6-50.2,83.3l-34.3,24.5l-20.8-22
				c-20.8-22-44.1-50.2-44.1-84.5C2899.7,172.7,2936.5,149.4,2973.2,149.4 M2954.8,745.7c-56.3,0-93.1-44.1-93.1-89.4
				c0-47.8,26.9-78.4,67.3-107.8l6.1-4.9L3070,688.2C3034.4,724.9,2997.7,745.7,2954.8,745.7"/>
			<path class="st0" d="M7066.2,732c8.3,0,15.3,2.6,20.8,7.7c5.5,5.1,8.3,11.7,8.3,19.7c0,12.4-5.2,20.7-15.7,24.9l18.6,47h-21.8
				c-1.2-3.1-15.9-38.8-15.9-38.8h-26v38.8h-21.8V732H7066.2z M7058.5,777c4.6,0,8.3-1.1,10.9-3.1c2.6-2.1,4-5.8,4-11
				c0-5-1.3-8.5-3.9-10.6c-2.6-2.1-6.3-3.1-11.1-3.1h-23.9V777H7058.5z"/>
			<path class="st0" d="M7055.4,699.5c45.3,0,82.1,36.8,82.1,82.1s-36.8,82.1-82.1,82.1c-45.3,0-82.1-36.8-82.1-82.1
				S7010.1,699.5,7055.4,699.5 M7055.4,675.6c-58.6,0-106.1,47.5-106.1,106.1c0,58.6,47.5,106.1,106.1,106.1
				c58.6,0,106.1-47.5,106.1-106.1C7161.5,723.1,7114,675.6,7055.4,675.6"/>
		</g>
	</g>
</g>
</svg>
