<?xml version="1.0" encoding="utf-8"?>
<!-- Generator: Adobe Illustrator 25.2.1, SVG Export Plug-In . SVG Version: 6.00 Build 0)  -->
<svg version="1.1" id="Ebene_1" xmlns="http://www.w3.org/2000/svg" xmlns:xlink="http://www.w3.org/1999/xlink" x="0px" y="0px"
	 viewBox="0 0 3892.3 3892.3" style="enable-background:new 0 0 3892.3 3892.3;" xml:space="preserve">
<style type="text/css">
	.st0{clip-path:url(#SVGID_2_);}
	.st1{clip-path:url(#SVGID_4_);}
	.st2{fill:#010202;}
</style>
<g id="WAA__x2B_Square_black_1_">
	<g>
		<g>
			<defs>
				<rect id="SVGID_1_" y="0" width="3892.3" height="3892.3"/>
			</defs>
			<clipPath id="SVGID_2_">
				<use xlink:href="#SVGID_1_"  style="overflow:visible;"/>
			</clipPath>
			<g class="st0">
				<g>
					<defs>
						<rect id="SVGID_3_" y="0" width="3892.3" height="3892.3"/>
					</defs>
					<clipPath id="SVGID_4_">
						<use xlink:href="#SVGID_3_"  style="overflow:visible;"/>
					</clipPath>
					<path class="st1" d="M0,3892.3h3892.3V0H0V3892.3z M3667.9,3667.9H224.4V224.4H3668v3443.5H3667.9z"/>
				</g>
			</g>
		</g>
	</g>
</g>
<g id="AK_x5F_Logo_x5F_twolines_x5F_black_1_">
	<g>
		<rect x="2447.7" y="2209.1" class="st2" width="156.6" height="512.2"/>
		<g>
			<path class="st2" d="M2998.2,2194.6c-52.7,0-115.7,23.8-143.6,72.3v-57.7h-151.8v512.2h157V2427c0-51.6,33.1-89.9,84.7-89.9
				c56.8,0,83.7,38.2,83.7,88.8v295.4h157v-322.3C3185.1,2286.5,3127.3,2194.6,2998.2,2194.6"/>
			<path class="st2" d="M1704.4,2517.2c-11.6,37.6-39.8,74.9-99.8,74.9c-64.7,0-119.2-45.2-119.2-126.4
				c0-82.1,52.4-127.3,117.1-127.3c55,0,85.6,30.7,99.2,65.6h144.7v-0.1h1.2c0.1-10.3-0.8-20.9-2.7-31.5h0.1
				c-0.1-0.3-0.1-0.6-0.3-0.9c-7.2-39-28.5-78.8-66.1-111.6c-27.6-25.7-63-46-106.3-56.7c-0.3-0.1-0.4-0.1-0.6-0.3v0.1
				c-22.1-5.4-46.2-8.4-72.3-8.4c-149.9,0-269.1,111.9-269.1,271.1c0,158.2,122.3,270.1,274.2,270.1c87.9,0,148.3-36.7,190.4-86.5
				c42.2-44,60.6-98.4,59.9-144.6h-147.8C1706.3,2508.8,1705.4,2513.1,1704.4,2517.2"/>
			<polygon class="st2" points="2409.6,2721.3 2204.4,2383.7 2360.8,2209.1 2187.3,2209.1 2069.1,2341.1 2069.1,1991.5 
				1907.6,1991.5 1907.6,2721.3 2069.1,2721.3 2069.1,2512.2 2087.5,2494.2 2225.5,2721.3 			"/>
			<polygon class="st2" points="643.5,1991.5 643.5,2279.5 857.2,1991.5 1058.6,1991.5 818.8,2286.6 1076.7,2721.3 876.2,2721.3 
				709.5,2420.1 643.5,2500.4 643.5,2721.3 482.1,2721.3 482.1,1991.5 			"/>
			<path class="st2" d="M3330,2590.7c7,0,12.8,2.2,17.4,6.5c4.6,4.3,7,9.8,7,16.5c0,10.5-4.4,17.4-13.2,20.9l15.6,39.4h-18.3
				c-1-2.6-13.3-32.5-13.3-32.5h-21.8v32.5h-18.3v-83.3H3330z M3323.5,2628.4c3.9,0,7-0.9,9.2-2.6c2.2-1.8,3.4-4.8,3.4-9.3
				c0-4.3-1-7.2-3.2-8.9c-2.2-1.8-5.3-2.6-9.3-2.6h-20v23.5h20V2628.4z"/>
			<path class="st2" d="M3321,2563.4c38,0,68.9,30.9,68.9,68.9c0,38-30.9,68.9-68.9,68.9c-38,0-68.9-30.9-68.9-68.9
				C3252,2594.4,3283,2563.4,3321,2563.4 M3321,2543.3c-49.2,0-89,39.9-89,89c0,49.2,39.9,89,89,89c49.2,0,89-39.9,89-89
				C3409.9,2583.2,3370.2,2543.3,3321,2543.3"/>
			<rect x="1114.8" y="2209.1" class="st2" width="156.6" height="512.2"/>
			<path class="st2" d="M1191.8,1991.2c-49.4,0-90.8,41.2-90.8,91.8c0,50.5,41.2,91.8,90.8,91.8c51.5,0,92.7-41.2,92.7-91.8
				C1284.7,2032.5,1243.3,1991.2,1191.8,1991.2"/>
			<path class="st2" d="M2521.5,1991.2c-49.4,0-90.8,41.2-90.8,91.8c0,50.5,41.2,91.8,90.8,91.8c51.5,0,92.7-41.2,92.7-91.8
				C2614.4,2032.5,2573.2,1991.2,2521.5,1991.2"/>
			<path class="st2" d="M1021.3,1901.1h186.2l-272.9-729.9c-0.1-0.4-180.1,0-180.1,0L482,1901.1h182.9l29.3-90.1h297.6
				L1021.3,1901.1z M737.9,1679.7l106.6-321.1l104.7,321.1H737.9z"/>
			<path class="st2" d="M2053.4,1388.9h-109.9v-32c0-55.9,38.6-68.2,66.1-68.2c24.4,0,37.7,3.1,45.7,5v-126.1
				c-14.2-7.1-41.7-11.2-73.2-11.2c-123,0-193.3,79.3-193.3,195.2v37.1h-80.3v130.1h80.3v382h154.5v-382h109.9v-129.9H2053.4z"/>
			<path class="st2" d="M2324.8,1374.3c-132.5,0-254.7,104.7-254.7,269.1c0,171.5,125.4,272.2,266,272.2
				c129.4,0,211.1-75,235.6-163.3h-152.2c-17.8,19.2-44.3,30.7-81.5,30.7c-60.6,0-113-41.1-116.1-98.6h355.3
				c1-3.1,3.1-26.7,3.1-48.3C2580.5,1471.9,2483,1374.3,2324.8,1374.3 M2225.2,1583.9c3.1-38,35.9-86.2,101.7-86.2
				c74,0,100.7,47.3,102.6,86.2H2225.2z"/>
			<rect x="1500.7" y="1388.9" class="st2" width="156.6" height="512.2"/>
			<rect x="1245.7" y="1171.1" class="st2" width="156.6" height="729.9"/>
			<path class="st2" d="M1578,1171c-49.4,0-90.8,41.2-90.8,91.8c0,50.5,41.2,91.8,90.8,91.8c51.5,0,92.8-41.2,92.8-91.8
				C1670.8,1212.2,1629.5,1171,1578,1171"/>
			<path class="st2" d="M3247.1,1728.7c56.9-59.4,81.7-132.9,80.8-195.1h-134.7c-2.8,24.7-15.9,67.1-41.3,94.6l-93.7-98.8l23.6-17.4
				c53.5-39,102.8-95.5,102.8-168.5c0-109.9-88.3-186.9-208.5-186.9c-101.7,0-206.4,68.8-206.4,193.1c0,65.7,41.1,118.1,76,156.1
				l10.3,11.4c-78.1,56.5-124.3,108.8-124.3,198.2c0,100.7,81.1,200.2,224.9,200.2c77.1,0,140.7-34,191.1-85.2l65.5,70.6h197.1
				L3247.1,1728.7z M2976,1281.9c35.9,0,63.7,26.7,63.7,61.6c0,23.6-12.4,48.3-42.1,69.8l-28.8,20.5l-17.4-18.5
				c-17.4-18.5-36.9-42.1-36.9-70.9C2914.3,1301.4,2945.1,1281.9,2976,1281.9 M2960.5,1782.1c-47.3,0-78.1-36.9-78.1-75
				c0-40,22.6-65.7,56.4-90.4l5.2-4.1l113,121.2C3027.4,1764.6,2996.5,1782.1,2960.5,1782.1"/>
		</g>
	</g>
</g>
</svg>
