<svg width="20" height="16" viewBox="0 0 20 16" fill="none" xmlns="http://www.w3.org/2000/svg">
    <g clip-path="url(#clip0)">
        <path opacity="0.4" d="M13.1913 0.567623C13.2388 0.581277 13.2831 0.604169 13.3217 0.634986C13.3602 0.665803 13.3924 0.703938 13.4162 0.747202C13.44 0.790466 13.455 0.838006 13.4604 0.887094C13.4658 0.936182 13.4614 0.98585 13.4476 1.03325L9.18195 15.727C9.16829 15.7744 9.14541 15.8187 9.11461 15.8572C9.08382 15.8958 9.04571 15.9279 9.00249 15.9517C8.95926 15.9755 8.91176 15.9906 8.8627 15.996C8.81365 16.0014 8.76401 15.9971 8.71663 15.9832L6.81038 15.4301C6.76293 15.4165 6.71863 15.3936 6.68004 15.3628C6.64146 15.3319 6.60934 15.2938 6.58553 15.2505C6.56172 15.2073 6.54669 15.1597 6.5413 15.1107C6.53591 15.0616 6.54027 15.0119 6.55413 14.9645L10.8198 0.270748C10.8334 0.223325 10.8563 0.179064 10.8871 0.140501C10.9179 0.101939 10.956 0.0698347 10.9992 0.0460286C11.0424 0.0222225 11.09 0.00718304 11.139 0.0017724C11.1881 -0.00363824 11.2377 0.000686396 11.2851 0.0144984L13.1913 0.567623Z" fill="black" />
        <path d="M19.8821 7.72718L15.3786 3.50218C15.3058 3.43445 15.2092 3.39812 15.1098 3.40104C15.0104 3.40397 14.9161 3.44591 14.8474 3.51781L13.488 4.96906C13.4537 5.00566 13.4271 5.04879 13.4097 5.09587C13.3924 5.14295 13.3846 5.19304 13.387 5.24316C13.3894 5.29328 13.4018 5.34242 13.4235 5.38766C13.4452 5.43291 13.4757 5.47334 13.5133 5.50656L16.3436 8.00031L13.5127 10.4909C13.4748 10.524 13.4439 10.5643 13.422 10.6096C13.4002 10.6548 13.3876 10.7041 13.3853 10.7543C13.3829 10.8045 13.3907 10.8547 13.4083 10.9018C13.4258 10.9489 13.4527 10.992 13.4874 11.0284L14.8468 12.4784C14.8803 12.5146 14.9208 12.5439 14.9657 12.5644C15.0106 12.585 15.0591 12.5965 15.1085 12.5982C15.1578 12.5999 15.2071 12.5919 15.2533 12.5746C15.2996 12.5572 15.3419 12.5309 15.378 12.4972L19.8814 8.27531C19.9193 8.24041 19.9495 8.19806 19.9702 8.15092C19.9909 8.10378 20.0016 8.05286 20.0017 8.00138C20.0017 7.9499 19.9911 7.89896 19.9706 7.85177C19.95 7.80458 19.9198 7.76216 19.8821 7.72718ZM6.51331 4.97093L5.15394 3.52093C5.12014 3.48493 5.07956 3.45595 5.03453 3.43567C4.98951 3.41539 4.94092 3.40421 4.89156 3.40276C4.8422 3.4013 4.79303 3.40962 4.74689 3.42721C4.70075 3.44481 4.65854 3.47135 4.62268 3.50531L0.119247 7.72406C0.0816316 7.75898 0.0516267 7.80129 0.0311085 7.84834C0.0105903 7.89539 0 7.94617 0 7.99749C0 8.04882 0.0105903 8.0996 0.0311085 8.14665C0.0516267 8.1937 0.0816316 8.23601 0.119247 8.27093L4.62268 12.4928C4.65838 12.5271 4.70054 12.5539 4.74671 12.5717C4.79288 12.5895 4.84213 12.5979 4.89159 12.5964C4.94104 12.595 4.98971 12.5837 5.03476 12.5632C5.0798 12.5427 5.12032 12.5135 5.15394 12.4772L6.51331 11.0272C6.54763 10.9906 6.57425 10.9475 6.59159 10.9004C6.60894 10.8533 6.61666 10.8032 6.6143 10.7531C6.61194 10.703 6.59955 10.6538 6.57785 10.6086C6.55616 10.5633 6.5256 10.5229 6.488 10.4897L3.65612 8.00031L6.48737 5.50968C6.52552 5.47669 6.55656 5.43629 6.57863 5.39094C6.6007 5.3456 6.61333 5.29624 6.61575 5.24586C6.61818 5.19549 6.61035 5.14515 6.59274 5.09789C6.57513 5.05063 6.54811 5.00744 6.51331 4.97093Z" fill="black" />
    </g>
    <defs>
        <clipPath id="clip0">
            <rect width="20" height="16" fill="white" />
        </clipPath>
    </defs>
</svg>