<?xml version="1.0" standalone="no"?>
<!DOCTYPE svg PUBLIC "-//W3C//DTD SVG 20010904//EN"
 "http://www.w3.org/TR/2001/REC-SVG-20010904/DTD/svg10.dtd">
<svg version="1.0" xmlns="http://www.w3.org/2000/svg"
 width="2500.000000pt" height="2500.000000pt" viewBox="0 0 2500.000000 2500.000000"
 preserveAspectRatio="xMidYMid meet">

<g transform="translate(0.000000,2500.000000) scale(0.100000,-0.100000)"
fill="#000000" stroke="none">
<path d="M12494 23086 c-487 -244 -1006 -1195 -1119 -2051 -85 -639 68 -1330
435 -1965 55 -96 136 -259 192 -390 330 -767 418 -1536 252 -2210 -18 -74 -40
-155 -49 -179 -8 -24 -14 -46 -12 -48 5 -5 237 187 377 312 149 134 416 402
532 536 681 784 956 1575 822 2364 -80 471 -297 924 -669 1394 -58 74 -118
155 -132 180 -14 25 -49 82 -78 126 -321 494 -473 1056 -452 1670 4 99 10 208
13 243 8 77 7 77 -112 18z"/>
<path d="M14956 19415 c29 -896 -272 -1709 -922 -2490 -138 -166 -497 -526
-679 -681 -318 -271 -609 -481 -1030 -744 -166 -104 -309 -185 -920 -525 -641
-357 -1245 -750 -1610 -1049 -298 -244 -459 -394 -669 -626 -429 -473 -851
-1044 -1096 -1482 -269 -481 -435 -1088 -490 -1788 -6 -74 -12 -155 -15 -180
-2 -25 -9 -184 -16 -355 -22 -566 25 -1047 150 -1535 337 -1317 1176 -2435
2359 -3142 150 -90 490 -259 657 -327 871 -355 1840 -462 2780 -305 1270 212
2442 927 3222 1969 194 258 329 477 478 770 279 553 441 1102 517 1749 20 170
22 239 22 631 0 347 -3 477 -17 615 -99 983 -356 1751 -866 2585 -47 77 -189
296 -317 486 -380 569 -446 706 -445 932 1 236 55 508 182 908 95 299 143 483
166 634 29 186 20 551 -18 755 -18 96 -62 270 -68 270 -3 0 -14 -19 -24 -43
-59 -144 -299 -541 -482 -797 -608 -852 -1347 -1510 -2125 -1892 -82 -40 -149
-75 -149 -78 -1 -3 52 -18 117 -34 188 -46 453 -139 677 -236 860 -375 1603
-979 2085 -1695 338 -503 561 -1077 660 -1695 88 -552 77 -1161 -30 -1694
-276 -1367 -1170 -2535 -2421 -3161 -513 -258 -1062 -412 -1649 -464 -162 -15
-721 -6 -872 13 -562 71 -1036 212 -1506 446 -1188 593 -2063 1680 -2382 2960
-113 453 -150 846 -131 1370 25 668 146 1178 402 1700 311 633 770 1157 1422
1624 621 444 1325 773 2340 1095 484 154 755 260 1077 421 643 322 1005 625
1440 1205 427 570 738 1181 864 1695 95 391 101 781 16 1128 -60 247 -172 504
-325 747 -60 96 -330 482 -356 510 -6 6 -7 -68 -3 -200z"/>
<path d="M10210 19426 c0 -2 18 -41 39 -87 163 -350 304 -884 341 -1289 28
-315 -7 -631 -95 -856 -48 -121 -166 -342 -258 -483 -170 -259 -329 -459 -693
-871 -375 -425 -480 -553 -591 -722 -148 -225 -234 -488 -278 -848 -18 -148
-28 -518 -17 -618 l7 -63 127 143 c146 165 464 481 653 649 256 227 420 360
810 654 457 345 684 537 848 716 434 477 578 955 486 1614 -141 1018 -494
1564 -1306 2023 -40 23 -73 40 -73 38z"/>
<path d="M12145 12893 c-247 -162 -471 -438 -658 -812 -104 -206 -247 -566
-247 -618 0 -8 12 -27 28 -42 31 -31 97 -43 352 -61 80 -6 165 -12 190 -15 24
-2 137 -7 250 -11 l205 -7 33 27 32 28 0 759 c0 746 0 759 -20 779 -34 34 -85
26 -165 -27z"/>
<path d="M12871 12914 c-21 -26 -21 -33 -21 -776 l0 -750 31 -30 30 -31 212 7
c203 7 642 39 717 52 87 16 112 52 91 127 -41 143 -169 449 -263 627 -76 146
-226 371 -316 476 -141 164 -351 324 -424 324 -28 0 -42 -6 -57 -26z"/>
<path d="M11105 12739 c-106 -43 -356 -171 -480 -246 -277 -166 -505 -343
-732 -568 -149 -147 -153 -152 -153 -193 0 -32 5 -45 23 -56 28 -17 301 -85
527 -130 188 -38 313 -53 354 -42 38 9 68 63 126 220 125 342 256 612 446 919
38 62 46 82 37 95 -15 25 -88 25 -148 1z"/>
<path d="M13943 12754 c-27 -12 -10 -56 73 -190 145 -235 312 -592 424 -912
25 -71 41 -100 68 -124 36 -31 36 -31 122 -25 97 7 350 57 605 119 191 47 222
65 211 120 -15 76 -340 377 -636 588 -248 178 -702 418 -804 426 -28 2 -57 1
-63 -2z"/>
<path d="M9345 11188 c-57 -20 -74 -43 -184 -252 -177 -335 -315 -768 -380
-1189 -25 -165 -9 -234 68 -292 25 -19 44 -20 701 -23 l675 -2 44 22 c80 41
82 48 102 310 27 337 59 589 118 914 21 117 18 161 -13 209 -32 49 -86 73
-251 110 -245 55 -424 101 -606 156 -167 49 -219 56 -274 37z"/>
<path d="M15590 11159 c-170 -53 -347 -100 -584 -153 -223 -51 -274 -74 -306
-136 -26 -51 -25 -90 4 -247 51 -266 95 -635 114 -955 7 -109 11 -131 32 -161
52 -76 5 -72 762 -75 748 -3 712 -6 762 60 42 57 51 105 36 210 -34 254 -117
583 -211 838 -63 170 -258 568 -299 609 -63 62 -136 65 -310 10z"/>
<path d="M11121 10812 c-19 -9 -43 -28 -53 -42 -45 -62 -134 -716 -154 -1132
l-7 -147 31 -31 31 -31 623 3 c602 3 624 4 657 23 19 11 43 38 55 60 20 39 21
55 24 533 2 422 1 502 -13 554 -19 74 -53 123 -97 137 -18 5 -123 15 -233 21
-230 13 -494 34 -678 55 -158 18 -145 19 -186 -3z"/>
<path d="M13910 10819 c-105 -15 -516 -49 -715 -58 -110 -6 -209 -13 -220 -17
-38 -13 -85 -68 -102 -118 -16 -46 -18 -97 -18 -531 0 -264 4 -502 8 -528 11
-64 53 -111 111 -126 31 -7 234 -11 640 -11 l596 0 32 29 c32 28 32 29 30 112
-5 199 -51 669 -82 849 -5 30 -19 111 -30 180 -25 148 -38 180 -89 208 -40 23
-69 25 -161 11z"/>
<path d="M8880 8879 c-66 -27 -110 -101 -110 -186 0 -66 28 -243 66 -413 79
-358 214 -710 396 -1033 40 -71 57 -91 90 -108 58 -30 144 -22 293 25 153 48
371 105 598 156 219 49 263 74 286 166 9 34 6 70 -19 205 -53 290 -94 632
-115 969 -9 128 -23 162 -84 198 l-46 27 -665 2 c-430 1 -674 -2 -690 -8z"/>
<path d="M10963 8875 c-55 -24 -58 -42 -45 -265 24 -389 102 -960 143 -1047
14 -28 32 -47 57 -59 36 -17 46 -16 257 4 253 25 430 39 669 51 184 10 198 14
243 80 41 60 44 112 41 627 -3 466 -4 491 -23 528 -26 52 -58 74 -124 86 -32
6 -279 10 -620 10 -465 -1 -572 -3 -598 -15z"/>
<path d="M12997 8880 c-65 -11 -95 -33 -120 -88 -21 -46 -22 -60 -25 -511 -3
-492 1 -565 41 -636 38 -67 67 -77 251 -86 222 -11 556 -37 706 -54 69 -8 141
-15 160 -15 44 0 94 30 114 68 44 85 141 872 147 1190 2 78 0 86 -25 110 l-26
27 -588 1 c-323 1 -609 -2 -635 -6z"/>
<path d="M14933 8874 c-57 -21 -100 -72 -107 -126 -3 -24 -10 -117 -16 -208
-20 -290 -54 -565 -106 -847 -27 -147 -29 -188 -13 -230 25 -67 84 -103 209
-128 135 -27 501 -120 667 -169 228 -68 293 -61 361 40 89 134 250 496 330
744 73 226 162 642 162 756 0 55 -49 134 -99 161 l-44 23 -651 -1 c-550 0
-658 -3 -693 -15z"/>
<path d="M6745 7173 c-233 -33 -423 -208 -466 -431 -55 -284 126 -586 400
-666 88 -26 87 -26 95 57 4 39 9 93 13 118 l5 47 -54 16 c-141 41 -238 182
-225 326 23 259 342 378 520 195 62 -64 91 -136 91 -230 1 -69 -3 -88 -27
-134 -15 -30 -26 -55 -25 -55 2 -1 45 -32 96 -69 51 -37 97 -65 103 -62 5 4
21 29 34 56 102 201 58 474 -106 653 -70 76 -135 120 -226 151 -69 23 -173 36
-228 28z"/>
<path d="M17985 6988 c-7 -18 -32 -75 -54 -126 l-41 -94 32 -38 c49 -56 741
-790 743 -787 2 1 26 55 54 121 l52 119 -59 66 -59 66 97 225 97 225 90 3 90
3 52 118 c28 66 51 122 51 125 0 3 -254 6 -566 6 l-565 0 -14 -32z m635 -217
c0 -10 -90 -224 -112 -266 l-14 -25 -137 144 c-75 79 -137 147 -137 150 0 3
90 6 200 6 114 0 200 -4 200 -9z"/>
<path d="M12045 6983 c-177 -7 -559 -35 -646 -47 -109 -15 -136 -27 -149 -62
-13 -32 -8 -49 52 -213 126 -341 272 -621 446 -854 168 -227 439 -450 523
-432 62 14 59 -23 59 798 0 494 -3 755 -10 768 -6 10 -24 26 -40 34 -28 15
-56 16 -235 8z"/>
<path d="M12893 6970 c-22 -13 -34 -29 -38 -52 -3 -18 -5 -365 -3 -770 3 -827
-2 -773 76 -773 79 0 317 192 465 375 106 131 216 309 317 515 102 207 230
531 230 582 0 53 -35 73 -152 88 -119 16 -323 31 -593 45 -255 13 -265 13
-302 -10z"/>
<path d="M10505 6810 c-177 -20 -739 -154 -756 -181 -23 -36 -9 -77 46 -141
66 -78 273 -267 415 -380 249 -197 597 -404 877 -522 98 -41 188 -30 169 20
-3 9 -35 62 -70 118 -168 267 -331 611 -437 925 -37 108 -64 148 -109 161 -19
5 -42 9 -50 9 -8 -1 -46 -5 -85 -9z"/>
<path d="M14545 6813 c-44 -11 -76 -59 -110 -163 -83 -257 -255 -625 -416
-892 -102 -169 -107 -191 -44 -196 57 -5 99 10 290 103 386 188 715 420 1032
728 125 122 159 171 149 213 -9 34 -40 46 -251 97 -336 81 -591 124 -650 110z"/>
<path d="M7280 6180 c-118 -82 -240 -172 -272 -199 -222 -198 -237 -496 -36
-717 147 -160 366 -200 582 -105 36 16 474 305 524 347 2 1 -29 50 -69 108
l-72 105 -106 -73 c-391 -269 -387 -267 -481 -287 -100 -21 -205 34 -254 133
-50 100 -24 201 75 293 30 28 150 115 266 195 117 80 213 148 213 151 0 15
-132 199 -143 198 -7 0 -109 -67 -227 -149z"/>
<path d="M18225 5695 c-90 -136 -152 -222 -159 -218 -6 4 -156 102 -334 220
-178 117 -325 213 -327 213 -6 0 -124 -176 -131 -195 -4 -10 116 -95 426 -300
238 -157 433 -285 435 -283 5 8 422 644 428 654 4 7 -30 36 -86 73 -51 33 -96
61 -99 61 -3 0 -72 -101 -153 -225z"/>
<path d="M16889 5274 c-145 -158 -264 -290 -264 -294 0 -4 99 -99 220 -211
122 -112 292 -270 378 -351 l158 -147 246 267 c136 147 257 279 271 294 l24
26 -77 74 c-42 40 -82 74 -89 76 -6 1 -92 -85 -191 -193 -98 -107 -182 -194
-185 -193 -4 2 -35 28 -68 59 l-61 55 96 105 c53 57 123 132 156 167 l59 62
-77 73 c-43 39 -80 73 -84 74 -3 1 -73 -73 -156 -163 -82 -90 -152 -164 -155
-164 -3 1 -33 27 -68 58 l-62 57 185 200 185 200 -81 78 c-45 42 -85 77 -89
77 -4 0 -126 -129 -271 -286z"/>
<path d="M7807 5037 l-368 -362 280 -285 279 -285 83 82 83 82 -187 190 c-103
104 -187 194 -187 199 0 6 128 135 285 288 l286 278 -88 88 c-48 48 -90 88
-93 88 -3 -1 -171 -164 -373 -363z"/>
<path d="M16307 4675 c-38 -13 -85 -34 -105 -46 -52 -32 -442 -331 -442 -339
0 -14 616 -815 627 -815 17 0 391 287 440 337 57 58 110 149 135 232 28 94 22
223 -16 316 -56 138 -176 261 -304 311 -87 35 -243 37 -335 4z m248 -240 c91
-44 165 -150 172 -248 10 -124 -29 -190 -179 -304 -53 -40 -100 -73 -104 -72
-9 0 -334 425 -341 444 -5 15 198 163 255 186 58 24 140 21 197 -6z"/>
<path d="M8755 4630 c-269 -43 -465 -297 -442 -574 20 -230 202 -441 434 -501
76 -20 223 -18 292 3 29 9 54 21 54 25 0 5 -19 55 -44 113 l-44 104 -30 -7
c-16 -5 -66 -8 -110 -8 -90 1 -136 19 -205 81 -127 115 -127 333 0 448 70 63
115 81 205 81 98 -1 156 -25 228 -97 59 -59 86 -117 89 -194 l3 -59 45 -6 c25
-4 80 -10 123 -14 l77 -7 0 44 c0 288 -255 552 -550 571 -41 3 -97 2 -125 -3z"/>
<path d="M15496 4144 c-60 -30 -111 -56 -113 -58 -2 -1 58 -128 132 -281 75
-153 134 -279 133 -281 -3 -2 -549 242 -703 315 l-40 18 -110 -54 c-60 -31
-111 -56 -113 -58 -1 -1 42 -94 97 -206 211 -437 351 -723 355 -726 2 -2 54
21 115 51 l110 56 -53 112 c-30 62 -90 189 -135 282 -45 93 -81 170 -79 171 2
1 169 -74 373 -167 l369 -169 114 55 c62 31 111 59 109 63 -2 5 -77 161 -168
348 -90 187 -191 395 -224 461 l-60 122 -109 -54z"/>
<path d="M9435 3711 c-120 -251 -220 -463 -222 -471 -4 -16 5 -22 145 -86 l73
-34 86 177 c47 98 86 179 88 181 5 5 400 -187 403 -196 1 -5 -33 -85 -78 -177
-44 -92 -80 -173 -79 -179 0 -6 49 -34 109 -63 98 -47 111 -50 119 -35 10 19
303 631 387 810 l54 113 -112 55 c-61 30 -114 51 -118 47 -3 -5 -41 -82 -84
-173 -43 -91 -82 -169 -86 -173 -5 -6 -391 171 -407 187 -2 2 34 84 81 182 47
98 82 181 78 185 -4 4 -55 29 -113 56 l-106 50 -218 -456z"/>
<path d="M10577 3189 c-191 -243 -347 -443 -345 -444 2 -2 58 -19 126 -38
l123 -35 37 46 c20 25 46 56 57 69 l20 24 238 -65 c130 -36 239 -66 241 -66 2
0 7 -30 11 -67 11 -117 2 -107 141 -143 68 -18 126 -31 127 -29 2 2 -31 252
-74 554 -43 303 -78 553 -78 556 -1 6 -183 59 -251 73 -23 5 -55 -32 -373
-435z m441 -69 c12 -96 22 -185 22 -196 0 -20 -4 -20 -150 19 -107 29 -149 44
-146 53 10 26 241 313 247 306 3 -4 16 -86 27 -182z"/>
<path d="M14106 3586 l-120 -32 -78 -545 c-42 -299 -77 -551 -78 -561 0 -14
15 -12 120 16 66 17 124 36 128 41 5 6 14 45 20 88 5 43 12 80 14 81 6 5 463
126 474 126 9 0 68 -69 106 -124 4 -6 56 4 133 24 95 25 125 37 121 47 -3 8
-158 207 -343 443 -247 313 -343 429 -358 429 -11 0 -74 -15 -139 -33z m224
-443 c84 -109 117 -159 108 -163 -18 -10 -290 -82 -293 -78 -6 6 50 398 57
398 4 0 61 -71 128 -157z"/>
<path d="M13005 3415 c-272 -59 -453 -295 -432 -564 24 -303 276 -517 587
-498 153 10 280 67 378 168 53 56 104 131 94 140 -4 4 -54 29 -111 55 -96 45
-104 47 -113 30 -23 -42 -85 -99 -132 -124 -45 -24 -62 -27 -146 -27 -85 0
-100 3 -141 27 -124 73 -184 199 -158 335 29 158 156 251 328 241 90 -6 148
-31 203 -91 l38 -40 99 68 c115 78 114 73 26 153 -130 119 -333 168 -520 127z"/>
<path d="M11990 2973 c-67 -12 -130 -106 -116 -174 15 -78 79 -124 163 -117
46 4 60 10 91 42 35 34 37 40 37 101 0 59 -2 66 -35 100 -28 29 -89 59 -110
54 -3 -1 -16 -4 -30 -6z"/>
</g>
</svg>
