<?xml version="1.0" encoding="UTF-8"?>
<svg xmlns="http://www.w3.org/2000/svg" width="83.405" height="85" viewBox="0 0 83.405 85">
  <path id="Path_3040" data-name="Path 3040" d="M86.059,44.774l-.376.035.282,2.751.376-.043c.864-.1,1.839-.381,1.719-1.566-.094-.917-.727-1.289-2-1.177Zm1.394,16.732,2.352-.251-1.531-3.426-.821,3.677Zm29.273-7.648.89,8.591-2.823.3-.89-8.591-5.381.58.188,1.834,3.191-.337.248,2.422L108.968,59l.2,1.9,3.362-.363.257,2.431-6.193.658-1.146-11.013,6.039-.64,7.331-.779.248,2.422-2.335.242ZM102.415,64.066,96.5,57.829l.7,6.791-2.831.3h0l-2.669.285L90.8,63.365l-3.892.415-.556,2-2.994.32h0L77.7,66.7,76.564,55.692l2.823-.3.89,8.591,3.747-.4,2.37-8.937,3.088-.329,4.782,9.5-1.027-9.9,2.823-.294,5.911,6.22-.7-6.774,2.823-.3,1.146,11.013-2.823.285ZM70.345,49.592a5.449,5.449,0,0,1,1.411-4.274,6.4,6.4,0,0,1,4.021-2.033,6.317,6.317,0,0,1,4.346,1.142,5.445,5.445,0,0,1,2.258,3.893,6.158,6.158,0,0,1-1.249,4.551,6.071,6.071,0,0,1-4.14,2.163h0a5.872,5.872,0,0,1-6.647-5.442Zm5.133,12.735a4.073,4.073,0,0,1-2.754,1.194l-1.24.138-.368.043.376,3.651-2.831.3L67.522,56.643l4.328-.459c2.549-.268,4.089.865,4.328,3.2a3.714,3.714,0,0,1-.7,2.941Zm-8.486-6.61-2.823.3L63.031,45.007l6.245-.666.248,2.422-3.422.363.2,1.843,3.1-.329.257,2.422-3.105.337.445,4.317ZM56.8,68.92,55.657,57.906l6.185-.658.248,2.422-3.362.355.2,1.843,3.182-.346.248,2.422-3.182.337.2,1.895,3.353-.355.248,2.422L56.8,68.92Zm-4.166.441-.47-4.516-4.08.433.47,4.516-2.823.3-.89-8.582-2.139.225.89,8.582-2.831.3-.89-8.582-2.335.251-.248-2.422L47.411,58.8l.436,4.248,4.08-.433-.445-4.248,2.831-.3,1.138,11.013-2.823.285Zm1.129-35.488,4.328-.459a4.315,4.315,0,0,1,2.943.562,3.446,3.446,0,0,1,1.386,2.647,3.768,3.768,0,0,1-.7,2.95,4.092,4.092,0,0,1-2.754,1.194l-1.608.173.376,3.651-2.823.3L53.758,33.873Zm11.856-1.254.89,8.591,3.747-.4,2.37-8.937,3.088-.329,5.244,10.581-3.02.32-.907-1.834-3.884.407-.556,1.99-8.657.926L62.783,32.921l2.831-.3ZM86.6,53.633l-2.831.3L82.629,42.922l4.226-.45a4.178,4.178,0,0,1,2.78.528,3.188,3.188,0,0,1,1.352,2.466,3.007,3.007,0,0,1-1.565,3.175l-.453.225,3.849,4.109-3.524.372-3.139-3.98.445,4.265ZM83.014,30.767l5.911,6.22-.7-6.774,9.966-1.055.248,2.422-2.335.251.89,8.591-2.823.3-.89-8.591-1.976.208.89,8.591-2.831.3L83.45,35.006l.7,6.783-2.823.277-1.138-11,2.823-.3Zm36.861,23.515-.077-.753-.248-2.422-.077-.753-.736.078-7.109.761a7.6,7.6,0,0,0-4.508-1.7c.359-2.976-1.172-8.452-7.314-8.461a13.627,13.627,0,0,0-2.5-6.722L97.12,32.48l1.6-.173.736-.078-.086-.753-.248-2.422-.077-.744-.736.078-7.322.779-2.823.3-.736.078.077.744.188,1.782a15.241,15.241,0,0,0-1.668.744l-2.447-2.578-.248-.268-.359.035-2.831.3-.736.078.077.744.214,2.111a9.8,9.8,0,0,0-2.241.061L76.41,31.191l-.231-.467-.513.052-3.088.329-.5.052-.163.519L70.9,35.482a6.994,6.994,0,0,0-4.337-.926l-.205-2.016-.077-.753-.736.078-2.831.3-.736.078.077.744.1,1a3.6,3.6,0,0,0-.71-.64,5.008,5.008,0,0,0-3.439-.683l-4.328.459-.736.078.077.744,1.146,11.013.017.2a7.166,7.166,0,0,0-3.062,8.34,10.158,10.158,0,0,0-6.895,4.862l-.462.052h0l-6.561.7-.736.078.077.744.248,2.422.077.744.736-.078,1.6-.173.813,7.838.077.744.736-.078,1.933-.208c-3.807,4.819,1.129,14.586,10.308,12.9.958,2.76,5.047,2.838,9.709,2.422l-.128-1.064L46.607,76.792l1.8-4.049,3.8,1.566L51.876,73.1l1.728-.407,1.334,3.3,8.2,6.056-.222-3.3,3.422-.363.95,3.253L69.729,79.4l-7.853-4.213,1.8-4.04,3.8,1.557-.334-1.211,1.719-.407,1.334,3.3,2.78,2.05,1.4-1.289.205-4.689,3.02.216-.077,1.895,2.541-3.3,2.352,1.609L82.15,69.9l1.728-.407,1.334,3.3,2.9,2.146,1.531-1.4.214-4.7,3.02.216-.086,1.895,2.669-3.469,2.609,4.594L93.921,75.46l2.686-.285.95,3.253,7.1-6.506.214-4.689,3.011.216-.086,1.895,2.669-3.469,2.609,4.594L99.242,81.793l.188.865c3.841-.355,7.759-1,9.41-4.447,7.2-.329,10.881-9.283,7.109-13.946-.573-.7-.9-.8-.9-.8l2.652-.285.736-.078-.077-.744-.813-7.838,1.6-.173.727-.069ZM72.518,58.624a3.45,3.45,0,0,0-1.437-.026h-.009l-.479.052.282,2.742.479-.052c1-.1,2.027-.216,1.89-1.566-.068-.632-.3-.995-.727-1.151ZM57.591,38.579c1-.112,2.036-.225,1.891-1.566-.145-1.4-1.086-1.3-2.181-1.185l-.479.052.282,2.751.488-.052Zm16.92-3.512-.821,3.677,2.352-.251-1.531-3.426ZM79.43,48.641a3.081,3.081,0,0,0-3.379-2.578,3.138,3.138,0,0,0-2.079,1.116,2.88,2.88,0,0,0-.693,2.12,3.4,3.4,0,0,0,1.146,2.258,2.963,2.963,0,0,0,1.9.718s.188,0,.359-.017.376-.061.376-.061a3.171,3.171,0,0,0,2.37-3.556Zm9.119,31.214-4.32,3.53.18.813,8.657-.917-.128-1.073-4.388-2.353ZM73.4,81.386l-4.44,3.634.18.813,8.905-.943-.128-1.073L73.4,81.386Zm7.126-5.831-1.873,1.531,2.943-.311.95,3.253,2.335-2.137-4.354-2.336Zm-4.157,3.4,2.019,1.488-.205-2.976-1.814,1.488ZM93.4,78.843l-.188-2.8-1.711,1.4,1.9,1.4Zm1.206,11.143-1.129,9.776-.017.043-1.506,4.049-.59.182L86.008,95.1l-.017-.061L83.4,83.1l5.064-4.135,5.158,2.768.992,8.21-.009.043ZM82.159,81.395l-1.112-3.8-2.1.225.282,4.187L75.144,78.99l5.287-4.326,5.714,3.071-3.986,3.66ZM79.592,91.586l-1.129,9.776L76.846,105.7l-.607.19-5.483-9.162-2.609-12,5.175-4.239,5.3,2.838.992,8.219-.017.043ZM106.5,102.66,101.021,93.5l-2.609-12,13.7-11.212-1.737-3.063-3.422,4.447.154-3.521-1.531-.112-.2,4.231-8.2,7.518-1.112-3.807-2.1.225.282,4.187-3.969-2.933,6.818-5.58-1.745-3.071-3.422,4.447.154-3.512-1.54-.112-.2,4.239-2.207,2.024-3.559-2.63-1.172-2.9-.351.087.6,2.18-3.447-2.353-3.55,4.611.154-3.521-1.54-.112-.188,4.231L73,77.4l-3.43-2.535-1.172-2.9-.351.087.522,1.929-4.534-1.86-1.215,2.734,8.169,4.386L66.881,83l-1.112-3.8-2.07.225.282,4.187L54.323,76.49l-1.172-2.9-.351.087.522,1.929-4.534-1.869-1.223,2.742,15.774,8.47.984,8.21-1.138,9.819-2.464,6.6-2.78,1.055.693,2.673,5.056-1.99,3.986-14.759L73.4,111.087l6.946-2.717-.18-4.213L82.963,95l5.7,14.465,6.946-2.725-.163-3.833.017-.052,2.5-9.517,5.723,14.534,6.946-2.725-.163-3.668L106.5,102.66Z" transform="translate(-36.47 -28.31)" fill="#688716"></path>
</svg>