<?xml version="1.0" encoding="UTF-8"?>
<svg width="188px" height="73px" viewBox="0 0 188 73" version="1.1" xmlns="http://www.w3.org/2000/svg" xmlns:xlink="http://www.w3.org/1999/xlink">
    <!-- Generator: sketchtool 52.5 (67469) - http://www.bohemiancoding.com/sketch -->
    <title>D8DDF7CC-757F-4D72-B4D2-F3AE733CBD2C</title>
    <desc>Created with sketchtool.</desc>
    <g id="desktop" stroke="none" stroke-width="1" fill="none" fill-rule="evenodd">
        <g id="home" transform="translate(-866.000000, -57.000000)" fill="#E4002B">
            <g id="Header">
                <g id="Header-V1" transform="translate(50.000000, 57.000000)">
                    <g id="Logo/Main" transform="translate(816.000000, 0.000000)">
                        <path d="M5.54179407,67.8897053 C5.18150296,68.1826002 4.65500162,68.3292165 3.96212111,68.3292165 L2.41825768,68.3292165 L2.41825768,64.9798437 L4.03931429,64.9798437 C4.69655418,64.9798437 5.20126577,65.130345 5.55361797,65.4311788 C5.90597017,65.7321815 6.08214627,66.1379102 6.08214627,66.6485337 C6.08214627,67.1829739 5.90191626,67.5968104 5.54179407,67.8897053 M6.07319389,65.033389 C5.60800791,64.6415112 4.93809955,64.4454034 4.063131,64.4454034 L1.7768956,64.4454034 L1.7768956,72.741389 L2.41825768,72.741389 L2.41825768,68.8636568 L4.00384259,68.8636568 C4.91022893,68.8636568 5.59821096,68.663664 6.06728194,68.2638473 C6.53652183,67.8640305 6.77097287,67.3216514 6.77097287,66.6367098 C6.77097287,65.9597071 6.53837987,65.4252668 6.07319389,65.033389" id="Fill-1"></path>
                        <path d="M12.4397556,68.2281898 L11.0621024,68.2281898 L11.0621024,64.9799957 L12.4159389,64.9799957 C13.1206433,64.9799957 13.6609955,65.1223892 14.0371644,65.4075141 C14.4133333,65.6924701 14.6013333,66.0904288 14.6013333,66.6010523 C14.6013333,67.1197836 14.4162049,67.5206138 14.0461168,67.8035429 C13.6758598,68.0866408 13.1404061,68.2281898 12.4397556,68.2281898 M13.7165678,68.6082437 C14.7695705,68.2202509 15.2960719,67.5473021 15.2960719,66.5892284 C15.2960719,65.9319885 15.0606074,65.4103856 14.5895094,65.0244198 C14.1182426,64.6384539 13.4373549,64.4453865 12.5466774,64.4453865 L10.4207403,64.4453865 L10.4207403,72.7413721 L11.0621024,72.7413721 L11.0621024,68.76263 L12.1840216,68.76263 C12.7024151,68.76263 13.0961509,68.8567145 13.365398,69.0448834 C13.6344762,69.2330523 14.0104762,69.7073596 14.4932291,70.4676363 L15.9382785,72.7413721 L16.6975418,72.7413721 L14.8210889,69.8730631 C14.357761,69.1605887 13.9896999,68.7388133 13.7165678,68.6082437" id="Fill-3"></path>
                        <path d="M26.3182433,71.1944007 C25.607627,71.9011321 24.7356988,72.2543288 23.7024589,72.2543288 C22.6651651,72.2543288 21.7873251,71.9011321 21.0687698,71.1944007 C20.3502146,70.4876694 19.9909369,69.6216532 19.9909369,68.5963522 C19.9909369,67.5669973 20.3502146,66.6991231 21.0687698,65.9923917 C21.7873251,65.2858293 22.6651651,64.9324636 23.7024589,64.9324636 C24.7356988,64.9324636 25.607627,65.2858293 26.3182433,65.9923917 C27.0288597,66.6991231 27.3842523,67.5669973 27.3842523,68.5963522 C27.3842523,69.6216532 27.0288597,70.4876694 26.3182433,71.1944007 M23.6786422,64.338566 C22.4553754,64.338566 21.4190951,64.7512201 20.5699702,65.5766972 C19.7206764,66.4021743 19.2961984,67.408726 19.2961984,68.5963522 C19.2961984,69.7800934 19.7206764,70.7846181 20.5699702,71.6100952 C21.4190951,72.4355723 22.4553754,72.8482264 23.6786422,72.8482264 C24.9057941,72.8482264 25.9461283,72.4355723 26.7993071,71.6100952 C27.652317,70.7846181 28.0789908,69.7800934 28.0789908,68.5963522 C28.0789908,67.408726 27.652317,66.4021743 26.7993071,65.5766972 C25.9461283,64.7512201 24.9057941,64.338566 23.6786422,64.338566" id="Fill-5"></path>
                        <path d="M38.2015155,69.0061179 C38.2015155,70.0434117 37.9391939,70.8440586 37.4147195,71.4082275 C36.8900762,71.9723964 36.208175,72.2543119 35.3688471,72.2543119 C34.537627,72.2543119 33.8596108,71.9752679 33.3349675,71.417011 C32.8103242,70.8589229 32.5481714,70.0849642 32.5481714,69.095135 L32.5481714,64.445471 L31.9008974,64.445471 L31.9008974,69.1189517 C31.9008974,70.2749912 32.2235209,71.1854314 32.8689369,71.8506102 C33.514184,72.5156201 34.3476,72.8482095 35.3688471,72.8482095 C36.3941481,72.8482095 37.229591,72.5117351 37.8748381,71.8387863 C38.5200852,71.1656686 38.8428776,70.2096219 38.8428776,68.9704773 L38.8428776,64.445471 L38.2015155,64.445471 L38.2015155,69.0061179 Z" id="Fill-7"></path>
                        <path d="M48.6713926,71.2181499 C47.9567224,71.8772478 47.0630045,72.2069657 45.990239,72.2069657 L43.6504582,72.2069657 L43.6504582,64.9798606 L45.9486864,64.9798606 C47.0689164,64.9798606 47.9815526,65.3165039 48.686257,65.9894527 C49.3907925,66.6624014 49.7433136,67.531458 49.7433136,68.5964535 C49.7433136,69.6850969 49.385894,70.5590519 48.6713926,71.2181499 M45.9130458,64.4454203 L43.009265,64.4454203 L43.009265,72.7414059 L46.0258796,72.7414059 C47.4352884,72.7414059 48.5229182,72.3503727 49.288938,71.5684751 C50.0549578,70.7865775 50.4380521,69.7959037 50.4380521,68.5964535 C50.4380521,67.3730178 50.0510728,66.3754185 49.2771141,65.6034868 C48.5029865,64.8313862 47.381743,64.4454203 45.9130458,64.4454203" id="Fill-9"></path>
                        <polygon id="Fill-11" points="55.0853851 64.445471 54.444023 64.445471 54.444023 72.7412877 59.1887849 72.7412877 59.1887849 72.2068474 55.0853851 72.2068474"></polygon>
                        <polygon id="Fill-13" points="63.9528198 67.7320083 61.178933 64.445471 60.4037919 64.445471 63.6283382 68.2875626 63.6283382 72.7412877 64.2695314 72.7412877 64.2695314 68.2875626 67.4940776 64.445471 66.7111666 64.445471"></polygon>
                        <polygon id="Fill-15" points="80.4884586 68.2983055 77.3176266 64.4454034 76.6760956 64.4454034 76.6760956 72.741389 77.3174577 72.741389 77.3174577 65.3837143 80.4854181 69.2614465 83.6417236 65.3837143 83.6417236 72.741389 84.2889977 72.741389 84.2889977 64.4454034 83.6400345 64.4454034"></polygon>
                        <path d="M89.937021,69.3386735 L91.7183759,65.4312126 L93.5059806,69.3386735 L89.937021,69.3386735 Z M91.5479429,64.3861488 L87.7129456,72.7414228 L88.3858943,72.7414228 L89.6934487,69.8731137 L93.7505664,69.8731137 L95.0628503,72.7414228 L95.7357991,72.7414228 L91.900464,64.3861488 L91.5479429,64.3861488 Z" id="Fill-17"></path>
                        <path d="M104.83385,71.2181499 C104.119349,71.8772478 103.225631,72.2069657 102.152697,72.2069657 L99.8129161,72.2069657 L99.8129161,64.9798606 L102.111144,64.9798606 C103.231543,64.9798606 104.14401,65.3165039 104.848715,65.9894527 C105.553419,66.6624014 105.905771,67.531458 105.905771,68.5964535 C105.905771,69.6850969 105.548352,70.5590519 104.83385,71.2181499 M102.075504,64.4454203 L99.1717229,64.4454203 L99.1717229,72.7414059 L102.188337,72.7414059 C103.597746,72.7414059 104.685376,72.3503727 105.451396,71.5684751 C106.217416,70.7865775 106.60051,69.7959037 106.60051,68.5964535 C106.60051,67.3730178 106.213531,66.3754185 105.439572,65.6034868 C104.665613,64.8313862 103.544201,64.4454203 102.075504,64.4454203" id="Fill-19"></path>
                        <polygon id="Fill-21" points="111.259785 68.8398401 115.042588 68.8398401 115.042588 68.2994879 111.259785 68.2994879 111.259785 64.9798437 115.143429 64.9798437 115.143429 64.4454034 110.618423 64.4454034 110.618423 72.741389 115.238527 72.741389 115.238527 72.2069488 111.259785 72.2069488"></polygon>
                        <polygon id="Fill-23" points="124.800413 72.7413046 125.441775 72.7413046 125.441775 64.4454879 124.800413 64.4454879"></polygon>
                        <polygon id="Fill-25" points="136.597371 71.6961901 130.305705 64.4454372 129.762313 64.4454372 129.762313 72.7412539 130.403675 72.7412539 130.403675 65.4906699 136.710881 72.7412539 137.238733 72.7412539 137.238733 64.4454372 136.597371 64.4454372"></polygon>
                        <path d="M150.60131,68.7151317 C150.3123,68.5568604 149.853026,68.3588945 149.223657,68.1212341 C148.594119,67.8837427 148.180451,67.6362854 147.982486,67.3790311 C147.78452,67.1216079 147.685537,66.832598 147.685537,66.5120014 C147.685537,66.0647202 147.852929,65.6895648 148.187377,65.386704 C148.521824,65.0838433 148.938532,64.9323285 149.437332,64.9323285 C149.956063,64.9323285 150.575636,65.1441452 151.296049,65.5677786 L151.296049,64.8612162 C150.662626,64.512749 150.023291,64.3385998 149.378043,64.3385998 C148.720804,64.3385998 148.158662,64.5532881 147.691449,64.9824956 C147.224405,65.4117031 146.990798,65.9312791 146.990798,66.5403788 C146.990798,66.9797211 147.086741,67.3388298 147.278964,67.6177049 C147.471186,67.8965801 147.704793,68.1112683 147.980121,68.2614318 C148.255449,68.4119332 148.71354,68.6102368 149.354734,68.8563429 C149.995758,69.1024489 150.421249,69.3669664 150.631039,69.6500643 C150.840829,69.9331623 150.945724,70.2508873 150.945724,70.6034084 C150.945724,71.0665675 150.776473,71.4576007 150.437972,71.7763393 C150.09947,72.0950778 149.684789,72.2543626 149.193928,72.2543626 C148.604085,72.2543626 147.907319,71.9594408 147.103632,71.3695971 L147.103632,72.123793 C147.831984,72.6067148 148.540742,72.8482602 149.229569,72.8482602 C149.902518,72.8482602 150.472599,72.6285046 150.939812,72.1889934 C151.407025,71.749651 151.640462,71.2111569 151.640462,70.5738487 C151.640462,70.0948119 151.539621,69.7047921 151.337601,69.4039583 C151.135751,69.1031245 150.89032,68.8734031 150.60131,68.7151317" id="Fill-26"></path>
                        <path d="M159.286623,67.8897053 C158.926332,68.1826002 158.399831,68.3292165 157.70695,68.3292165 L156.163087,68.3292165 L156.163087,64.9798437 L157.784143,64.9798437 C158.441383,64.9798437 158.946095,65.130345 159.298447,65.4311788 C159.650799,65.7321815 159.826975,66.1379102 159.826975,66.6485337 C159.826975,67.1829739 159.646914,67.5968104 159.286623,67.8897053 M159.818023,65.033389 C159.353006,64.6415112 158.682929,64.4454034 157.80796,64.4454034 L155.521725,64.4454034 L155.521725,72.741389 L156.163087,72.741389 L156.163087,68.8636568 L157.748672,68.8636568 C158.655227,68.8636568 159.34304,68.663664 159.812111,68.2638473 C160.281351,67.8640305 160.515802,67.3216514 160.515802,66.6367098 C160.515802,65.9597071 160.283209,65.4252668 159.818023,65.033389" id="Fill-27"></path>
                        <path d="M164.382555,69.3386735 L166.16391,65.4312126 L167.951514,69.3386735 L164.382555,69.3386735 Z M165.993477,64.3861488 L162.158479,72.7414228 L162.831259,72.7414228 L164.138983,69.8731137 L168.195931,69.8731137 L169.508384,72.7414228 L170.181164,72.7414228 L166.345829,64.3861488 L165.993477,64.3861488 Z" id="Fill-28"></path>
                        <polygon id="Fill-29" points="173.605078 72.7413046 174.24644 72.7413046 174.24644 64.4454879 173.605078 64.4454879"></polygon>
                        <polygon id="Fill-30" points="185.402306 71.6961901 179.11064 64.4454372 178.567248 64.4454372 178.567248 72.7412539 179.20861 72.7412539 179.20861 65.4906699 185.515816 72.7412539 186.043668 72.7412539 186.043668 64.4454372 185.402306 64.4454372"></polygon>
                        <path d="M41.8053556,29.8316137 L41.8053556,30.8962713 C41.8053556,31.7683684 41.7176898,32.5278005 41.5438785,33.1752435 C41.3692226,33.8231932 41.0207554,34.4268877 40.4978013,34.9871716 C39.9746782,35.5476244 39.3145668,35.8278509 38.5178049,35.8278509 C37.6457078,35.8278509 36.8050286,35.4483037 35.995936,34.6883648 C35.1863367,33.9289326 34.5388938,33.0012633 34.0532694,31.9050189 C33.567476,30.8094501 33.3247482,29.7008751 33.3247482,28.5799695 C33.3247482,26.8119587 33.6995659,25.5417341 34.4502146,24.7692956 C35.2008633,23.9977017 35.7700996,23.5306577 36.1575856,23.3683324 C36.5452406,23.2066828 36.9643134,23.1256047 37.4149729,23.1256047 C38.5656072,23.1256047 39.5848273,23.6673082 40.4733089,24.7507152 C41.3611148,25.8341222 41.8053556,27.1604259 41.8053556,28.7294573 L41.8053556,29.8316137 Z M9.15315076,36.2573962 C8.03241402,36.6683612 6.91150836,36.8737592 5.79077161,36.8737592 C5.2174814,36.8737592 4.68861527,36.8242677 4.20299084,36.7244403 C3.7173664,36.6251195 3.11958383,36.3823917 2.40981204,35.9959191 C1.69987134,35.6099533 1.34498544,34.8564331 1.34498544,33.7356963 C1.34498544,33.1379137 1.56271411,32.6213783 1.99867817,32.1852453 C2.4343044,31.749788 2.84526936,31.4567242 3.23157305,31.3072363 C3.61736999,31.1579173 4.08441402,31.0830889 4.63253621,31.0830889 C5.82810135,31.0830889 7.3038929,31.6312111 9.05974196,32.7269488 C10.815591,33.8231932 11.8179199,34.4454681 12.0670663,34.594956 C11.2453053,35.292566 10.2738875,35.8464313 9.15315076,36.2573962 Z M49.1278965,35.5663738 C48.5049459,35.8406882 48.0818192,35.9771698 47.8576719,35.9771698 C46.9609136,35.9771698 46.2634724,35.4915454 45.7655173,34.5201276 C45.2920546,33.2004115 45.0555766,31.780699 45.0555766,30.261159 C45.0555766,28.7667871 45.2547249,27.3413315 45.6533592,25.9836101 C46.0514868,24.6263953 46.624777,23.4244115 47.3718785,22.3783342 C46.8489243,22.67731 46.3381319,22.9889542 45.8401768,23.3124223 C45.341715,23.6363971 45.0802379,23.9848643 45.0555766,24.3584996 C44.481273,23.8855436 43.7380564,23.2815112 42.8262649,22.5465714 C41.9144733,21.8121384 40.9589333,21.4444151 39.9601517,21.4444151 C37.1126189,21.4444151 35.0642128,22.3036748 33.815609,24.0221941 C32.625618,25.6592974 32.0043565,27.6590566 31.9479396,30.0194447 C31.8616252,30.1658922 31.7732837,30.3190961 31.6808884,30.4854753 C31.1824266,31.3820647 30.6219738,32.1170045 29.9996988,32.689619 C29.3769172,33.2627403 28.6110663,33.7047853 27.7021463,34.0157538 C26.7927195,34.3275669 25.8025524,34.4827978 24.7319827,34.4827978 C23.2126117,34.4827978 21.64983,34.209159 20.0434688,33.6603612 C18.4369387,33.1115633 16.8736503,32.4262839 15.354786,31.6031716 C16.7744985,30.4562534 17.7644967,29.2904169 18.3249495,28.106 C18.8852334,26.9215831 19.1654598,25.6187583 19.1654598,24.1973567 C19.1654598,22.7512938 18.8070268,21.0310854 18.091343,19.0363935 C17.3751526,17.0418706 16.6587932,15.0407601 15.9432783,13.0332309 C15.226919,11.0262084 14.8691615,9.23708356 14.8691615,7.66619407 L14.8691615,7.18006289 C14.8691615,6.98040791 14.9000726,6.70018149 14.9618947,6.33837017 C15.0238857,5.97689668 15.1598606,5.59684277 15.3704949,5.19770171 C15.5807914,4.79889847 15.9834796,4.22577718 16.577715,3.47732435 C17.1719504,2.72954717 17.9028363,2.11909614 18.769697,1.64495777 C19.6358821,1.17098832 20.589733,0.934003594 21.6300672,0.934003594 C22.1746422,0.934003594 22.9609315,1.04666846 23.9889351,1.27132255 C25.0162631,1.49614555 25.9451148,2.3197646 26.7751526,3.74234861 C27.6046836,5.16560827 28.0197024,6.78784726 28.0197024,8.61024798 C28.0197024,10.3829883 27.5992783,11.9310746 26.7594437,13.2538311 C25.9187644,14.5765876 24.7576575,15.9121815 23.2749405,17.260106 C25.4419235,15.940221 26.7552208,15.0873801 27.2163529,14.7009075 C27.6769783,14.3151105 28.2001013,13.6923288 28.7855533,12.8330692 C29.3704985,11.9736406 29.8316305,11.0584708 30.167936,10.087053 C30.5040726,9.11563522 30.6721409,8.15722372 30.6721409,7.21046721 C30.6721409,5.44228751 30.2297581,3.99166397 29.3460061,2.85808985 C28.4615784,1.72502246 27.5714077,0.965421384 26.6746494,0.5791177 C25.77806,0.193151842 24.7939738,8.44564241e-05 23.7234041,8.44564241e-05 C22.0292083,8.44564241e-05 20.3546063,0.405137466 18.6984158,1.21423001 C17.0418875,2.02382929 15.7341642,3.02615813 14.7757527,4.22155436 C13.8166656,5.4171195 13.1504733,6.55069362 12.777007,7.62126325 C12.4033718,8.69250854 12.2165542,9.86290566 12.2165542,11.1331303 C12.2165542,12.4781833 12.521273,14.1032938 13.1318929,16.0086307 C13.7418372,17.9139677 14.3396198,19.7818059 14.9250717,21.6124834 C15.5100169,23.4431608 15.8030807,25.1184385 15.8030807,26.6373028 C15.8030807,27.4844007 15.7120367,28.3249111 15.531131,29.1591716 C15.3500564,29.99377 15.0657761,30.8094501 14.6794724,31.606212 C14.0548327,31.3820647 13.3997887,31.1455867 12.7133269,30.8962713 C12.026865,30.6476316 11.2650681,30.460814 10.4291184,30.3359874 C9.59266199,30.2116676 8.98085966,30.1305894 8.59388032,30.0930907 C8.20690099,30.055761 7.66401509,30.0370117 6.96522264,30.0370117 C5.49196478,30.0370117 4.21228104,30.2366667 3.12650925,30.6347942 C2.04073747,31.0335975 1.24802947,31.5629704 0.749060916,32.222575 C0.249247799,32.8828553 -6.75651393e-05,33.4618886 -6.75651393e-05,33.9598437 C-6.75651393e-05,34.4583055 0.143677269,34.9376801 0.429646721,35.3981366 C0.716291824,35.8594376 1.14009416,36.2638149 1.70105373,36.612451 C2.26150656,36.961425 2.83462785,37.2100647 3.42075544,37.3595526 C4.00620737,37.5090404 4.6482451,37.5836999 5.34653082,37.5836999 C6.59226307,37.5836999 7.85725139,37.3163109 9.14082013,36.7805193 C10.4245578,36.2452345 11.6772155,35.5663738 12.8984553,34.7442749 C14.8901067,35.5417125 16.626193,36.1266577 18.1077276,36.5002929 C19.5887554,36.8737592 21.2628507,37.0605768 23.1301822,37.0605768 C25.4949621,37.0605768 27.5673538,36.1955741 29.3476952,34.4642174 C30.4366764,33.4053028 31.3031993,32.2688571 31.9494598,31.055894 C31.9871274,32.9367385 32.1842487,34.2860144 32.5425128,35.0993297 C32.9423296,36.0087565 33.5051472,36.6497808 34.2301211,37.0232471 C34.9550951,37.3968823 35.6923996,37.5836999 36.4425416,37.5836999 C37.4675048,37.5836999 38.436051,37.3098922 39.349025,36.76177 C40.2613233,36.2143235 41.0803817,35.467053 41.8053556,34.5201276 C42.4257725,35.43023 43.0463583,36.143549 43.6669441,36.6595777 C44.287361,37.1762821 45.0194293,37.434212 45.8634868,37.434212 L46.1244571,37.434212 C48.1103655,37.434212 49.5248417,36.7746074 50.3688992,35.4542156 C51.2129567,34.1343306 52.0318462,32.6149596 52.8264122,30.8962713 C52.5024374,31.2950746 51.9607339,32.1046739 51.2013017,33.3247314 C50.4411939,34.5452956 49.7501714,35.292566 49.1278965,35.5663738 Z" id="Fill-31"></path>
                        <path d="M88.3358117,28.7668377 C88.3978027,28.6173499 88.4292205,28.4557003 88.4292205,28.2812133 C88.4292205,28.1317254 88.3790534,27.9822376 88.2797326,27.8329186 C88.180074,27.6834307 88.0305862,27.5591109 87.8314379,27.4592834 C87.0591684,29.0038225 86.4240561,30.1620579 85.926101,30.9336518 C85.4276392,31.7059213 84.6617883,32.4783597 83.6285484,33.2499536 C82.5948018,34.0222232 81.4926455,34.5890947 80.3222483,34.9498925 C79.1511756,35.3111971 77.9311181,35.491596 76.6610624,35.491596 C75.0172025,35.491596 73.2986832,35.0929617 71.5053355,34.2948485 C69.7121567,33.497411 68.3356859,32.2133355 67.3771055,30.442791 C66.4180183,28.6729222 65.8016553,26.8714667 65.5278476,25.0384244 C65.2535332,23.2060579 65.0795529,21.8162429 65.0047245,20.8681351 C64.930065,19.920703 64.8927353,19.0359375 64.8927353,18.2128252 C64.8927353,14.4732636 65.5465969,11.1319986 66.8541513,8.18987457 C68.1617057,5.2479195 69.8486383,3.29630045 71.9163004,2.33670656 C73.983287,1.37711267 75.564818,0.896555615 76.6610624,0.896555615 C77.8564586,0.896555615 79.0268557,1.1908018 80.1727605,1.77861851 C81.3181585,2.36643522 82.3706544,3.17316298 83.3297416,4.1988018 C84.2881531,5.22460952 85.0107623,6.26882875 85.4965556,7.3317973 C85.9821801,8.3952726 86.2250767,9.50215849 86.2250767,10.6527928 C86.2250767,11.8534253 85.926101,13.0478081 85.3283184,14.2362789 C84.7307048,15.4247497 83.995765,16.3628916 83.1241747,17.0505358 C82.2520776,17.7381801 81.3058279,18.0820866 80.2849186,18.0820866 C79.8366239,18.0820866 79.2883328,17.9758404 78.6410588,17.7621657 C77.9931091,17.5489977 77.4326562,17.191747 76.9598692,16.6904137 C76.4864065,16.1889114 76.0756104,15.5492385 75.7269743,14.7717326 C75.3780004,13.9940579 75.2040201,13.2545574 75.2040201,12.5522178 C75.2040201,11.7495439 75.3656697,10.9095403 75.6896446,10.0315314 C76.0129438,9.15369128 76.4239087,8.22619084 76.9225394,7.24784762 L76.2127677,7.24784762 C75.4403292,8.37550979 74.8118045,9.51550261 74.3260111,10.667995 C73.8403867,11.8201495 73.59749,12.9603112 73.59749,14.0874667 C73.59749,14.5888 73.6535691,15.0774649 73.7655583,15.5532924 C73.8777164,16.0296266 74.0954451,16.6057883 74.4194199,17.2822843 C74.7427191,17.9589491 75.2349312,18.5099429 75.8952115,18.93611 C76.5546473,19.3621082 77.2213463,19.6313553 77.8937883,19.7440201 C78.5663993,19.856685 79.1266832,19.9125951 79.5749779,19.9125951 C81.2188377,19.9125951 82.6694613,19.3002861 83.9273553,18.0749923 C85.1847425,16.8503741 86.1438296,15.3938386 86.80411,13.7062304 C87.4637146,12.0192978 87.7941082,10.5750929 87.7941082,9.37496712 C87.7941082,7.97518634 87.3517254,6.4561531 86.4678045,4.81888086 C85.5835457,3.18143971 84.3628126,1.98114501 82.8066185,1.21884133 C81.2497488,0.456368733 79.4004909,0.0747946092 77.258676,0.0747946092 C74.7678872,0.0747946092 72.5637434,0.81024115 70.6460758,2.28130314 C68.7279015,3.75236514 67.1156284,5.57881977 65.808074,7.7603292 C64.5005197,9.94166972 63.3731953,12.3287461 62.4269456,14.9210516 C61.7293355,17.4643723 61.3808683,19.9948557 61.3808683,22.5126706 C61.3808683,24.6573571 61.6670066,26.6893786 62.2401279,28.6085664 C62.8127425,30.5285987 63.7280812,32.1993157 64.9861441,33.6200417 C66.2435314,35.0409366 67.6696625,36.0385358 69.263862,36.6118261 C70.8573858,37.1849473 72.7503921,37.4715925 74.9423741,37.4715925 C77.8809509,37.4715925 80.4653175,36.7559087 82.6946293,35.3233588 C84.9232654,33.8914846 86.6855332,31.9302376 87.9809258,29.4392798 C88.154906,29.140473 88.2733139,28.9163256 88.3358117,28.7668377" id="Fill-32"></path>
                        <path d="M97.1709164,36.014584 C96.2989883,36.014584 95.5458059,35.6088553 94.9106936,34.7968913 C94.2755813,33.985434 93.7526271,33.0234753 93.3418311,31.9120288 C92.9306972,30.8005822 92.7252992,29.6582246 92.7252992,28.4842803 C92.7252992,27.560327 92.8805301,26.6735346 93.1923432,25.8242408 C93.5034807,24.9754537 93.9451878,24.2509865 94.518478,23.6515148 C95.0910925,23.0520431 95.7262049,22.751885 96.423646,22.751885 C97.1955777,22.751885 97.9555166,23.0584618 98.7026181,23.6700952 C99.4498886,24.2820665 100.01051,24.9876155 100.383808,25.7869111 C100.931592,27.0360216 101.205738,28.3219551 101.205738,29.6453872 C101.205738,31.644133 100.782104,33.2050566 99.935513,34.3288338 C99.0887529,35.4531177 98.1668266,36.014584 97.1709164,36.014584 M101.542212,34.3257934 C102.413465,33.2773513 103.073914,32.2419155 103.52204,31.2179659 C103.970334,30.1946918 104.19465,29.0960827 104.19465,27.922814 C104.19465,27.3490171 104.157321,26.8311303 104.082492,26.3693226 C104.008002,25.9076837 103.870676,25.4144582 103.671358,24.8901527 C103.322385,23.8668787 102.743351,22.9807619 101.934428,22.2318023 C101.124828,21.4828428 100.24665,21.1080252 99.3004007,21.1080252 C98.9764259,21.1080252 98.2169937,21.2703504 97.0214286,21.5950009 C95.8262013,21.9194825 94.6490476,22.6748607 93.49115,23.86046 C92.3330836,25.046566 91.5672327,26.2632453 91.1935975,27.5111734 C90.8199623,28.7592704 90.5829775,29.6833926 90.4838257,30.2821887 C90.3838293,30.8811536 90.3343378,31.467788 90.3343378,32.0415849 C90.3343378,33.1905301 90.5706469,34.2202228 91.0441096,35.1313387 C91.5168967,36.0426235 92.1895076,36.6789182 93.0616047,37.0408985 C93.9328571,37.4027098 94.7427942,37.5837844 95.4897269,37.5837844 C96.6108014,37.5837844 97.6812022,37.3028823 98.7026181,36.741416 C99.7236963,36.1797808 100.669946,35.3742354 101.542212,34.3257934" id="Fill-33"></path>
                        <path d="M115.289623,33.2686861 C114.940649,34.0532863 114.442525,34.6323195 113.795251,35.0059547 C113.147302,35.3795899 112.649347,35.5664075 112.300879,35.5664075 C111.703266,35.5664075 111.124064,35.3299296 110.563611,34.8564668 C110.003158,34.3836798 109.386795,33.61766 108.714353,32.5589143 C108.041911,31.5005064 107.705774,30.2740302 107.705774,28.878979 C107.705774,27.4844345 108.016743,26.2765387 108.639693,25.2551227 C109.261799,24.2340446 109.83509,23.5803518 110.358213,23.2937067 C110.881167,23.0075684 111.416452,22.8639925 111.964574,22.8639925 C112.810996,22.8639925 113.564685,23.1320571 114.224797,23.667342 C114.88457,24.2031335 115.252294,24.8569951 115.327122,25.628758 C115.327122,25.6787562 115.407525,26.3572791 115.56985,27.6648334 C115.731499,28.9722189 115.812746,29.9127256 115.812746,30.4853402 C115.812746,31.5565854 115.638091,32.4840859 115.289623,33.2686861 M118.072969,21.9831119 C117.935812,22.1278703 117.667747,22.38428 117.269789,22.7520032 C116.44769,22.124492 115.862407,21.705926 115.513771,21.4969808 C115.164797,21.2878667 114.716333,21.1828029 114.168887,21.1828029 C113.844743,21.1828029 113.047981,21.4321182 111.777925,21.9300733 C110.507532,22.4285351 109.249638,23.3001254 108.004581,24.545182 C106.758849,25.7909143 106.036746,27.1602907 105.837598,28.6548316 C105.638619,30.1492036 105.538791,31.2576097 105.538791,31.979881 C105.538791,33.1752773 105.731352,34.2090239 106.117825,35.0806142 C106.503622,35.9527112 107.076405,36.5814049 107.836344,36.9672018 C108.595776,37.3536744 109.286967,37.546404 109.909749,37.546404 C111.030655,37.546404 112.138723,37.1540194 113.234799,36.3694192 C114.330536,35.584988 115.227126,34.6824866 115.924736,33.6609017 L115.812746,58.654598 C115.812746,58.9778972 115.97845,59.2207939 116.310533,59.3831191 C116.642277,59.5449376 117.03804,59.6258469 117.497821,59.6258469 C118.391539,59.6258469 118.83882,59.3643698 118.83882,58.8414156 C118.863312,58.8414156 118.894899,57.053811 118.93206,53.4801218 C118.969559,49.905926 119.019219,44.9930958 119.081548,38.7418002 C119.14337,32.4905046 119.174957,27.1602907 119.174957,22.7520032 L118.614673,21.3322907 C118.390357,21.6218074 118.209451,21.8385226 118.072969,21.9831119" id="Fill-34"></path>
                        <path d="M139.983719,33.7286527 C138.862982,35.4022412 137.841397,36.2386976 136.920316,36.2386976 C136.770828,36.2386976 136.472021,36.1324514 136.023726,35.9187766 C135.575263,35.7057775 135.351115,35.0975224 135.351115,34.0935044 L135.351115,21.1828198 C135.251288,21.2329869 135.076801,21.2574792 134.828161,21.2574792 C134.479018,21.2412636 134.13697,21.2243723 133.800833,21.2079878 C133.464528,21.1916032 133.134134,21.1828198 132.810666,21.1828198 C132.138393,21.1828198 131.801918,21.3071396 131.801918,21.5552726 L131.914245,27.8906868 C131.914245,29.9034523 131.425581,31.6243364 130.449602,33.0526634 C129.473455,34.4811594 128.403392,35.3689653 127.239582,35.7169258 C126.075435,36.0648863 125.443363,36.2386976 125.34286,36.2386976 C124.767374,36.2386976 124.479546,35.714561 124.479546,34.6656122 L124.479546,21.9317793 C124.479546,21.6826329 124.330059,21.4951396 124.031252,21.3701441 C123.732276,21.2453175 123.35881,21.1828198 122.910515,21.1828198 C122.038418,21.1828198 121.602961,21.3328144 121.602961,21.6322969 L121.602961,35.4868665 C121.602961,36.210658 121.764104,36.7226329 122.086896,37.0221154 C122.409013,37.3221046 122.856294,37.4715925 123.42705,37.4715925 C124.171449,37.4715925 125.027162,37.2538638 125.995033,36.8178997 C126.962734,36.3822735 127.980265,35.7659105 129.047288,34.968473 C130.11431,34.1717111 131.032689,33.1508018 131.801918,31.9050695 L131.801918,32.7455799 L131.801918,33.6235889 C131.801918,34.6200058 131.926407,35.3608575 132.175554,35.8464819 C132.424362,36.3321064 132.792086,36.7244909 133.27771,37.0232978 C133.763503,37.3221046 134.379866,37.4715925 135.126968,37.4715925 C136.696168,37.4715925 138.22787,36.5376733 139.722242,34.6696661 C141.216614,32.8016589 142.212524,30.896322 142.710986,28.9536553 C142.013545,30.4637362 141.104625,32.0557398 139.983719,33.7286527" id="Fill-35"></path>
                        <path d="M176.89349,29.8316137 L176.89349,30.8962713 C176.89349,31.7683684 176.805994,32.5278005 176.632013,33.1752435 C176.457526,33.8231932 176.10889,34.4268877 175.586105,34.9871716 C175.062982,35.5476244 174.402702,35.8278509 173.60594,35.8278509 C172.733843,35.8278509 171.893163,35.4483037 171.084071,34.6883648 C170.274472,33.9289326 169.627029,33.0012633 169.141404,31.9050189 C168.65578,30.8094501 168.412883,29.7008751 168.412883,28.5799695 C168.412883,26.8119587 168.787701,25.5417341 169.538349,24.7692956 C170.288998,23.9977017 170.858403,23.5306577 171.24572,23.3683324 C171.633375,23.2066828 172.052617,23.1256047 172.503277,23.1256047 C173.653742,23.1256047 174.672962,23.6673082 175.561444,24.7507152 C176.44925,25.8341222 176.89349,27.1604259 176.89349,28.7294573 L176.89349,29.8316137 Z M146.073145,29.1030925 C146.073145,27.9075274 146.153886,26.8930368 146.316211,26.0582695 C146.477861,25.2241779 146.807578,24.4581581 147.30604,23.760717 C147.803995,23.0637826 148.25229,22.5965696 148.651093,22.3597538 C149.049052,22.1232758 149.447855,22.0048679 149.846489,22.0048679 C150.269785,22.0048679 150.605922,22.1296945 150.855406,22.3783342 C151.103877,22.6276496 151.228872,22.9889542 151.228872,23.4617412 L151.228872,23.6299784 C151.228872,23.7174753 151.216035,23.7980467 151.191542,23.8727062 C150.942227,25.4174142 150.319445,26.6933819 149.323535,27.7021294 C148.327118,28.7108769 147.243711,29.4270674 146.073145,29.8501941 L146.073145,29.1030925 Z M180.951622,37.434212 L181.212592,37.434212 C183.1985,37.434212 184.612976,36.7746074 185.457034,35.4542156 C186.301091,34.1343306 187.12015,32.6149596 187.914547,30.8962713 C187.590572,31.2950746 187.048869,32.1046739 186.289436,33.3247314 C185.529498,34.5452956 184.838306,35.292566 184.216031,35.5663738 C183.59325,35.8406882 183.169954,35.9771698 182.945807,35.9771698 C182.049048,35.9771698 181.351607,35.4915454 180.853652,34.5201276 C180.380358,33.2004115 180.14388,31.780699 180.14388,30.261159 C180.14388,28.7667871 180.34286,27.3413315 180.741494,25.9836101 C181.13979,24.6263953 181.712912,23.4244115 182.460182,22.3783342 C181.937059,22.67731 181.426267,22.9889542 180.928481,23.3124223 C180.430019,23.6363971 180.168373,23.9848643 180.14388,24.3584996 C179.569408,23.8855436 178.82636,23.2815112 177.914569,22.5465714 C177.002608,21.8121384 176.047068,21.4444151 175.048286,21.4444151 C172.200923,21.4444151 170.152516,22.3036748 168.903913,24.0221941 C167.721861,25.6483181 167.10043,27.6320305 167.036919,29.9716424 C166.27073,31.8403252 165.515521,33.2137556 164.770784,34.0905822 C163.786698,35.2486487 162.871359,35.8278509 162.025106,35.8278509 C161.601304,35.8278509 161.221756,35.684106 160.885451,35.3969542 C160.549314,35.1098023 160.381077,34.8915669 160.381077,34.7414034 L160.381077,21.6312327 L163.855614,21.6312327 L164.154421,21.0707799 L160.381077,21.0707799 L160.381077,12.7021617 C160.381077,12.4033549 160.097979,12.2540359 159.533135,12.2540359 C159.040923,12.2540359 158.57979,12.3472758 158.149569,12.5340934 C157.719855,12.7209111 157.504491,12.9514771 157.504491,13.2252848 L157.504491,31.0614681 C156.870561,31.8398185 156.211463,32.6436748 155.525171,33.4740503 C154.578414,34.620124 153.625746,35.3922246 152.667165,35.7903522 C151.708078,36.1891554 150.930065,36.3881348 150.332283,36.3881348 C149.510353,36.3881348 148.763082,36.1768248 148.09064,35.7530225 C147.418198,35.3298958 146.944736,34.825522 146.670928,34.2400701 C146.396613,33.6551249 146.228545,33.0760916 146.166723,32.5028014 C146.104225,31.9301869 146.073145,31.2950746 146.073145,30.5974645 C146.969904,30.3236568 148.046892,29.99377 149.304786,29.6074663 C150.562173,29.2216694 151.52126,28.6360485 152.181541,27.8514483 C152.841145,27.0670171 153.321027,26.3822444 153.619834,25.7967925 C153.91864,25.2118473 154.068128,24.632814 154.068128,24.0595238 C154.068128,23.6363971 153.94972,23.1506038 153.713411,22.6024816 C153.476258,22.0548661 153.134209,21.6376514 152.685914,21.3510063 C152.237451,21.0650368 151.689498,20.9214609 151.042055,20.9214609 C150.120297,20.9214609 149.14263,21.2202677 148.10939,21.8180503 C147.075643,22.415664 146.153886,23.1815148 145.344793,24.1156029 C144.535194,25.049522 143.887751,26.0834376 143.402127,27.2165049 C142.916502,28.3500791 142.673436,29.5392255 142.673436,30.7842821 C142.673436,31.9050189 142.866166,33.0200126 143.252639,34.1279119 C143.638436,35.236487 144.285879,36.0584169 145.195305,36.5937017 C146.104225,37.1294933 147.156721,37.3968823 148.352118,37.3968823 C150.64342,37.3968823 152.611086,36.7244403 154.255115,35.3795562 C155.535643,34.3317898 156.616854,33.0465319 157.504491,31.5302013 L157.504491,34.9685912 C157.504491,35.6410332 157.822047,36.2329039 158.45716,36.7430207 C159.092272,37.2538131 159.758464,37.5090404 160.455905,37.5090404 C160.754712,37.5090404 161.433066,37.2977305 162.491981,36.8737592 C163.550389,36.4506325 164.528056,35.4542156 165.424815,33.8851842 C166.008071,32.8644438 166.543018,31.6774933 167.031345,30.3300755 C167.031345,30.344602 167.030669,30.3587907 167.030669,30.3733172 C167.030669,32.6149596 167.230324,34.1904097 167.630648,35.0993297 C168.030633,36.0087565 168.593282,36.6497808 169.318256,37.0232471 C170.04323,37.3968823 170.780703,37.5836999 171.530676,37.5836999 C172.55564,37.5836999 173.524186,37.3098922 174.43716,36.76177 C175.349458,36.2143235 176.168516,35.467053 176.89349,34.5201276 C177.514076,35.43023 178.134662,36.143549 178.755079,36.6595777 C179.375665,37.1762821 180.107564,37.434212 180.951622,37.434212 Z" id="Fill-36"></path>
                    </g>
                </g>
            </g>
        </g>
    </g>
</svg>