<svg xmlns="http://www.w3.org/2000/svg" width="55" height="49" viewBox="0 0 55 49">
  <g id="Logo" transform="translate(-221 -6)">
    <g id="Group_678" data-name="Group 678" transform="translate(231 6)">
      <rect id="Rectangle_658" data-name="Rectangle 658" width="30" height="30" transform="translate(3 1)" fill="none"/>
      <g id="Planet_Logo" data-name="Planet Logo">
        <path id="Path_3040" data-name="Path 3040" d="M56.948,34.85l-.155.014.117,1.093.155-.017c.357-.041.759-.151.71-.622-.039-.364-.3-.512-.827-.467Zm.576,6.646.971-.1-.632-1.361L57.523,41.5Zm12.088-3.038.367,3.412-1.166.12-.367-3.412-2.222.23.078.729,1.318-.134.1.962-1.314.134.081.756,1.388-.144.106.966-2.558.261-.473-4.375,2.494-.254,3.027-.309.1.962-.964.1ZM63.7,42.513l-2.441-2.478.29,2.7-1.169.12h0l-1.1.113-.374-.732L57.3,42.4l-.23.794-1.236.127h0l-2.335.241-.47-4.375,1.166-.12.367,3.412,1.547-.158.978-3.55,1.275-.131,1.975,3.773-.424-3.931,1.166-.117,2.441,2.471-.29-2.691,1.166-.12.473,4.375-1.166.113ZM50.459,36.764a2.113,2.113,0,0,1,.583-1.7,2.694,2.694,0,0,1,3.455-.354,2.148,2.148,0,0,1,.933,1.546,2.379,2.379,0,0,1-.516,1.808,2.539,2.539,0,0,1-1.71.859h0a2.4,2.4,0,0,1-2.745-2.162Zm2.119,5.059a1.713,1.713,0,0,1-1.137.474l-.512.055-.152.017.155,1.45-1.169.12-.47-4.375,1.787-.182c1.053-.107,1.689.344,1.787,1.272a1.434,1.434,0,0,1-.29,1.168Zm-3.5-2.625-1.166.12-.47-4.375,2.579-.265.1.962-1.413.144.081.732,1.279-.131.106.962-1.282.134.184,1.715Zm-4.211,5.244-.47-4.375,2.554-.261.1.962-1.388.141.081.732,1.314-.137.1.962-1.314.134.081.753,1.385-.141.1.962-2.55.268Zm-1.72.175-.194-1.794-1.685.172.194,1.794-1.166.12L39.925,41.5l-.883.089L39.409,45l-1.169.12-.367-3.409-.964.1-.1-.962,4.182-.426.18,1.687,1.685-.172-.184-1.687,1.169-.12.47,4.375-1.166.113Zm.466-14.1,1.787-.182a1.84,1.84,0,0,1,1.215.223,1.355,1.355,0,0,1,.572,1.052,1.454,1.454,0,0,1-.29,1.172,1.721,1.721,0,0,1-1.137.474l-.664.069.155,1.45-1.166.12-.473-4.378Zm4.9-.5.367,3.412,1.547-.158.978-3.55,1.275-.131,2.165,4.2-1.247.127-.374-.729-1.6.162-.23.79-3.575.368-.473-4.375,1.169-.12Zm8.665,8.347L56,38.489l-.47-4.375,1.745-.179a1.782,1.782,0,0,1,1.148.21,1.256,1.256,0,0,1,.558.979,1.182,1.182,0,0,1-.646,1.261l-.187.089,1.59,1.632-1.455.148-1.3-1.581.184,1.694Zm-1.48-9.083,2.441,2.471-.29-2.691,4.115-.419.1.962-.964.1.367,3.412-1.166.12-.367-3.412-.816.082.367,3.412-1.169.12L55.87,30.97l.29,2.694-1.166.11-.47-4.368,1.166-.12Zm15.221,9.34-.032-.3-.1-.962-.032-.3-.3.031-2.935.3a3.212,3.212,0,0,0-1.862-.674,2.93,2.93,0,0,0-3.02-3.361,5.289,5.289,0,0,0-1.031-2.67l-.078-.729.661-.069.3-.031-.035-.3-.1-.962-.032-.3-.3.031-3.024.309-1.166.12-.3.031.032.3.078.708a6.42,6.42,0,0,0-.689.3l-1.01-1.024-.1-.107-.148.014L54.5,29.1l-.3.031.032.3.088.839a4.2,4.2,0,0,0-.925.024l-.431-.839-.1-.186-.212.021-1.275.131-.208.021-.067.206-.417,1.512a2.981,2.981,0,0,0-1.791-.368l-.085-.8-.032-.3-.3.031-1.169.12-.3.031.032.3.042.4a1.467,1.467,0,0,0-.293-.254,2.135,2.135,0,0,0-1.42-.271l-1.787.182-.3.031.032.3.473,4.375.007.079a2.794,2.794,0,0,0-1.265,3.313,4.2,4.2,0,0,0-2.847,1.931l-.191.021h0l-2.709.278-.3.031.032.3.1.962.032.3.3-.031.661-.069.336,3.113.032.3.3-.031.8-.082c-1.572,1.914.466,5.794,4.257,5.124.4,1.1,2.084,1.127,4.009.962l-.053-.423-6.627-3.423L41.4,45.96l1.568.622-.138-.481.714-.162.551,1.309,3.384,2.406-.092-1.309L48.8,48.2l.392,1.292,1.01-.89-3.243-1.674.742-1.6,1.568.619-.138-.481.71-.162.551,1.309,1.148.814.579-.512.085-1.863,1.247.086-.032.753,1.049-1.313.971.639-.11-.385.714-.162.551,1.309,1.2.852.632-.557.088-1.866,1.247.086-.035.753,1.1-1.378,1.077,1.825-1.713,1.347,1.109-.113.392,1.292,2.932-2.584.088-1.863,1.243.086-.035.753,1.1-1.378L68.1,45.056l-5.712,4.5.078.344c1.586-.141,3.2-.4,3.886-1.766,2.974-.131,4.493-3.687,2.935-5.54-.237-.278-.371-.316-.371-.316l1.1-.113.3-.031-.032-.3-.336-3.113.661-.069.3-.028ZM51.356,40.352a1.48,1.48,0,0,0-.593-.01h0l-.2.021.117,1.089.2-.021c.413-.041.837-.086.781-.622a.476.476,0,0,0-.3-.457Zm-6.164-7.962c.413-.045.841-.089.781-.622-.06-.557-.449-.515-.9-.471l-.2.021.117,1.093.2-.021Zm6.987-1.4-.339,1.461.971-.1-.632-1.361Zm2.031,5.392a1.264,1.264,0,0,0-1.4-1.024,1.312,1.312,0,0,0-.858.443,1.116,1.116,0,0,0-.286.842,1.332,1.332,0,0,0,.473.9,1.252,1.252,0,0,0,.784.285s.078,0,.148-.007.155-.024.155-.024a1.262,1.262,0,0,0,.978-1.412Zm3.766,12.4-1.784,1.4.074.323,3.575-.364-.053-.426-1.812-.935Zm-6.256.608-1.833,1.443.074.323,3.677-.375-.053-.426-1.865-.966Zm2.943-2.316-.774.608,1.215-.124.392,1.292L56.46,48l-1.8-.928Zm-1.717,1.351.834.591-.085-1.182-.749.591Zm7.033-.045L59.9,47.269l-.706.557.784.557Zm.5,4.426-.466,3.883L60,56.709l-.622,1.608-.244.072-2.211-3.55-.007-.024-1.07-4.742,2.091-1.643,2.13,1.1.41,3.261,0,.017ZM55.337,49.4l-.459-1.509-.865.089.117,1.663-1.689-1.2,2.183-1.718,2.36,1.22L55.337,49.4Zm-1.06,4.048-.466,3.883-.668,1.722-.251.076-2.264-3.639-1.077-4.766,2.137-1.684,2.187,1.127.41,3.265-.007.017Zm11.113,4.4L63.126,54.2l-1.077-4.766L67.7,44.984l-.717-1.217-1.413,1.766.064-1.4-.632-.045-.081,1.68-3.388,2.986-.459-1.512-.865.089L60.328,49l-1.639-1.165L61.5,45.616l-.721-1.22-1.413,1.766.064-1.4-.636-.045-.081,1.684-.911.8-1.469-1.045-.484-1.151-.145.034.247.866-1.424-.935-1.466,1.832.064-1.4-.636-.045-.078,1.68-.862.759L50.137,46.8l-.484-1.151-.145.034.215.766-1.872-.739-.5,1.086,3.373,1.742-1.7,1.495-.459-1.509-.855.089.117,1.663-3.988-2.832L43.358,46.3l-.145.034.215.766-1.872-.742-.505,1.089,6.514,3.364.406,3.261-.47,3.9-1.017,2.622-1.148.419.286,1.062,2.088-.79,1.646-5.863,2.363,5.77,2.868-1.079-.074-1.674L55.669,54.8l2.353,5.746,2.868-1.082-.067-1.522.007-.021,1.031-3.78,2.363,5.773,2.868-1.083-.067-1.457-1.636.467Z" transform="translate(-36.47 -28.31)" fill="#2f3336"/>
      </g>
    </g>
    <g id="Group_2560" data-name="Group 2560" transform="translate(221 41.438)">
      <rect id="Rectangle_1243" data-name="Rectangle 1243" width="54" height="14" transform="translate(0 -0.438)" fill="none"/>
      <text id="About_Us" data-name="About Us" transform="translate(0 10.563)" fill="#2f3336" font-size="12" font-family="Raleway-Bold, Raleway" font-weight="700" letter-spacing="0.02em"><tspan x="0" y="0">About Us</tspan></text>
    </g>
  </g>
</svg>
