<svg id="Capa_1" data-name="Capa 1" xmlns="http://www.w3.org/2000/svg" xmlns:xlink="http://www.w3.org/1999/xlink" viewBox="0 0 550.82 394.42"><defs><style>.cls-1{fill:none;}.cls-2{clip-path:url(#clip-path);}.cls-3{fill:#1d1d1b;}.cls-3,.cls-4{fill-rule:evenodd;}.cls-4,.cls-5{fill:#638c1c;}</style><clipPath id="clip-path"><rect class="cls-1" x="-0.11" y="-0.06" width="550.93" height="394.79"/></clipPath></defs><g class="cls-2"><path class="cls-3" d="M154.54,264.33h13.53v2.15q0,16.15-2.82,21.81t-10.46,5.8q-7.9,0-11.28-6.45T140.18,266q0-17.4,3.65-23.17,3.43-5.42,10.57-5.41c3.63,0,6.45.87,8.48,2.61s3.66,4.67,4.8,8.71l-7,2.9a24.46,24.46,0,0,0-1-3.66,8.81,8.81,0,0,0-1.25-2.32,5,5,0,0,0-4.09-1.69c-2.48,0-4.18,1.53-5.08,4.59S148,257.48,148,265.76s.46,14,1.39,17,2.69,4.44,5.27,4.44a5,5,0,0,0,5-3.15q1.47-3.36,1.47-10.81v-2.62H154.6Z"/><path class="cls-3" d="M175.1,256.35h6.84V261a12.91,12.91,0,0,1,3.49-4.11,9.06,9.06,0,0,1,4.55-1.36v7.17a7.1,7.1,0,0,0-1.22-.11c-2.46,0-4.22.63-5.26,1.9S182,267.86,182,271v22.46h-6.84Z"/><path class="cls-3" d="M215.85,256.35v37.06H209v-4.76a12.06,12.06,0,0,1-2.94,4.19A6.08,6.08,0,0,1,202.2,294q-4.62,0-6.76-4.72t-2.15-14.83q0-9.63,2.15-14.15c1.43-3,3.69-4.53,6.76-4.54q4.23,0,6.81,4.8v-4.19Zm-15.42,18.37q0,7.3,1,10.2c.66,1.94,1.83,2.9,3.5,2.9s2.64-1,3.33-3,1-5.45,1-9.91a37.3,37.3,0,0,0-1-10c-.66-2.19-1.8-3-3.33-3s-2.78,1-3.47,2.87-1,5.07-1,9.92"/><path class="cls-3" d="M223.62,256.35h6.81v4.26q2.94-4.87,7.59-4.87t6.44,3.54q1.08,2,1.08,7.77v26.36h-6.81V268.63a11.49,11.49,0,0,0-.9-5.34,3.26,3.26,0,0,0-3.08-1.57,4.2,4.2,0,0,0-2,.43,3,3,0,0,0-1.3,1.32,7.57,7.57,0,0,0-.75,2.36,27.37,27.37,0,0,0-.21,3.62v24h-6.84Z"/><path class="cls-3" d="M274.43,256.35v37.06h-6.8v-4.76a12.06,12.06,0,0,1-2.94,4.19,6.08,6.08,0,0,1-3.87,1.14q-4.62,0-6.76-4.72t-2.15-14.83q0-9.63,2.15-14.15c1.43-3,3.69-4.53,6.76-4.54q4.23,0,6.81,4.8v-4.19ZM259,274.72q0,7.3,1,10.2c.67,1.94,1.83,2.9,3.51,2.9q2.28,0,3.32-3c.7-2.14,1-5.45,1-9.91a34.71,34.71,0,0,0-1-10c-.67-2-1.77-3-3.32-3s-2.79,1-3.48,2.87-1,5.07-1,9.92"/><path class="cls-3" d="M303.43,232.57v60.84h-6.85v-4.76a11.78,11.78,0,0,1-2.95,4.2,6.17,6.17,0,0,1-3.9,1.14c-3.06,0-5.3-1.56-6.74-4.69s-2.15-8.09-2.15-14.82a56.44,56.44,0,0,1,.54-8.42,21.56,21.56,0,0,1,1.61-5.84,7.71,7.71,0,0,1,2.83-3.36,7.34,7.34,0,0,1,4.08-1.11,6.19,6.19,0,0,1,3.73,1.1,7.71,7.71,0,0,1,1.47,1.44,13.67,13.67,0,0,1,1.46,2.29v-28Zm-15.5,42.15q0,7.3,1,10.2t3.51,2.9c1.67,0,2.64-1,3.33-3a47.86,47.86,0,0,0,0-19.87q-1-3-3.33-3t-3.5,2.9q-1,2.64-1,9.92"/><path class="cls-3" d="M332.34,256.35v37.06H325.5v-4.76a12.06,12.06,0,0,1-2.94,4.19,6.08,6.08,0,0,1-3.87,1.14q-4.62,0-6.76-4.72t-2.15-14.83q0-9.63,2.15-14.15c1.43-3,3.69-4.53,6.76-4.54q4.23,0,6.81,4.8v-4.19Zm-15.47,18.37q0,7.3,1,10.2c.66,1.94,1.83,2.9,3.5,2.9s2.65-1,3.33-3a47.53,47.53,0,0,0,0-19.87c-.68-2-1.8-3-3.33-3s-2.78,1-3.47,2.87-1,5.07-1,9.92"/><path class="cls-4" d="M155,149.67h7.4l15.15,70.67h-9.43l-2.65-13.78h-14l-2.7,13.78h-9.15Zm9.11,49.53L162,187.94q-2.11-11.49-3.44-24.54-.63,6.38-1.64,12.91t-2.38,13.82l-1.74,9.07Z"/><path class="cls-4" d="M183.18,149.67h8.88l9.47,28.18a252.82,252.82,0,0,1,7.28,25.49q-1.14-8.19-1.7-14.83t-.54-12.5V149.67h9.57v70.67h-8.93l-10.66-31.81c-1-3-1.91-6-2.8-9.11s-1.64-6.37-2.38-9.79c-.06-.43-.17-.95-.32-1.56s-.27-1.31-.46-2.1c.1.79.17,1.48.23,2.06s.11,1,.14,1.42l.5,7.18.51,8.74v1.79c0,.7.05,1.49.05,2.38l.5,30.8h-9.38Z"/><rect class="cls-5" x="227.02" y="149.68" width="9.52" height="70.67"/><polygon class="cls-4" points="247.43 149.68 256.96 149.68 256.96 212.29 272.51 212.29 272.51 220.34 247.43 220.34 247.43 149.68"/><polygon class="cls-4" points="278.46 149.68 287.99 149.68 287.99 212.29 303.54 212.29 303.54 220.34 278.46 220.34 278.46 149.68"/><path class="cls-4" d="M344.88,186.74q0,18.73-4.17,26.6t-14,7.87q-10.29,0-14.5-8.47Q308,204.46,308,183.31q0-18.85,4.12-26.68t14.1-7.87q8.87,0,13.18,6.08,2.83,4.08,4.11,11.59,1.29,6.94,1.29,20.31m-10,1q0-18.35-1.65-24.35t-6.73-6q-5.08,0-6.77,5.54T318,185.35q0,15.53,1.74,21.52,1.79,5.67,6.68,5.67c3.21,0,5.4-1.77,6.59-5.31s1.79-10,1.79-19.45"/><path class="cls-4" d="M368.08,149.67h9.35l4.26,26.09.73,4.72,1.51,10.25c.25,1.74.46,3.32.64,4.76s.4,2.73.55,3.89l.46,3.48c.09-.7.17-1.33.23-1.88s.12-1,.18-1.37l1.24-8.2,1.6-10.75c.15-1,.29-1.88.41-2.7s.29-1.56.41-2.2l4.58-26.09h8.88l-13.87,70.67h-7.55Z"/><polygon class="cls-4" points="408.35 149.68 433.66 149.68 433.66 157.73 417.87 157.73 417.87 180.11 431.87 180.11 431.87 188.17 417.87 188.17 417.87 212.29 433.66 212.29 433.66 220.34 408.35 220.34 408.35 149.68"/><path class="cls-4" d="M442.43,149.67H455q7.78,0,11.58,3.71,4.81,4.8,4.81,14.69,0,7.6-2.56,12.22a10.79,10.79,0,0,1-7.23,5.68l13,34.37h-9.65l-13-34.6v34.6h-9.49ZM452,181q5.54,0,7.83-2.57c1.53-1.7,2.29-4.59,2.29-8.64a27.4,27.4,0,0,0-.5-5.64,9.64,9.64,0,0,0-1.52-3.79,5.88,5.88,0,0,0-2.65-2.15,9.71,9.71,0,0,0-3.84-.69H452Z"/><path class="cls-4" d="M481.9,149.67h11.72a29.47,29.47,0,0,1,9,1.19,14.32,14.32,0,0,1,6,4.08,25.51,25.51,0,0,1,5.67,11.44q1.69,6.81,1.7,19.54a79.28,79.28,0,0,1-1.88,19q-1.83,7-6,10.75-5.17,4.64-18.54,4.63h-7.69ZM491.43,212q8.7,0,11.63-5.27t3-20.45q0-16.33-2.89-22.47t-10.57-6.14h-1.17Z"/><polygon class="cls-4" points="525.51 149.68 550.82 149.68 550.82 157.73 535.03 157.73 535.03 180.11 549.04 180.11 549.04 188.17 535.03 188.17 535.03 212.29 550.82 212.29 550.82 220.34 525.51 220.34 525.51 149.68"/><path class="cls-4" d="M318.21,325a12.24,12.24,0,0,1,8.68,4,11.92,11.92,0,0,1,3.32,8.85,12.43,12.43,0,0,1-21.4,8.13l-.06-.06a12.26,12.26,0,0,1-3.4-8.94,11.76,11.76,0,0,1,3.94-8.6,12,12,0,0,1,8.93-3.4"/><path class="cls-4" d="M271.28,356.75a12.25,12.25,0,0,1,7,6.51,11.88,11.88,0,0,1,.42,9.44,12.43,12.43,0,0,1-22.87,1.08l0-.08a12.28,12.28,0,0,1-.47-9.55,11.68,11.68,0,0,1,6.4-7,12,12,0,0,1,9.55-.48"/><path class="cls-4" d="M216.73,372.18a12.29,12.29,0,0,1,4.65,8.35,11.89,11.89,0,0,1-2.51,9.12,12.44,12.44,0,0,1-22.1-6v-.09a12.25,12.25,0,0,1,2.5-9.23,11.7,11.7,0,0,1,8.24-4.65,12.07,12.07,0,0,1,9.23,2.5"/><path class="cls-4" d="M159.3,369a12.29,12.29,0,0,1,1.69,9.41,11.9,11.9,0,0,1-5.35,7.81,12.45,12.45,0,0,1-18.93-12.91v-.06a12.21,12.21,0,0,1,5.37-7.91,11.69,11.69,0,0,1,9.3-1.71A12.06,12.06,0,0,1,159.3,369"/><path class="cls-4" d="M105.34,347.07a12.26,12.26,0,0,1-1.64,9.42A11.87,11.87,0,0,1,96,362a12.44,12.44,0,0,1-13.37-18.6l0,0a12.24,12.24,0,0,1,7.75-5.6,11.73,11.73,0,0,1,9.33,1.57,12.09,12.09,0,0,1,5.6,7.75"/><path class="cls-4" d="M62.5,310A12.26,12.26,0,0,1,58,318.47a11.91,11.91,0,0,1-9,2.85,12.44,12.44,0,0,1-7-21.81l.06-.05a12.28,12.28,0,0,1,9.1-2.93,11.66,11.66,0,0,1,8.39,4.38,12,12,0,0,1,2.92,9.1"/><path class="cls-4" d="M33.07,260.67a12.27,12.27,0,0,1-7,6.54,11.92,11.92,0,0,1-9.46-.23,12.49,12.49,0,0,1,.48-23l.09,0a12.25,12.25,0,0,1,9.56.19,11.67,11.67,0,0,1,6.5,6.88,12,12,0,0,1-.2,9.55"/><path class="cls-4" d="M21.52,204.4a12.32,12.32,0,0,1-8.73,3.92A12,12,0,0,1,3.93,205a12.44,12.44,0,0,1,8-21.5h0a12.32,12.32,0,0,1,9,3.3,11.67,11.67,0,0,1,3.91,8.61,12.08,12.08,0,0,1-3.29,9"/><path class="cls-4" d="M28.57,147.43a12.23,12.23,0,0,1-9.53.86,11.91,11.91,0,0,1-7.3-6,12.45,12.45,0,0,1,14.47-17.75l.09,0a12.26,12.26,0,0,1,7.41,6,11.71,11.71,0,0,1,.9,9.42,12,12,0,0,1-6,7.41"/><path class="cls-4" d="M53,96.36a12.26,12.26,0,0,1-9.32-2.12,11.92,11.92,0,0,1-5.09-8A12.42,12.42,0,0,1,57.86,73.9l0,0a12.26,12.26,0,0,1,5.19,8A11.73,11.73,0,0,1,61,91.15a12.09,12.09,0,0,1-8,5.18"/><path class="cls-4" d="M93,55.18a12.26,12.26,0,0,1-8.12-5A11.9,11.9,0,0,1,82.66,41a12.4,12.4,0,0,1,22.22-5.45l0,.05a12.25,12.25,0,0,1,2.29,9.29,11.69,11.69,0,0,1-5,8.06,12,12,0,0,1-9.28,2.28"/><path class="cls-4" d="M143.43,29.31A12.26,12.26,0,0,1,137.26,22a12,12,0,0,1,.73-9.43,12.45,12.45,0,0,1,22.84,1.67l0,.09a12.28,12.28,0,0,1-.69,9.54A11.69,11.69,0,0,1,153,30a12,12,0,0,1-9.53-.69"/><path class="cls-4" d="M200.23,21a12.26,12.26,0,0,1-3.45-8.91,11.89,11.89,0,0,1,3.76-8.68,12.45,12.45,0,0,1,21.05,9v.08a12.25,12.25,0,0,1-3.76,8.79A11.71,11.71,0,0,1,209,24.81,12.09,12.09,0,0,1,200.23,21"/><path class="cls-4" d="M256.07,30.73a12.26,12.26,0,0,1-.53-9.54,11.93,11.93,0,0,1,6.25-7.1A12.44,12.44,0,0,1,279,29.22v0a12.32,12.32,0,0,1-6.29,7.2,11.71,11.71,0,0,1-9.45.56,12.06,12.06,0,0,1-7.19-6.29"/><path class="cls-4" d="M306.89,59.21a12.29,12.29,0,0,1,2.77-9.15,11.91,11.91,0,0,1,8.3-4.53,12.45,12.45,0,0,1,11,20.08l-.05.06a12.27,12.27,0,0,1-8.38,4.61,11.65,11.65,0,0,1-9.06-2.7,12,12,0,0,1-4.61-8.37"/></g></svg>