<svg id="Capa_1" data-name="Capa 1" xmlns="http://www.w3.org/2000/svg" viewBox="0 0 769.059 296.867"><defs><style>.cls-1{fill:#1a171a;}.cls-2{fill:#7f2f2c;}.cls-3{fill:#1f6f30;}.cls-4{fill:#dc7b00;}.cls-5{fill:#004f79;}.cls-6{fill:#30769c;}.cls-7{fill:#064c72;}</style></defs><path class="cls-1" d="M248.426,357.6c0,20.169-.023,40.338.04,60.507a4.7,4.7,0,0,1-1.952,4.125c-23.848,19.427-51.42,29.058-81.835,31.229-17.86,1.275-35.643.911-53.207-3.033-33.057-7.423-54.92-27.439-66.411-59.1-5.711-15.736-8.6-32.064-9.944-48.675a495.95,495.95,0,0,1-.44-67.7c1.162-20.734,4.48-41.122,12.5-60.462,12.388-29.873,34.441-48.189,66.266-54.141,25.443-4.758,50.891-4.205,75.9,2.771,30.4,8.481,48.633,28.713,55.756,59.3,3.628,15.577,3.784,31.384,3.671,47.234-.009,1.265-.418,1.592-1.632,1.59q-28.31-.048-56.621.011c-1.82,0-1.617-1.03-1.608-2.172a127.351,127.351,0,0,0-2.61-28.363,55.953,55.953,0,0,0-4.329-12.721c-5.216-10.639-13.874-16.534-25.459-18.2a68.988,68.988,0,0,0-25.034.608c-13.142,2.936-21.979,11.094-27.394,23.223-5.114,11.453-7.166,23.622-8.155,35.984-1.784,22.288-1.517,44.613-.45,66.919a131.776,131.776,0,0,0,5.507,33.176c6.729,21.547,20.617,32.078,43.169,32.765,14.242.433,27.912-1.488,40.6-8.514,2.841-1.573,3.933-3.333,3.878-6.656-.217-13.067-.134-26.141-.038-39.211.016-2.063-.568-2.621-2.6-2.6-10.907.095-21.817,0-32.725.09-1.941.015-2.7-.365-2.686-2.522q.138-23.5.013-47c-.007-1.709.471-2.153,2.178-2.15q46.752.078,93.5-.013c2.011,0,2.182.775,2.179,2.418Q248.389,326.96,248.426,357.6Z" transform="translate(-33.737 -157.254)"/><path class="cls-2" d="M686.538,300.1c-7.013,0-14.026-.052-21.038.036-1.73.022-2.409-.331-2.4-2.247q.119-21.294.009-42.589a4.338,4.338,0,0,1,1.639-3.307q39.246-39.159,78.47-78.34c3.8-3.792,7.622-7.558,11.374-11.394a4.365,4.365,0,0,1,3.4-1.464c14.112.047,28.225.068,42.337-.009,1.973-.011,2.474.6,2.463,2.515q-.115,21.035,0,42.07c.011,1.749-.907,2.679-1.945,3.714q-41.164,41.1-82.324,82.2c-2.512,2.508-5.055,4.985-7.5,7.552a3.947,3.947,0,0,1-3.187,1.291C700.737,300.069,693.638,300.1,686.538,300.1Z" transform="translate(-33.737 -157.254)"/><path class="cls-3" d="M663.15,335.061c0-7.1.053-14.194-.035-21.29-.021-1.7.47-2.219,2.177-2.213q21.294.081,42.588,0a4.132,4.132,0,0,1,3.194,1.316q45.228,45.24,90.525,90.409a3.549,3.549,0,0,1,1.15,2.735q-.024,21.291.019,42.581c.006,1.666-.487,2.254-2.22,2.247q-21.423-.085-42.847.012c-1.638.008-2.523-.9-3.5-1.873Q715,409.814,675.791,370.637c-3.673-3.67-7.317-7.368-11.056-10.969a4.781,4.781,0,0,1-1.625-3.837C663.2,348.909,663.147,341.984,663.15,335.061Z" transform="translate(-33.737 -157.254)"/><path class="cls-4" d="M554.032,362.476q18.174-18.09,36.345-36.182c4.262-4.249,8.517-8.5,12.713-12.819a5.868,5.868,0,0,1,4.556-1.943c13.764.061,27.528.082,41.292-.009,2.372-.016,2.851.866,2.837,3.05-.087,13.762-.062,27.524,0,41.286a4.712,4.712,0,0,1-1.486,3.657q-25.741,25.621-51.435,51.292c-12.526,12.507-25.073,24.993-37.516,37.584a7.709,7.709,0,0,1-6.106,2.491q-20.124-.186-40.252-.045c-2.1.013-2.645-.609-2.634-2.639q.12-21.033.014-42.065a4.6,4.6,0,0,1,1.582-3.559q13.853-13.8,27.645-27.667Q547.582,368.467,554.032,362.476Z" transform="translate(-33.737 -157.254)"/><path class="cls-5" d="M604.933,299.715q-17.11-17-34.217-34.008-27.927-27.849-55.854-55.7a7.967,7.967,0,0,1-2.611-6.318q.206-19.979,0-39.96c-.024-2.471.754-2.972,3.059-2.954,13.062.1,26.127.172,39.187-.041a9.55,9.55,0,0,1,7.372,3.062c2.769,2.682,5.054,5.862,8.258,8.1,2.762,1.679,4.893,4.135,7.037,6.42,7.012,7.474,14.472,14.493,21.662,21.782q9.7,9.831,19.592,19.482c4.585,4.5,9.068,9.127,13.614,13.669,3.516,3.511,6.831,7.237,10.621,10.5,2.857,2.456,5.094,5.576,7.945,8.077a2.957,2.957,0,0,1,.823,2.138c.079,12.953.012,25.9.04,38.845a13.352,13.352,0,0,0,.287,3.859c.217,3.088.109,3.234-2.725,3.235q-21.021.01-42.041,0A4.791,4.791,0,0,1,604.933,299.715Z" transform="translate(-33.737 -157.254)"/><path class="cls-6" d="M651.318,253.357a.548.548,0,0,1,.409.068,5.147,5.147,0,0,1,.261,2.8q.03,18.437.015,36.874a18.443,18.443,0,0,0,.314,4.645,2.178,2.178,0,0,1-.689,2.357q-22.659.041-45.317.073c-.494,0-1.056.109-1.378-.455,14.418-.021,28.837-.1,43.254,0,2.555.018,3.5-.724,3.006-3.2a3.378,3.378,0,0,1-.215-1.777q-.008-19.7.007-39.4C650.985,254.668,650.752,253.937,651.318,253.357Z" transform="translate(-33.737 -157.254)"/><path class="cls-1" d="M443.059,340.363c-.787-1.926-.615-2.677,1.4-3.579,19.3-8.646,32.176-23.151,38.035-43.432,6.84-23.677,6.792-47.758,1.681-71.67-5.725-26.784-22.292-44.267-48.247-52.919-15.383-5.127-31.306-6.477-47.36-6.542-30.821-.126-61.644,0-92.466-.1-2.591-.008-3.079.743-3.075,3.177q.113,70.118.056,140.236,0,70.248-.052,140.5c0,2.492.414,3.361,3.192,3.337q26.751-.226,53.5-.015c2.586.017,3.312-.556,3.3-3.245-.106-32.288-.042-64.578-.127-96.866-.006-2.414.652-3.036,3.022-2.995,8.309.145,16.624.128,24.933.007,1.985-.029,2.788.625,3.485,2.458q18.659,49.1,37.431,98.153c.682,1.792,1.493,2.491,3.5,2.482,19.74-.086,39.48-.052,59.22-.054,2.889,0,2.9-.009,1.786-2.748Q464.694,393.444,443.059,340.363ZM425.57,268.627c-3.336,15.687-14.4,24.965-30.5,25.815-13.4.707-26.818.125-40.225.327-2.067.031-1.9-1.124-1.9-2.473q.021-19.079.011-38.156c0-12.632.036-25.264-.037-37.9-.01-1.746.34-2.376,2.237-2.362,12.287.087,24.578-.124,36.862.1,9.49.175,18.308,2.574,25.27,9.617a31.146,31.146,0,0,1,8.253,16.165A70.787,70.787,0,0,1,425.57,268.627Z" transform="translate(-33.737 -157.254)"/><path class="cls-7" d="M651.318,253.357q-.045,19.382-.091,38.761c0,1.465-.022,2.929-.033,4.393-.745-.7-.474-1.619-.475-2.451q-.014-20.608.008-41.216Z" transform="translate(-33.737 -157.254)"/></svg>