<svg xmlns="http://www.w3.org/2000/svg" xmlns:xlink="http://www.w3.org/1999/xlink" width="243.526" height="375.395" viewBox="0 0 243.526 375.395">
  <defs>
    <linearGradient id="linear-gradient" y1="0.5" x2="1" y2="0.5" gradientUnits="objectBoundingBox">
      <stop offset="0" stop-color="#68b030"/>
      <stop offset="1" stop-color="#007a49"/>
    </linearGradient>
    <linearGradient id="linear-gradient-2" x1="0" x2="1" xlink:href="#linear-gradient"/>
    <linearGradient id="linear-gradient-3" x1="0" x2="1" xlink:href="#linear-gradient"/>
    <radialGradient id="radial-gradient" cx="0.327" cy="-2.263" r="1.859" gradientTransform="translate(0.315) scale(0.37 1)" xlink:href="#linear-gradient"/>
    <radialGradient id="radial-gradient-2" cx="0.274" cy="-0.689" r="0.962" gradientTransform="translate(0.145) scale(0.711 1)" xlink:href="#linear-gradient"/>
    <radialGradient id="radial-gradient-3" cx="0.075" cy="-0.153" r="0.657" gradientTransform="translate(-0.15) scale(1.3 1)" xlink:href="#linear-gradient"/>
    <linearGradient id="linear-gradient-4" x1="0" x2="1" xlink:href="#linear-gradient"/>
    <radialGradient id="radial-gradient-4" cx="-1.021" cy="0.005" r="0.567" gradientTransform="translate(-1.033) scale(3.067 1)" xlink:href="#linear-gradient"/>
  </defs>
  <g id="Person" transform="translate(-10.991 -19.197)">
    <path id="Path_4175" data-name="Path 4175" d="M258.44,229.045v176.54H98.962C82.711,399.078,72.639,393.12,72.91,389.85c.27-2.893,8.941-6.261,10.473-11.334a5.04,5.04,0,0,0,.18-2.3c-.352-2.4-2.2-3.475-3.884-6.081a15.364,15.364,0,0,1-1.59-3.278,26.6,26.6,0,0,1-.885-3.065c-.516-2.344-.738-5.327.885-6.859a1.525,1.525,0,0,1,.18-.156c2.221-1.819,6.8-.688,11.195.819,1.991.68,3.95,1.426,5.622,2.016h0c2.459.869,4.311,1.385,4.852.779a.082.082,0,0,0,0-.049c.992-1.418-4.819-7.376-11.817-14.079-.82-.82-1.639-1.582-2.459-2.393-4.368-4.171-7.187-6.212-6.7-8.81a4.827,4.827,0,0,1,1.737-2.663c2.565-2.213,7.458-3.7,11.785-4.1l.82-.066a24.232,24.232,0,0,1,5.433.27c3.966.639,6.228,1.918,7.974.582,2.852-2.188,0-8.121-1.737-16.948v-.115c-1.008-5.114-4.671-24.069,1.852-28.29,1.483-.967,3.45-1.131,5.737-.819,6.958,1.09,16.48,7.261,21.66,10.654,2.188,1.442,3.6,2.393,3.7,2.254s-1.524-1.311-4.147-3.09h0c-5.261-3.581-14.464-9.7-21.357-15.415-5.737-4.794-9.933-9.3-8.8-11.793,2.2-4.843,23.922-1.164,37.091.188,5.638.582,9.7.738,10.014-.377.426-1.557-6.72-4.188-13.415-7.621-5.9-3.024-11.473-6.671-11.154-10.752.156-2.18,1.926-3.729,2.844-4.54h0c5.081-4.466,14.694-3.368,21.086-.172,5.737,2.844,8.089,7,9.547,6.245s-1.311-5.3-.41-11.555,5.433-13.112,9.539-13.063h.057c3.581.115,5.794,5.507,7.9,8.416a4.311,4.311,0,0,0,1.934,1.746,1.443,1.443,0,0,0,.672.057h.049c1.9-.451,1.549-4.786,3.975-11h0c.188-.484.385-.967.615-1.475,2.082-4.72,5.138-11.58,10.752-13.063a8.014,8.014,0,0,1,2.327-.27c5.827.156,10.441,6.351,18.382,4.434l.82-.213a8.053,8.053,0,0,0,4.819-3.008c2.557-3.893-2.508-8.613,0-12.121,1.918-2.672,5.1-3.794,7.728-4.253a20.859,20.859,0,0,1,4.335-.3h.131C243.68,193.33,253.121,214.425,258.44,229.045Z" transform="translate(-3.923 -11.001)" fill="#e1efd6"/>
    <path id="Path_4176" data-name="Path 4176" d="M124.183,416.429H114.53a79.581,79.581,0,0,0-3.45-11.473,70.609,70.609,0,0,0-19.734-28.077,86.738,86.738,0,0,0-14.489-10.072h0a1.541,1.541,0,0,1-.582-2.073,1.524,1.524,0,0,1,1.942-.647,92.359,92.359,0,0,1,8.974,4.573,82.176,82.176,0,0,1,7.1,4.565A77.34,77.34,0,0,1,108.08,385.9a78.1,78.1,0,0,1,10.162,15.374c.082.148.156.3.229.443a88.984,88.984,0,0,1,5.712,14.71Z" transform="translate(-4.125 -21.845)" fill="#c3dfac"/>
    <path id="Path_4177" data-name="Path 4177" d="M78.73,374.664s-15.636-1.1-27.921,20.029C65.806,398.7,78.73,374.664,78.73,374.664Z" transform="translate(-2.523 -22.523)" fill="#c3dfac"/>
    <path id="Path_4178" data-name="Path 4178" d="M85.208,360.8s-11.473-10.719-4.3-34.092C94.042,334.969,85.208,360.8,85.208,360.8Z" transform="translate(-4.281 -19.485)" fill="#c3dfac"/>
    <path id="Path_4179" data-name="Path 4179" d="M93.309,386.729s-14.858-1.5-23.487,17.9C80.434,409.355,91.194,394.383,93.309,386.729Z" transform="translate(-3.728 -23.286)" fill="#c3dfac"/>
    <path id="Path_4180" data-name="Path 4180" d="M102.466,372.085s-8.138-12.53,5.171-29.076C116.692,350.286,108.3,366.7,102.466,372.085Z" transform="translate(-5.64 -20.518)" fill="#c3dfac"/>
    <path id="Path_4181" data-name="Path 4181" d="M103.988,399.756s-9.2-1.3-16.948,11.473C98.653,415.245,103.988,399.756,103.988,399.756Z" transform="translate(-4.819 -24.111)" fill="#c3dfac"/>
    <path id="Path_4182" data-name="Path 4182" d="M114.375,386.757s-3.368-8.67,7.31-19.136C128.241,378.021,114.375,386.757,114.375,386.757Z" transform="translate(-6.519 -22.077)" fill="#c3dfac"/>
    <path id="Path_4183" data-name="Path 4183" d="M109.783,416.181a15.619,15.619,0,0,1-3.45,3.5H99.417c-.107-.09-.221-.2-.328-.3C103.9,412.682,109.783,416.181,109.783,416.181Z" transform="translate(-5.582 -25.096)" fill="#c3dfac"/>
    <path id="Path_4184" data-name="Path 4184" d="M126.1,402.246s-2.532-6.359,4.827-10.055C135.144,397.968,126.1,402.246,126.1,402.246Z" transform="translate(-7.267 -23.634)" fill="#c3dfac"/>
    <path id="Path_4185" data-name="Path 4185" d="M45.331,372.884s7-14.235,22.627-5.794C61.8,376.662,45.331,372.884,45.331,372.884Z" transform="translate(-2.176 -21.874)" fill="#c3dfac"/>
    <path id="Path_4186" data-name="Path 4186" d="M63.827,335.248s-6.884,14.3,9.4,21.389C76.963,345.885,63.827,335.248,63.827,335.248Z" transform="translate(-3.256 -20.026)" fill="#c3dfac"/>
    <path id="Path_4187" data-name="Path 4187" d="M192.179,138.455l-6.786,32.068-.688,3.278h0l-5.229,24.717h0l-4.286,20.25-.369,1.737-12.137,57.366-.475,2.262-1.115,5.327-1.778,8.523-.516,2.459-.049.213h0l-3.04,14.374h0l-2.418,11.309h0l-.475,2.245-1.754,8.285-1.934,9.138-.606,2.876-.09.434L148,347.366l-.385,1.811-1.811,8.58-1.426,6.736-2.672,12.653-5.22,24.684H121.619l2-8.5,1.565-6.654,4.753-20.16,1.565-6.654.9-3.827,2.188-9.269,3.344-14.21,1.278-5.417.729-3.1,1.131-4.8,1.639-6.884h0l2.516-10.654,3.852-16.39,1.336-5.655,14.038-59.6,2.393-10.154,6.04-25.667,3.327-14.128.9-3.8,6.982-29.65a4.147,4.147,0,0,1,8.089,1.8Z" transform="translate(-7.01 -7.247)" fill="#99cab6"/>
    <path id="Path_4188" data-name="Path 4188" d="M241.6,138.355l-7.171,34.289-1,4.786-9.474,45.213-6,28.683-.172.82-2.541,12.162h0l-9.933,47.475-5.565,26.61-1.475,7.056-2.36,11.342v.115l-1.221,5.827-1.877,8.7-1.533,7.482-.3,1.475-4.45,21.25-.049.229H171.658l1.7-7.146,4.548-19.136,1.278-5.376.9-3.77,2.885-12.014.41-1.721.393-1.639.508-2.147,1.229-5.138.049-.213.992-4.171,3.393-14.268,5.483-23.053,4.753-20.267,14.178-59.6,5.786-24.315,6.1-25.626,8.433-35.452a3.527,3.527,0,1,1,6.884,1.541Z" transform="translate(-10.18 -7.278)" fill="#99cab6"/>
    <line id="Line_51" data-name="Line 51" x2="60.628" y2="2.762" transform="translate(165.509 162.694)" fill="none" stroke="#66af92" stroke-linecap="round" stroke-miterlimit="10" stroke-width="4.375"/>
    <line id="Line_52" data-name="Line 52" x2="60.628" y2="2.762" transform="translate(154.88 212.692)" fill="none" stroke="#66af92" stroke-linecap="round" stroke-miterlimit="10" stroke-width="5.25"/>
    <line id="Line_53" data-name="Line 53" x2="60.628" y2="2.762" transform="translate(140.317 272.271)" fill="none" stroke="#66af92" stroke-linecap="round" stroke-miterlimit="10" stroke-width="6.125"/>
    <line id="Line_54" data-name="Line 54" x2="60.628" y2="2.754" transform="translate(126.148 339.463)" fill="none" stroke="#66af92" stroke-linecap="round" stroke-miterlimit="10" stroke-width="7.875"/>
    <path id="Path_4189" data-name="Path 4189" d="M76.97,78.718C74.8,80.89,72.34,82,71.48,81.086s-4.679-9.1-2.508-11.277,9.515,2.6,10.375,3.417S79.142,76.546,76.97,78.718Z" transform="translate(-3.632 -3.171)" fill="#8e8e8e"/>
    <path id="Path_4190" data-name="Path 4190" d="M133.459,55.5s-28.74-17.357-43.434,20.39Z" transform="translate(-5.008 -2.048)" fill="#241d1d"/>
    <path id="Path_4191" data-name="Path 4191" d="M158.863,62.822C169.1,67.739,173.614,79.27,172.59,90.161a36.534,36.534,0,0,1-13.637,24.659q-.942.754-1.942,1.426Z" transform="translate(-9.252 -2.764)" fill="#241d1d"/>
    <path id="Path_4192" data-name="Path 4192" d="M40.813,78.111l9.99,2.237a28.6,28.6,0,0,1,.279-5.368c.41-2.073,1.385-3.024,1.2-3.54-.992-2.77,1.959-8.867,2.672-9.015S37.142,52.3,37.142,52.3s-3,11.113,1.918,13.768a4.712,4.712,0,0,1,2.065,3.721C41.1,71.834,40.813,75.153,40.813,78.111Z" transform="translate(-1.6 -2.098)" fill="#8e6a59"/>
    <path id="Path_4193" data-name="Path 4193" d="M14.927,43.2s39.632,26.4,45.434,30.56,14.751-5.081,11.473-10.654S30.858,22.2,30.858,22.2Z" transform="translate(-0.249 -0.19)" fill="#2f3336"/>
    <path id="Path_4194" data-name="Path 4194" d="M26.922,52.843s28.142,19.84,34.608,23S77.757,70.209,73.6,63.1,44.919,27.045,44.919,27.045Z" transform="translate(-1.009 -0.497)" fill="#2f3336"/>
    <path id="Path_4195" data-name="Path 4195" d="M89.49,87.2c.336-15.128,12.735-44.082,42.328-31.642,14.456-3.36,40.886,8.949,33.322,37.7s-47.4,36.813-47.4,36.813Z" transform="translate(-4.974 -2.112)" fill="#241d1d"/>
    <path id="Path_4196" data-name="Path 4196" d="M119.677,66.619c6.556,1.762,29.88,18.578,24.331,34.338s-21.684,24.077-25.848,28.872S114,139.917,113.367,141.9a41.517,41.517,0,0,1,8.2,2.27L111.6,157.913l-29.88-2.024-2.778-12.981,5.925-6.3s7.818,2.893,9.834-9.711c-6.679-2.9-19.791-18.029-10.711-35.051S111.736,75.314,119.677,66.619Z" transform="translate(-4.306 -3.005)" fill="#8e6a59"/>
    <path id="Path_4197" data-name="Path 4197" d="M74.6,242.245s16.718,63.193,21.414,66.668,43.656,25.864,45.073,27.814-8.244,16.9-4.991,19.832,19.668-4.45,20.758-16.079-41.394-41.713-47.491-40.574c.492-4.72-11.547-28.216-.385-37.124,12.014,9.957,22.381,37.763,25.766,39.247,2.917,1.278,27.5,23.282,28.839,26.331-1.516,4.778-6.7,29.937.82,29.5s20.668-28.3,12.1-34.313-22.84-30.552-30.158-31.4c-2.655-5.737-18.439-53.375-26.978-58.817S74.6,242.245,74.6,242.245Z" transform="translate(-4.03 -13.49)" fill="#2f3336"/>
    <path id="Path_4198" data-name="Path 4198" d="M202.778,218.463s.951,5.04,1.074,6.064c-1.639.4-2.024,1.082-1.983,2.327.082,2.385,5.188,2.737,5.188,2.737s1.016,1.311-.918,3.5-15.571,2.237-17.718-.7-2.4-9.015,0-9.834,1.713-4.679,1.713-4.679Z" transform="translate(-11.134 -12.589)" fill="#8e6a59"/>
    <path id="Path_4199" data-name="Path 4199" d="M98.555,113.072c.762.475,1.565.951,2.352,1.344a16.547,16.547,0,0,0,2.409.983,9.277,9.277,0,0,0,2.4.385h.59c.2,0,.377-.066.574-.057a2.991,2.991,0,0,1,1.393.361l.115.066a.631.631,0,0,1,.254.82,2.1,2.1,0,0,1-1.328,1.106,5.941,5.941,0,0,1-1.639.156,9.449,9.449,0,0,1-3.122-.721,11.662,11.662,0,0,1-2.614-1.59,10.482,10.482,0,0,1-2.073-2.18.5.5,0,0,1,.672-.7Z" transform="translate(-5.5 -5.942)"/>
    <path id="Path_4200" data-name="Path 4200" d="M116.493,143.924s68.749-2.844,80.378,65.635c0,0-12.293,3.172-18.644,0-4.852-10.236-3.065-45.7-49.72-43.942-31.265,1.4-14.833,56.424-9.015,58S88.351,235.6,75.141,234.923c-1.565-.082-3.393-.5-4.1-1.885-8.908-16.554-15.964-38.927-9.236-74.207,5.679-17.783-33.658-33.879-22.6-79.059a.983.983,0,0,1,1.172-.713l10.457,2.524A1.426,1.426,0,0,1,51.924,83c-.2,6.794.27,42.017,30.961,54.309a.516.516,0,0,1,.32.533C82.254,147.284,92.391,160.519,116.493,143.924Z" transform="translate(-1.663 -3.791)" fill="#007a49"/>
    <ellipse id="Ellipse_1327" data-name="Ellipse 1327" cx="13.194" cy="4.622" rx="13.194" ry="4.622" transform="translate(10.991 40.225) rotate(-52.83)" fill="#8e8e8e"/>
    <ellipse id="Ellipse_1328" data-name="Ellipse 1328" cx="15.923" cy="5.581" rx="15.923" ry="5.581" transform="translate(20.233 48.536) rotate(-52.83)" fill="#8e8e8e"/>
    <ellipse id="Ellipse_1329" data-name="Ellipse 1329" cx="10.703" cy="3.147" rx="10.703" ry="3.147" transform="translate(13.467 38.966) rotate(-52.83)" fill="#dbdbdb"/>
    <ellipse id="Ellipse_1330" data-name="Ellipse 1330" cx="14.227" cy="4.188" rx="14.227" ry="4.188" transform="translate(22.368 48.026) rotate(-52.83)" fill="#dbdbdb"/>
    <path id="Path_4201" data-name="Path 4201" d="M109.83,90.092c-3.958.139-6.458-1.5-7.72-3.647a6.859,6.859,0,0,1,.18-7.376c3.024,0,6.007,1.164,7.441,3.622C110.773,84.446,111,86.913,109.83,90.092Z" transform="translate(-5.711 -3.794)" fill="#fff"/>
    <path id="Path_4202" data-name="Path 4202" d="M125.875,105.929c-4.54.82-9.883-.82-11.957-5.122a10.006,10.006,0,0,1-.631-6.556,11.547,11.547,0,0,1,8.359.975C125.99,97.676,127.629,102.938,125.875,105.929Z" transform="translate(-6.464 -4.732)" fill="#fff"/>
    <path id="Path_4203" data-name="Path 4203" d="M109.732,82.659a6.793,6.793,0,0,1-6.45,3.876,7.892,7.892,0,0,1-1.172-.09,6.859,6.859,0,0,1,.18-7.376C105.315,79.037,108.3,80.2,109.732,82.659Z" transform="translate(-5.711 -3.794)"/>
    <path id="Path_4204" data-name="Path 4204" d="M121.8,96.781a5.106,5.106,0,0,1-5.4,4.811,5.04,5.04,0,0,1-2.459-.82,10.006,10.006,0,0,1-.631-6.556,11.547,11.547,0,0,1,8.359.975A4.917,4.917,0,0,1,121.8,96.781Z" transform="translate(-6.465 -4.729)"/>
    <path id="Path_4205" data-name="Path 4205" d="M123.911,90.26s8.343,2.319,10.3,11.113" transform="translate(-7.155 -4.503)" fill="none" stroke="#000" stroke-linecap="round" stroke-miterlimit="10" stroke-width="1.05"/>
    <path id="Path_4206" data-name="Path 4206" d="M115.544,80.274s2.524-6.286-5.605-9.752" transform="translate(-6.27 -3.252)" fill="none" stroke="#000" stroke-linecap="round" stroke-miterlimit="10" stroke-width="1.05"/>
    <path id="Path_4207" data-name="Path 4207" d="M114.171,91.879l-4.77,2.68a43.951,43.951,0,0,1-4.917,2.532,12.612,12.612,0,0,1-2.713.82,7.613,7.613,0,0,0-2.459.631,2.549,2.549,0,0,0-1.352,1.778,3.762,3.762,0,0,0,.377,2.344h0a.493.493,0,0,1-.893.418h0A4.819,4.819,0,0,1,97,100.115a3.475,3.475,0,0,1,1.852-2.459,8.277,8.277,0,0,1,2.795-.7,11.825,11.825,0,0,0,2.541-.7,43.755,43.755,0,0,0,4.852-2.409l4.819-2.59h0a.345.345,0,1,1,.311.615Z" transform="translate(-5.446 -4.564)"/>
    <path id="Path_4208" data-name="Path 4208" d="M130.5,125.584c2.073,2.3,10.818-.049,11.342-3.975.254-1.86-1.369-3.885-3.147-4.606-3.278-1.328-7.376,1.68-8.384,5.048C130.1,122.748,129.573,124.584,130.5,125.584Z" transform="translate(-7.539 -6.177)" fill="#8e6a59"/>
    <path id="Path_4209" data-name="Path 4209" d="M146.381,88.292a30.1,30.1,0,0,1-4.622,20.258,29.15,29.15,0,0,1-10.752,9.58s15.35-6.507,19-17.39Z" transform="translate(-7.605 -4.378)" fill="#241d1d"/>
    <path id="Path_4210" data-name="Path 4210" d="M40.495,29.841c-.557-1.033-5.188,2.36-8.687,6.736-3.335,4.229-5.515,9.457-4.7,10.006s4.622-3.327,7.982-7.531C38.249,35.078,41.044,30.832,40.495,29.841Z" transform="translate(-1.01 -0.663)" fill="#fff"/>
    <path id="Path_4211" data-name="Path 4211" d="M27.4,24.848c-.451-.82-4.229,1.893-7.031,5.45-2.7,3.426-4.45,7.654-3.827,8.1s3.737-2.688,6.466-6.089C25.626,29.084,27.839,25.651,27.4,24.848Z" transform="translate(-0.344 -0.349)" fill="#fff"/>
    <path id="Path_4212" data-name="Path 4212" d="M248.559,416.862H183.817l-.574-.229q-4.573-1.86-9.015-3.966l7.728-1.483-11.85-1.467-2.352-.3c-3.278-1.713-6.458-3.548-9.58-5.474a157.342,157.342,0,0,1-16.554-11.76,149.337,149.337,0,0,1-11.76-10.654c-1.041-1.049-2.065-2.106-3.065-3.188l-.6-.631c-1.467-1.582-2.885-3.188-4.278-4.827-.557-.664-1.115-1.328-1.639-2,1.065-.049,2.139-.09,3.213-.1h4.1c1.59.041,3.172.123,4.761.238a127.01,127.01,0,0,1,13.391,1.729c5.2.951,10.334,2.188,15.374,3.59q3.024.82,6.023,1.787h0q4.917,1.508,9.7,3.278,6.441,2.336,12.752,5,5.253,2.2,10.4,4.589c7.794,3.6,15.686,7.031,22.946,11.621q5.966,3.786,12.137,7.2l.229.139h0c3.385,1.885,6.835,3.688,10.31,5.417Z" transform="translate(-6.925 -22.278)" fill="url(#linear-gradient)"/>
    <path id="Path_4213" data-name="Path 4213" d="M261.873,401.11v12.858h-9.834c-13.792-8.31-26.6-16.464-38.345-24.249h0l-.664-.443h0q-11.244-7.449-21.16-14.4-6.155-4.343-11.719-8.343l-2.459-1.8,2.9.082,6.515.2-6.187-1.852-8.285-2.459-.148-.041h0l-.82-.254q-4.1-3.032-7.908-5.884c-1.639-1.246-3.278-2.459-4.811-3.647q-4.007-3.049-7.523-5.81c-4.237-3.278-7.949-6.269-11.113-8.843-8.433-6.843-12.989-10.883-13.227-11.1.229.1,5.687,2.4,14.358,6.294,3.442,1.557,7.376,3.352,11.735,5.36l3.729,1.737h0q3.921,1.844,8.2,3.86,5.9,2.827,12.293,5.966h0l.279.139h0l.3.156h0l1.639.82q2.073,1.024,4.18,2.09c3.868,1.95,7.81,3.975,11.76,6.04q6.146,3.233,12.293,6.622h0c3.991,2.2,7.949,4.434,11.817,6.687h0c1.639.934,3.18,1.868,4.745,2.819,3.278,1.983,6.556,3.983,9.654,5.974h0c5.1,3.278,9.892,6.556,14.219,9.834,1.533,1.147,3.008,2.278,4.417,3.417h0a102.959,102.959,0,0,1,9.17,8.171Z" transform="translate(-7.356 -19.385)" fill="url(#linear-gradient-2)"/>
    <path id="Path_4214" data-name="Path 4214" d="M241.9,411.745q5.024,3.565,10.244,6.868-5.335-3.344-10.5-7.015c-5.892-4.155-11.588-8.58-17.038-13.178,5.54,4.622,11.3,9.1,17.267,13.317Z" transform="translate(-13.536 -24.029)" fill="#007a49"/>
    <path id="Path_4215" data-name="Path 4215" d="M255.834,411.172l-1.041-.983h0c-8.974-8.539-21.594-21.234-35.575-37.386l6.958-1.9,4.876-1.336-9.621-1.483h0l-7.2-1.164q-2.3-2.729-4.638-5.581h0c-3.573-4.36-7.2-8.925-10.842-13.678q-4.917-6.4-9.834-13.252a471.507,471.507,0,0,1-25.651-39.664c-1.033-1.795-2.057-3.6-3.065-5.425q-2.3-4.1-4.516-8.326h0s.82.5.967.639q4.2,2.778,8.2,5.638,1.7,1.221,3.385,2.459,9.945,7.29,18.71,14.956l-6.556-.623,11.408,4.917c.877.819,1.746,1.6,2.606,2.4q5.179,4.819,9.924,9.695c6.613,6.777,12.621,13.588,18.029,20.291h0a297.623,297.623,0,0,1,19.8,27.495h0c4.835,7.6,8.908,14.751,12.293,21.2h0c3.966,7.589,6.99,14.21,9.2,19.472v1.639Z" transform="translate(-9.169 -16.588)" fill="url(#linear-gradient-3)"/>
    <path id="Path_4216" data-name="Path 4216" d="M193.43,397.5c21.193,7.859,38.689,14.505,51.13,19.365H183.817l-.574-.229q-4.573-1.86-9.015-3.966l7.728-1.483-11.85-1.467-2.352-.3c-3.278-1.713-6.458-3.548-9.58-5.474a157.342,157.342,0,0,1-16.554-11.76,149.337,149.337,0,0,1-11.76-10.654c-1.041-1.049-2.065-2.106-3.065-3.188l-.6-.631c-1.467-1.582-2.885-3.188-4.278-4.827-.557-.664-1.115-1.328-1.639-2l2.459.877,5.237,1.869,3.475,1.246,12.866,4.638q15.981,5.741,30.322,11.047,6.72,2.459,13.063,4.8Z" transform="translate(-6.925 -22.285)" fill="url(#radial-gradient)"/>
    <path id="Path_4217" data-name="Path 4217" d="M213.75,389.719c11.744,7.785,24.585,15.94,38.345,24.249H228.723A288.085,288.085,0,0,1,193.86,394.6c-1.8-1.172-3.614-2.368-5.409-3.59q-6.146-4.155-12.088-8.7-4.475-3.4-8.8-7.023h0a200.464,200.464,0,0,1-16.685-15.571.069.069,0,0,1-.066-.066q-1.033-1.074-2.016-2.164c-.131-.131-.262-.27-.385-.41h.475l5.786-.328h0l3.737-.2-2.844-.762-6.105-1.639-4.72-1.237q-1.3-1.533-2.549-3.1c-1.36-1.688-2.663-3.4-3.917-5.122a110.277,110.277,0,0,1-6.589-10.211,87.439,87.439,0,0,1-4.614-9.351c.238.213,4.794,4.253,13.227,11.1,3.163,2.573,6.876,5.54,11.113,8.843q3.516,2.754,7.523,5.81c1.549,1.18,3.155,2.4,4.811,3.647q3.778,2.836,7.908,5.884l.82.254h0l.148.041,8.3,2.459L187.042,365l-6.515-.2-2.9-.082,2.459,1.8q5.589,4.016,11.719,8.31,9.908,6.917,21.16,14.4h0l.664.443h0Z" transform="translate(-7.355 -19.385)" fill="url(#radial-gradient-2)"/>
    <path id="Path_4218" data-name="Path 4218" d="M255.833,411.173h-8.056l-2.655-1.7c-.885-.574-1.762-1.164-2.631-1.754l-1.918-1.295A241.345,241.345,0,0,1,199.4,371.017a193.588,193.588,0,0,1-12.883-15.571,165.215,165.215,0,0,1-24.938-48.065,143.01,143.01,0,0,1-4.868-19.668q-.172-1.057-.32-2.139c-.172-1.2-.328-2.4-.451-3.606a7.38,7.38,0,0,0-.27-.959q2.229,4.22,4.516,8.326c1.008,1.828,2.032,3.63,3.065,5.425A471.514,471.514,0,0,0,188.9,334.426c3.278,4.565,6.556,9.015,9.834,13.252,3.639,4.753,7.269,9.318,10.85,13.686q2.336,2.852,4.638,5.581l7.187,1.115,9.621,1.483-4.876,1.336-6.958,1.9c13.981,16.153,26.6,28.847,35.583,37.4Z" transform="translate(-9.167 -16.589)" fill="url(#radial-gradient-3)"/>
    <path id="Path_4219" data-name="Path 4219" d="M221.294,395.594l.254.221Z" transform="translate(-13.325 -23.85)" fill="#007a49"/>
    <path id="Path_4220" data-name="Path 4220" d="M267.6,353.026v56.751s-7.1-.3-8.457-.647a10.514,10.514,0,0,1-2.557-3.147,275.735,275.735,0,0,1-29.912-67.438c-6.7-22.873-12.014-48.925-7.556-72.642.434-2.327.967-4.638,1.6-6.917l.156.254c1.188,2.073,9.662,16.775,19.906,36.526l-1.336,12.391,3.114-8.916C250.915,315.484,260.208,334.727,267.6,353.026Z" transform="translate(-13.083 -15.194)" fill="url(#linear-gradient-4)"/>
    <path id="Path_4221" data-name="Path 4221" d="M266.431,409.778c-.3-.533-4.442-.262-5.122-.311-2.188-.156-3.278-1.082-4.45-2.9A261.089,261.089,0,0,1,223.1,328.3c-5.54-22.332-8.613-46.778-2.393-69.315v1.049c0,7.007.9,48.4,25.4,107.455q3.573,8.646,7.867,17.784Q259.547,397.157,266.431,409.778Z" transform="translate(-13.07 -15.194)" fill="url(#radial-gradient-4)"/>
    <path id="Path_4222" data-name="Path 4222" d="M116.493,143.924s68.749-2.844,80.378,65.635c0,0-12.293,3.172-18.644,0-4.852-10.236-3.065-45.7-49.72-43.942-31.265,1.4-14.833,56.424-9.015,58S88.351,235.6,75.141,234.923c-1.565-.082-3.393-.5-4.1-1.885-8.908-16.554-15.964-38.927-9.236-74.207,5.679-17.783-33.658-33.879-22.6-79.059a.983.983,0,0,1,1.172-.713l10.457,2.524A1.426,1.426,0,0,1,51.924,83c-.2,6.794.27,42.017,30.961,54.309a.516.516,0,0,1,.32.533C82.254,147.284,92.391,160.519,116.493,143.924Z" transform="translate(-1.663 -3.791)" fill="#007a49"/>
  </g>
</svg>
