<svg xmlns="http://www.w3.org/2000/svg" xmlns:xlink="http://www.w3.org/1999/xlink" width="257.88" height="376" viewBox="0 0 257.88 376">
  <defs>
    <radialGradient id="radial-gradient" cx="1.244" cy="-1.073" r="2.082" gradientTransform="translate(0.051) scale(0.898 1)" gradientUnits="objectBoundingBox">
      <stop offset="0" stop-color="#68b030"/>
      <stop offset="1" stop-color="#007a49"/>
    </radialGradient>
    <radialGradient id="radial-gradient-2" cx="0.952" cy="0.391" r="1.396" gradientTransform="translate(-0.002)" xlink:href="#radial-gradient"/>
    <clipPath id="clip-path">
      <path id="SVGID" d="M248.3,196.488c3.254-25.866-19.2-48.782-35.866-65.727-4.564-4.638-10.083-8.707-16.475-9.885-11.722-2.175-24.762,4.942-34.836,10.206l-2.908,1.54c-15.33-4.687-22.34,2.636-22.34,4.621,4.053-.585,7.158.9,11.162,1.582C141.973,138,134.386,147.014,130.86,150a74.054,74.054,0,0,0-15.3,17.159,47.505,47.505,0,0,0-4.259,40.685c-4.654,2.751-5.371,8.435-5.371,8.435a20.141,20.141,0,0,0,6.969-4.308,71.122,71.122,0,0,0,16.7,23.831c28.007,25.907,73.61,21.772,100.052-4.489,7.793-7.743,14.243-17.3,17.249-27.9,1.886,2.422,4.292,5.091,6.532,7.718C254.842,205.36,251.506,199.231,248.3,196.488Z" fill="url(#radial-gradient)"/>
    </clipPath>
    <radialGradient id="radial-gradient-4" cx="1.867" cy="-1.621" r="14.496" gradientTransform="translate(0.439) scale(0.123 1)" xlink:href="#radial-gradient"/>
    <radialGradient id="radial-gradient-5" cx="2.075" cy="4.499" r="23.82" gradientTransform="translate(0.456) scale(0.087 1)" xlink:href="#radial-gradient"/>
    <radialGradient id="radial-gradient-6" cx="1.699" cy="0.835" r="23.82" gradientTransform="translate(0.468) scale(0.064 1)" xlink:href="#radial-gradient"/>
    <clipPath id="clip-path-2">
      <path id="Path_4140" data-name="Path 4140" d="M217.551,195.351l-.091-.082c-.47-.379-1.153,0-1.647.42q-6.648,5.717-12.99,11.813a7.686,7.686,0,0,1-2.776,1.969,7.513,7.513,0,0,1-2.471.231c-6.9-.148-13.8-.387-20.7-.173-.321,0-1.038-3.913-1.071-4.193a19.144,19.144,0,0,1,.6-6.483c3.451-14.251,7.364-28.427,11.013-42.654l.148-.585a2.1,2.1,0,0,0-4.012-1.219c-2.611,7.414-13.88,40.479-15.651,43.568-1.458-.75-2.727-3.048-3.781-4.349l-5.6-6.928q-3.666-4.531-7.348-9.061a1.137,1.137,0,1,0-1.829,1.351l17.472,26.36a18.414,18.414,0,0,0,.107,1.9c.428,4.119,1.647,8.237,2.471,12.307.5,2.924,1.384,5.766,2.035,8.641a30.479,30.479,0,0,1,.618,8.3c-.4,10.272-1.532,20.511-2.356,30.75l-2.545,31.582q-2.545,31.582-5.1,63.157c-.115,1.475-.239,2.949-.354,4.424l-1.425,17.463h25.075c-.3,0-.173-11.532-.181-12.175q-.157-14.589-.28-29.185-.157-17.587-.3-35.182c-.181-20.824-.28-41.649-.535-62.473a89.94,89.94,0,0,0-.947-13.378c-.47-2.908-4.671-15.289-4.58-16.574,0-.511,16.862.058,18.337,0a11.173,11.173,0,0,0,7.109-2.471c2.265-1.936,3.913-4.407,5.849-6.648,2.471-2.858,4.877-5.807,7.315-8.707C217.543,196.6,217.947,195.813,217.551,195.351Z" fill="#241d1d"/>
    </clipPath>
    <radialGradient id="radial-gradient-7" cx="1.301" cy="0.035" r="1.025" gradientTransform="translate(-1.085) scale(3.171 1)" gradientUnits="objectBoundingBox">
      <stop offset="0" stop-color="#241d1d"/>
      <stop offset="1" stop-color="#542f2f"/>
    </radialGradient>
    <radialGradient id="radial-gradient-8" cx="0.475" cy="0.511" r="0.359" gradientTransform="translate(-1.298 -0.013) scale(3.795 1.023)" xlink:href="#radial-gradient-7"/>
    <radialGradient id="radial-gradient-9" cx="1.265" cy="0.695" r="0.598" gradientTransform="translate(-0.668) scale(2.337 1)" xlink:href="#radial-gradient-7"/>
    <clipPath id="clip-path-3">
      <path id="SVGID-2" data-name="SVGID" d="M181.768,99.121c-1.647-21.063-13.567-39.976-29.49-54.079-.6-7.018-4.069-16.22-16.879-21.294a17.743,17.743,0,0,0-.544,7.694,159.344,159.344,0,0,0-23.732-13.131C86.23,7.257,55.4,1.837,29.062,18.312A75.579,75.579,0,0,0,3.839,45.042c-.824,1.384-1.565,2.793-2.29,4.226C1.186,49.977.84,50.685.494,51.41L0,52.473V138.01c0,3.007,4.267,8.377,5.766,10.964a55.192,55.192,0,0,0,7.257,9.5A99.088,99.088,0,0,0,76.608,190.1c32.563,2.858,64.969-11.862,85.95-36.583a18.263,18.263,0,0,0,2.01,9.49c8.493-7.183,8.394-16.244,7.076-22.126-.708-3.2,4.564-9.794,5.766-12.809a65.966,65.966,0,0,0,4.119-16.211,63.617,63.617,0,0,0,.239-12.743Z" fill="url(#radial-gradient-2)"/>
    </clipPath>
    <radialGradient id="radial-gradient-11" cx="1.556" cy="3.519" r="14.921" gradientTransform="translate(0.446) scale(0.108 1)" xlink:href="#radial-gradient"/>
    <radialGradient id="radial-gradient-12" cx="1.402" cy="1.25" r="14.834" gradientTransform="translate(0.46) scale(0.081 1)" xlink:href="#radial-gradient"/>
    <radialGradient id="radial-gradient-13" cx="1.328" cy="-0.522" r="25.237" gradientTransform="translate(0.466) scale(0.068 1)" xlink:href="#radial-gradient"/>
    <radialGradient id="radial-gradient-14" cx="1.344" cy="-1.591" r="14.921" gradientTransform="translate(0.456) scale(0.088 1)" xlink:href="#radial-gradient"/>
    <clipPath id="clip-path-4">
      <path id="Path_4164" data-name="Path 4164" d="M125.778,71.262a3.015,3.015,0,0,0-3.649,2.216L112.82,111.37q-2.142,8.7-4.218,17.414c-1.186,4.942-1.549,10.412-4.119,14.935-1.269,2.274-4.078,3.295-6.236,4.58L77.21,64.071a1.137,1.137,0,0,0-2.224.478l11.129,62.176c-8.237.568-16.417,1.425-24.614,2.224a5.9,5.9,0,0,1-3.592-.412A5.865,5.865,0,0,1,56.1,126.42c-3.295-5.371-6.524-10.709-9.885-16.047q-4.769-7.578-9.6-15.107c-.264-.412-.626-.873-1.112-.824-.824.091-.717,1.376-.321,2.142l10.791,20.931c1.582,3.073,3.221,6.12,4.794,9.193,1.293,2.529,2.644,5.264,5.288,6.59,2.323,1.186,5.083,1,7.686.783,7.677,0,15.651-1.252,23.312-2.084L90.76,152.8c-3.649,2.191-7.677,3.872-9.588,7.957-1.565,3.353-1.516,6.936-1.7,10.544-.321,5.173-.552,10.346-.9,15.511Q77.9,197.2,77.2,207.584q-1.648,24.663-3.295,49.318-1.73,25.816-3.468,51.624-1.475,22.019-2.957,44.037-.906,13.345-1.8,26.689c0,.181-.206,3.732-.247,3.732h26.22q0-9.226.082-18.468.049-11.582.107-23.147.049-13.18.107-26.277l.124-27.876L92.2,259.3q.049-13.18.115-26.418l.1-23.378q0-9.407.082-18.806l.049-12.62v-6.516c0-1.12-.165-2.232-.189-3.353a3.8,3.8,0,0,1,.6-2.4,5.016,5.016,0,0,1,1.236-1.038c3.114-2.084,6.236-4.176,9.391-6.211a38.3,38.3,0,0,0,8.237-6.59c2.471-2.792,3.295-5.947,3.929-9.5l4.069-22.579,8.139-45.158a3.04,3.04,0,0,0-2.183-3.476Z" fill="#241d1d"/>
    </clipPath>
    <radialGradient id="radial-gradient-15" cx="0.89" cy="0.424" r="0.279" gradientTransform="translate(-1.535) scale(4.071 1)" xlink:href="#radial-gradient-7"/>
    <radialGradient id="radial-gradient-16" cx="0.5" cy="0.5" r="0.373" gradientTransform="translate(-1.005) scale(3.01 1)" xlink:href="#radial-gradient-7"/>
    <radialGradient id="radial-gradient-17" cx="0.499" cy="0.5" r="0.377" gradientTransform="translate(-0.836) scale(2.671 1)" xlink:href="#radial-gradient-7"/>
    <radialGradient id="radial-gradient-18" cx="0.523" cy="0.653" r="0.488" gradientTransform="translate(-0.652) scale(2.304 1)" xlink:href="#radial-gradient-7"/>
    <radialGradient id="radial-gradient-19" cx="0.525" cy="0.994" r="0.801" gradientTransform="translate(0.235) scale(0.53 1)" xlink:href="#radial-gradient-7"/>
    <radialGradient id="radial-gradient-20" cx="3.207" cy="-0.096" r="0.931" gradientTransform="translate(-0.953) scale(2.905 1)" xlink:href="#radial-gradient"/>
    <radialGradient id="radial-gradient-21" cx="1.586" cy="-0.259" r="1.069" gradientTransform="translate(-0.128) scale(1.256 1)" xlink:href="#radial-gradient"/>
    <radialGradient id="radial-gradient-22" cx="0.877" cy="-0.634" r="1.387" gradientTransform="translate(0.224) scale(0.551 1)" xlink:href="#radial-gradient"/>
    <linearGradient id="linear-gradient" x1="1.55" y1="-0.287" x2="-0.588" y2="1.166" gradientTransform="matrix(1, 0, 0, 1, 0, 0)" xlink:href="#radial-gradient"/>
    <linearGradient id="linear-gradient-2" x1="1.167" y1="-0.341" x2="-0.019" y2="0.993" gradientTransform="matrix(1, 0, 0, 1, 0, 0)" xlink:href="#radial-gradient"/>
    <linearGradient id="linear-gradient-3" x1="1.137" y1="-0.384" x2="-0.045" y2="1.087" gradientTransform="matrix(1, 0, 0, 1, 0, 0)" xlink:href="#radial-gradient"/>
    <radialGradient id="radial-gradient-23" cx="0.784" cy="-3.017" r="3.411" gradientTransform="translate(0.403) scale(0.194 1)" xlink:href="#radial-gradient"/>
    <linearGradient id="linear-gradient-4" x1="1.161" y1="-0.983" x2="0.004" y2="1.72" gradientTransform="matrix(1, 0, 0, 1, 0, 0)" xlink:href="#radial-gradient"/>
  </defs>
  <g id="Trees" transform="translate(0 -7.89)">
    <path id="Path_4117" data-name="Path 4117" d="M179.758,77.638a48.84,48.84,0,0,0,9.572,2.694s-1.878-11.4-12.01-16.533c-3.8-16.673-11.17-34.688-24.4-44.235-10.667-7.7-24.35-5.569-36.245-2.7-1.845.445-3.69.931-5.511,1.45A124.148,124.148,0,0,0,86.452,28.427c-13.073,7.084-25.034,16.59-39.219,21.055a59.655,59.655,0,0,1-17.414,2.9c-3.048,0-6.12-.239-9.061.387a23.658,23.658,0,0,0-8.172,3.8,101.191,101.191,0,0,0-8.814,6.5,29.771,29.771,0,0,0-2.735,2.562C.675,66.04,0,66.674,0,67.275v75.933l1.046,1.236q2.068,2.414,4.267,4.662c.692.708,1.384,1.4,2.092,2.076,1.8,1.755,3.666,3.419,5.577,5.017a111.209,111.209,0,0,0,11.73,8.55c1.82,1.17,3.682,2.282,5.568,3.344q5.832,3.295,11.994,6.005c1.993.881,4,1.713,6.038,2.512,4.942,1.952,10.05,3.657,15.19,5.148q2.035.593,4.119,1.137,5.536,1.483,11.129,2.661c4.308.914,8.625,1.7,12.925,2.381l.9.14c.774.124,1.557.231,2.331.338q2.965.42,5.947.692c.824.074,1.647.148,2.471.206,1.647.115,3.353.2,5.041.231,11.722.255,23.6-1.647,33.839-7.241,8.921-4.877,16.137-12.356,21.648-20.923a82.051,82.051,0,0,0,6.12-11.532c.824-1.845,1.557-3.715,2.257-5.618q2.035-5.4,3.575-11.055l.371-1.351c.717-2.718,1.351-5.478,1.9-8.237a146.833,146.833,0,0,0,2.578-36.5Q180.351,82.292,179.758,77.638Z" fill="#e1efd6"/>
    <path id="Path_4118" data-name="Path 4118" d="M0,383.865H239.883c8.888-24.795,8.674-58.675-9.514-81.477-8.46-10.6-16.829-13.806-28.114-17.175-4.119-1.236-8.674-2.471-13.757-4.119h-.041c-1.343-.445-2.694-.906-4.119-1.409l-1.853-.667c-1.409-.511-2.834-1.054-4.316-1.647l-1.433-.585c-2.414-.98-4.942-2.068-7.57-3.295-2.051-.956-4.176-1.985-6.376-3.122-3.023-1.54-6.186-3.295-9.506-5.214-.313-.165-.61-.346-.914-.527-5.766-3.377-11.129-6.895-16.17-10.462a265.583,265.583,0,0,1-43.807-39.235c-1.54-1.722-2.883-3.254-4.012-4.539-3.938-4.5-7.414-8.773-10.495-12.809-2.125-2.776-4.069-5.437-5.857-8q-2.414-3.509-4.481-6.714-1.45-2.241-2.743-4.349c-3.295-5.3-5.906-10.017-8.237-14.135a118.621,118.621,0,0,0-6.59-10.61,34.276,34.276,0,0,0-4.036-4.753,22.793,22.793,0,0,0-9.967-5.569c-3.55-.98-7.224-1.425-10.816-2.257-3.122-.717-6.195-1.73-9.374-2.166a15.046,15.046,0,0,0-9.374,1.326,2.842,2.842,0,0,1-1.392.511c-.824,0-1.367-.824-1.779-1.507l-1.516-2.529c-.222-.4-.494-.914-.9-.914s-.824.1-.824.675Z" fill="#e1efd6"/>
    <path id="Path_4119" data-name="Path 4119" d="M250.172,155.029c2.183-8.237-5.239-15.363-5.239-15.363a27.184,27.184,0,0,0,.824,9.523c-.371-.412-.725-.824-1.112-1.244-27.06-28.485-84.574-18.37-115.654.437-1.45.881-4.687,2.834-8.608,5.634-.585-2.924-2.611-7.628-9.5-8.542-.231,5.05,4.662,8.386,7.595,9.926-11.013,8.18-25.759,22.142-23.411,37.415,5.255,34.136,95.06,69.055,138.266,38.362C256.729,214.553,265.633,179.263,250.172,155.029Z" fill="#e1efd6"/>
    <path id="SVGID-3" data-name="SVGID" d="M248.3,196.488c3.254-25.866-19.2-48.782-35.866-65.727-4.564-4.638-10.083-8.707-16.475-9.885-11.722-2.175-24.762,4.942-34.836,10.206l-2.908,1.54c-15.33-4.687-22.34,2.636-22.34,4.621,4.053-.585,7.158.9,11.162,1.582C141.973,138,134.386,147.014,130.86,150a74.054,74.054,0,0,0-15.3,17.159,47.505,47.505,0,0,0-4.259,40.685c-4.654,2.751-5.371,8.435-5.371,8.435a20.141,20.141,0,0,0,6.969-4.308,71.122,71.122,0,0,0,16.7,23.831c28.007,25.907,73.61,21.772,100.052-4.489,7.793-7.743,14.243-17.3,17.249-27.9,1.886,2.422,4.292,5.091,6.532,7.718C254.842,205.36,251.506,199.231,248.3,196.488Z" fill="url(#radial-gradient)"/>
    <g id="Group_2954" data-name="Group 2954" clip-path="url(#clip-path)">
      <path id="Path_4120" data-name="Path 4120" d="M113.15,231.234c-.362-1.367,20.19-12.612,46.385-12.422,19.77.148,25.684,6.681,46.377,8.114a112.655,112.655,0,0,0,43.6-5.832c-19.325,12.356-34.91,14.589-45.372,14.449-18.073-.239-23.065-7.6-45.372-9.374C132.079,224.059,113.487,232.519,113.15,231.234Z" fill="url(#radial-gradient-4)"/>
      <path id="Path_4121" data-name="Path 4121" d="M126.033,153.4c-.313-.824,17.241-7.661,39.622-7.546,16.87.091,21.936,4.061,39.622,4.942a132.516,132.516,0,0,0,37.233-3.542c-16.475,7.5-29.811,8.863-38.716,8.781-15.445-.148-19.687-4.621-38.757-5.7C142.228,149.024,126.346,154.18,126.033,153.4Z" fill="url(#radial-gradient-5)"/>
      <path id="Path_4122" data-name="Path 4122" d="M256.028,190.722c.42-.824-23.658-7.661-54.367-7.546-23.155.091-30.108,4.061-54.367,4.942a247.236,247.236,0,0,1-51.072-3.542c22.653,7.5,40.915,8.863,53.181,8.781,21.187-.148,27.019-4.621,53.181-5.7C233.845,186.348,255.641,191.5,256.028,190.722Z" fill="url(#radial-gradient-6)"/>
    </g>
    <g id="Group_2955" data-name="Group 2955" opacity="0.5">
      <path id="Path_4123" data-name="Path 4123" d="M152.64,145.177s9.481,6.532,16.8-.437C162.113,140.572,152.64,145.177,152.64,145.177Z" fill="#86c059"/>
    </g>
    <path id="Path_4124" data-name="Path 4124" d="M193.267,299.777h0l-.165.165h0l-1.458,1.466-1.236,1.277-.824.873c-1.367,1.45-2.7,2.933-4.012,4.432-.329.379-.651.766-.964,1.145a123.476,123.476,0,0,0-8.74,11.574c-.058.074-.1.14-.148.214l-.494.758q-2.372,3.649-4.456,7.455a110.515,110.515,0,0,0-5.354,11.186c-.206.486-.4.988-.6,1.483-.47,1.186-.914,2.389-1.351,3.592q-1.013,2.842-1.862,5.766-1.211,4.119-2.1,8.287c-.082.338-.148.676-.214,1.021-.107.5-.2,1-.3,1.516-.626,3.295-1.1,6.689-1.442,10.05-.148,1.5-.28,3.007-.362,4.514-.058.947-.115,1.895-.148,2.842a10.412,10.412,0,0,1-.041,1.129c0,1.1-.058,2.208-.058,3.295h-3.888c0-.725.049-1.442.091-2.166.041-.824.082-1.705.148-2.562,0-.3.041-.593.066-.9.157-2.2.379-4.391.651-6.59.453-3.534,1.046-7.043,1.8-10.527.107-.437.2-.873.3-1.31a.2.2,0,0,1,0-.066q.988-4.3,2.315-8.518,1.079-3.427,2.372-6.788.873-2.274,1.853-4.514c.428-.972.865-1.928,1.318-2.891s.931-1.952,1.417-2.908a114.865,114.865,0,0,1,8.237-13.839c.107-.173.222-.329.338-.5.461-.651.923-1.3,1.4-1.944q3.221-4.407,6.821-8.526c.824-.988,1.722-1.952,2.611-2.916s1.713-1.837,2.595-2.735c.593-.618,1.2-1.219,1.812-1.829s1.021-1.013,1.54-1.507,1.021-.972,1.54-1.458l.041-.041a.67.67,0,0,1,.931.964Z" fill="#c3dfac"/>
    <path id="Path_4125" data-name="Path 4125" d="M174.634,321.17s22.019-9.613,50.611,14.58C205.615,349.268,174.634,321.17,174.634,321.17Z" fill="#c3dfac"/>
    <path id="Path_4126" data-name="Path 4126" d="M174.189,320.989s11.005-21.352-11.3-51.443C148.167,288.229,174.189,320.989,174.189,320.989Z" fill="#c3dfac"/>
    <path id="Path_4127" data-name="Path 4127" d="M164.057,341.031s19.77-11.574,44.161,9.976C196.439,364.318,171.891,350.306,164.057,341.031Z" fill="#c3dfac"/>
    <path id="Path_4128" data-name="Path 4128" d="M163.876,340.347s3.344-22.645-25.75-37.209C130.152,319.028,152.3,336.566,163.876,340.347Z" fill="#c3dfac"/>
    <path id="Path_4129" data-name="Path 4129" d="M158.052,361.27s11.063-9,31.3,1.689C177.295,377.4,158.052,361.27,158.052,361.27Z" fill="#c3dfac"/>
    <path id="Path_4130" data-name="Path 4130" d="M156.512,361.138S154.09,347.093,131.8,341.8C131.363,360.619,156.512,361.138,156.512,361.138Z" fill="#c3dfac"/>
    <path id="Path_4131" data-name="Path 4131" d="M155.424,378.775s4.942-9.251,16.557-4.275C169.37,385.159,155.424,378.775,155.424,378.775Z" fill="#c3dfac"/>
    <path id="Path_4132" data-name="Path 4132" d="M153.546,379.088s-1.713-10.354-14.3-9.374C138.29,380.645,153.546,379.088,153.546,379.088Z" fill="#c3dfac"/>
    <path id="Path_4133" data-name="Path 4133" d="M222.733,316.549s-6.911-23.3-32.686-14.621C196.875,317.966,222.733,316.549,222.733,316.549Z" fill="#c3dfac"/>
    <path id="Path_4134" data-name="Path 4134" d="M178.25,268.417s22.637,8.9,11.714,33.831C174.56,294.077,178.25,268.417,178.25,268.417Z" fill="#c3dfac"/>
    <path id="Path_4135" data-name="Path 4135" d="M191.669,300.494s17.859-5.931,21.854-20.429C197.271,283.088,191.669,300.494,191.669,300.494Z" fill="#c3dfac"/>
    <path id="Path_4136" data-name="Path 4136" d="M217.551,195.351l-.091-.082c-.47-.379-1.153,0-1.647.42q-6.648,5.717-12.99,11.813a7.686,7.686,0,0,1-2.776,1.969,7.513,7.513,0,0,1-2.471.231c-6.9-.148-13.8-.387-20.7-.173-.321,0-1.038-3.913-1.071-4.193a19.144,19.144,0,0,1,.6-6.483c3.451-14.251,7.364-28.427,11.013-42.654l.148-.585a2.1,2.1,0,0,0-4.012-1.219c-2.611,7.414-13.88,40.479-15.651,43.568-1.458-.75-2.727-3.048-3.781-4.349l-5.6-6.928q-3.666-4.531-7.348-9.061a1.137,1.137,0,1,0-1.829,1.351l17.472,26.36a18.414,18.414,0,0,0,.107,1.9c.428,4.119,1.647,8.237,2.471,12.307.5,2.924,1.384,5.766,2.035,8.641a30.479,30.479,0,0,1,.618,8.3c-.4,10.272-1.532,20.511-2.356,30.75l-2.545,31.582q-2.545,31.582-5.1,63.157c-.115,1.475-.239,2.949-.354,4.424l-1.425,17.463h25.075c-.3,0-.173-11.532-.181-12.175q-.157-14.589-.28-29.185-.157-17.587-.3-35.182c-.181-20.824-.28-41.649-.535-62.473a89.94,89.94,0,0,0-.947-13.378c-.47-2.908-4.671-15.289-4.58-16.574,0-.511,16.862.058,18.337,0a11.173,11.173,0,0,0,7.109-2.471c2.265-1.936,3.913-4.407,5.849-6.648,2.471-2.858,4.877-5.807,7.315-8.707C217.543,196.6,217.947,195.813,217.551,195.351Z" fill="#241d1d"/>
    <g id="Group_2956" data-name="Group 2956" clip-path="url(#clip-path-2)">
      <path id="Path_4137" data-name="Path 4137" d="M164.807,248.195c2.817-.824,9.679-3.295,14-10.058,1.112-1.722,5.437-8.427,2.957-13.518-2.142-4.407-7.463-3.666-10.478-6.59-7.727-7.5,1.853-28.675,9.382-40.125a74.821,74.821,0,0,1,10.223-12.422,47.778,47.778,0,0,0-13.773,11.154c-11.664,13.839-16.22,35.907-8.361,43.255,3.295,3.073,7.743,2.628,9.374,6.755,1.417,3.592-.535,7.5-1.862,10.14A26.772,26.772,0,0,1,164.807,248.195Z" fill="url(#radial-gradient-7)"/>
      <path id="Path_4138" data-name="Path 4138" d="M158.983,366.946c4.942-1.647,13.88-5.651,18.551-14.646,5.19-9.992,2.306-20.783-.437-31.072-4.045-15.149-8.3-14.827-9.934-24.416-3.765-22.134,14.976-46.69,20.305-45.125,1.936.568,3.369,4.942,2.191,7.694-.923,2.142-3.295,2.949-4.119,3.254-7.924,3.13-15.948,20.412-14.465,33.732,1.137,10.214,6.862,9.251,12.126,22.933,1.647,4.358,8.567,22.307.585,38.024-6.812,13.394-22.579,21.524-25.857,18.641C156.363,374.6,157.459,370.636,158.983,366.946Z" fill="url(#radial-gradient-8)"/>
      <path id="Path_4139" data-name="Path 4139" d="M186.587,278.022c-.824,2.035-3.106,4.119-4.283,6.013a51.8,51.8,0,0,0-4.7,9.267c-3.493,9.448-3.361,19.926-5.709,29.729A52.769,52.769,0,0,1,156,349.5c11.532-6.738,19.646-16.475,22.241-29.77,1.4-7.1,1.318-14.35,2.471-21.467a101.748,101.748,0,0,1,5.873-20.239Z" fill="url(#radial-gradient-9)"/>
    </g>
    <path id="Path_4141" data-name="Path 4141" d="M38.3,313.847a197.486,197.486,0,0,0,7.513-33.922,172.165,172.165,0,0,0,.972-35.017,168.752,168.752,0,0,0-6.153-34.144A184.958,184.958,0,0,0,28.222,179.28a.643.643,0,0,0-.964-.288.947.947,0,0,0-.247,1.137h0a185.781,185.781,0,0,1,11.532,31.451,165.572,165.572,0,0,1,5.272,33.6,167.557,167.557,0,0,1-1.7,34.012,191.108,191.108,0,0,1-8.031,32.694h0a2.891,2.891,0,0,0,1.236,3.5,2.133,2.133,0,0,0,2.924-1.474Z" fill="#c3dfac"/>
    <path id="Path_4142" data-name="Path 4142" d="M39.614,212.205l-.766.437c-4.02,2.216-23.131,12.134-38.848,9.366V205.936c21.508-6.162,34.7,2.315,38.477,5.288h0C39.235,211.834,39.614,212.205,39.614,212.205Z" fill="#c3dfac"/>
    <path id="Path_4143" data-name="Path 4143" d="M40.067,212.131s-4.942-29.441,26.1-57.909C75.587,181.718,40.067,212.131,40.067,212.131Z" fill="#c3dfac"/>
    <path id="Path_4144" data-name="Path 4144" d="M44.482,239.628c-.313.247-.634.5-.98.75-10.157,7.447-33.444,14.16-43.5.873v-6.277c24.366-12.472,39.235-.659,43.337,3.4h0a15.19,15.19,0,0,1,1.145,1.252Z" fill="#c3dfac"/>
    <path id="Path_4145" data-name="Path 4145" d="M44.861,238.927S48,210.566,81.386,203.045C84.846,224.883,57.563,238.351,44.861,238.927Z" fill="#c3dfac"/>
    <path id="Path_4146" data-name="Path 4146" d="M44.7,266.07s-8.526-14.613-31.937-8.756C20.758,278.813,44.7,266.07,44.7,266.07Z" fill="#c3dfac"/>
    <path id="Path_4147" data-name="Path 4147" d="M46.327,266.44S52.786,250.4,76.682,251.7C71.666,274.447,46.327,266.44,46.327,266.44Z" fill="#c3dfac"/>
    <path id="Path_4148" data-name="Path 4148" d="M42.308,287.981S40,275.172,26.928,277.157C26.483,290.856,42.308,287.981,42.308,287.981Z" fill="#c3dfac"/>
    <path id="Path_4149" data-name="Path 4149" d="M44.112,289s4.687-11.845,17.035-6.343C58.972,296.12,44.112,289,44.112,289Z" fill="#c3dfac"/>
    <path id="Path_4150" data-name="Path 4150" d="M29.655,183.778l-.041.058c-.173.255-.346.5-.535.75C21.417,194.89,8.237,194.1,0,192.3V181.4c6.046-4.893,15.651-8.3,28.172,1.236.461.346.923.708,1.392,1.1h0Z" fill="#c3dfac"/>
    <path id="Path_4151" data-name="Path 4151" d="M51.072,147.582S25.816,150.49,29.655,184.2C47.423,179.642,51.072,147.582,51.072,147.582Z" fill="#c3dfac"/>
    <path id="Path_4152" data-name="Path 4152" d="M28.411,181.5S12.183,168.242,12.34,149.46C27.785,158.67,28.411,181.5,28.411,181.5Z" fill="#c3dfac"/>
    <path id="Path_4153" data-name="Path 4153" d="M0,120.4H0v-7.15a15.017,15.017,0,0,1,0,7.15Z" fill="#68b030"/>
    <path id="SVGID-4" data-name="SVGID" d="M181.768,99.121c-1.647-21.063-13.567-39.976-29.49-54.079-.6-7.018-4.069-16.22-16.879-21.294a17.743,17.743,0,0,0-.544,7.694,159.344,159.344,0,0,0-23.732-13.131C86.23,7.257,55.4,1.837,29.062,18.312A75.579,75.579,0,0,0,3.839,45.042c-.824,1.384-1.565,2.793-2.29,4.226C1.186,49.977.84,50.685.494,51.41L0,52.473V138.01c0,3.007,4.267,8.377,5.766,10.964a55.192,55.192,0,0,0,7.257,9.5A99.088,99.088,0,0,0,76.608,190.1c32.563,2.858,64.969-11.862,85.95-36.583a18.263,18.263,0,0,0,2.01,9.49c8.493-7.183,8.394-16.244,7.076-22.126-.708-3.2,4.564-9.794,5.766-12.809a65.966,65.966,0,0,0,4.119-16.211,63.617,63.617,0,0,0,.239-12.743Z" fill="url(#radial-gradient-2)"/>
    <g id="Group_2957" data-name="Group 2957" clip-path="url(#clip-path-3)">
      <path id="Path_4154" data-name="Path 4154" d="M-12.554,62.3c12.043-8.081,31.1-18.468,55.759-21.541,28.46-3.55,44.054,5.173,79.08,7.859A259.736,259.736,0,0,0,194.519,43.8c-30.841,13.649-55.751,15.907-72.745,15.462-29.729-.774-43.955-10.041-75.529-9.374A165.284,165.284,0,0,0-12.554,62.3Z" fill="url(#radial-gradient-11)"/>
      <path id="Path_4155" data-name="Path 4155" d="M-80.274,107.639A211.629,211.629,0,0,1-5.181,86.1c41.83-3.88,56.081,4.942,106.494,7.859a468.86,468.86,0,0,0,97.276-4.819c-41.542,13.649-75.076,15.906-97.96,15.462-40.042-.807-59.2-10.041-101.716-9.382a289.712,289.712,0,0,0-79.187,12.422Z" fill="url(#radial-gradient-12)"/>
      <path id="Path_4156" data-name="Path 4156" d="M246,138.809a166.512,166.512,0,0,0-52.16-12.735c-26.623-2.1-41.187,3.056-73.972,4.646a382.123,382.123,0,0,1-67.547-2.85,236,236,0,0,0,68.041,9.144c27.81-.461,41.121-5.939,70.653-5.544A233.655,233.655,0,0,1,246,138.809Z" fill="url(#radial-gradient-13)"/>
      <path id="Path_4157" data-name="Path 4157" d="M-32.645,176.669a180.879,180.879,0,0,1,68.56-21.541c34.993-3.55,54.169,5.173,97.2,7.859a391.354,391.354,0,0,0,88.857-4.827c-37.892,13.658-68.552,15.906-89.442,15.462-36.558-.774-54.054-10.041-92.877-9.374a243.4,243.4,0,0,0-72.3,12.422Z" fill="url(#radial-gradient-14)"/>
    </g>
    <path id="Path_4158" data-name="Path 4158" d="M125.778,71.262a3.015,3.015,0,0,0-3.649,2.216L112.82,111.37q-2.142,8.7-4.218,17.414c-1.186,4.942-1.549,10.412-4.119,14.935-1.269,2.274-4.078,3.295-6.236,4.58L77.21,64.071a1.137,1.137,0,0,0-2.224.478l11.129,62.176c-8.237.568-16.417,1.425-24.614,2.224a5.9,5.9,0,0,1-3.592-.412A5.865,5.865,0,0,1,56.1,126.42c-3.295-5.371-6.524-10.709-9.885-16.047q-4.769-7.578-9.6-15.107c-.264-.412-.626-.873-1.112-.824-.824.091-.717,1.376-.321,2.142l10.791,20.931c1.582,3.073,3.221,6.12,4.794,9.193,1.293,2.529,2.644,5.264,5.288,6.59,2.323,1.186,5.083,1,7.686.783,7.677,0,15.651-1.252,23.312-2.084L90.76,152.8c-3.649,2.191-7.677,3.872-9.588,7.957-1.565,3.353-1.516,6.936-1.7,10.544-.321,5.173-.552,10.346-.9,15.511Q77.9,197.2,77.2,207.584q-1.648,24.663-3.295,49.318-1.73,25.816-3.468,51.624-1.475,22.019-2.957,44.037-.906,13.345-1.8,26.689c0,.181-.206,3.732-.247,3.732h26.22q0-9.226.082-18.468.049-11.582.107-23.147.049-13.18.107-26.277l.124-27.876L92.2,259.3q.049-13.18.115-26.418l.1-23.378q0-9.407.082-18.806l.049-12.62v-6.516c0-1.12-.165-2.232-.189-3.353a3.8,3.8,0,0,1,.6-2.4,5.016,5.016,0,0,1,1.236-1.038c3.114-2.084,6.236-4.176,9.391-6.211a38.3,38.3,0,0,0,8.237-6.59c2.471-2.792,3.295-5.947,3.929-9.5l4.069-22.579,8.139-45.158a3.04,3.04,0,0,0-2.183-3.476Z" fill="#241d1d"/>
    <g id="Group_2958" data-name="Group 2958" clip-path="url(#clip-path-4)">
      <path id="Path_4159" data-name="Path 4159" d="M78.519,155.688c5.091,10.709,8.88,11.763,9.687,23.782.824,12.892-3.295,34.853-6.475,47.085-1.73,6.656-2.471,13.888,0,20.281a22.151,22.151,0,0,0,8.732,10.379A36.453,36.453,0,0,0,96.9,260.32c1.351.527,2.735,1,4.119,1.442.956.3,3.089.5,3.814,1.145-5.412-4.8-12.6-7.924-16.911-13.9-6.359-8.839-1.647-20.989.132-30.544,2.628-14,5.181-30.339,1.837-44.425-1.705-7.167-5.437-14.07-11.4-18.378Z" fill="url(#radial-gradient-15)"/>
      <path id="Path_4160" data-name="Path 4160" d="M67.9,247.3c14.473,19.012,26.475,38.214,26.5,62.942,0,28.93-16.911,61.41-43.782,74.079-.577.272-1.392.47-1.73-.066A1.343,1.343,0,0,1,49,383.009c4.662-10.47,12.183-19.35,19.21-28.4s13.781-18.724,16.475-29.861C89.047,306.763,82.572,288,76.518,271.2Z" fill="url(#radial-gradient-16)"/>
      <path id="Path_4161" data-name="Path 4161" d="M105.242,162.319c.461.7,6.738-3.847,9.564-12.158,5.84-17.159-8.41-34.548-2.628-48.865,1.647-4.119,3.929-8.633,7.414-11.532,4.4-3.682,9.8-1.647,14.951-1.911a6.03,6.03,0,0,0-2.562-1.895,16.014,16.014,0,0,0-8.328-1.853,12.191,12.191,0,0,0-6.26,2.652c-3.937,3.1-6.26,8.023-7.554,12.752-4.819,17.463,6.928,30.973,2.191,48.766C109.7,156.9,104.805,161.66,105.242,162.319Z" fill="url(#radial-gradient-17)"/>
      <path id="Path_4162" data-name="Path 4162" d="M84.656,152.937c7.134-2.043,14.341-8.386,14.951-14.7,1.03-10.552-17.126-12.768-19.515-26.236-2.471-13.913,15-22.356,10.519-32.447-3.106-6.977-14.77-10.363-21.673-11.022a32.81,32.81,0,0,0-6.335,0c17.884,2.628,22.777,7.817,24.078,11.911C89.871,90.48,73.05,98.841,75.274,112.26c2.084,12.5,18.345,15.272,18.122,25.215-.148,6.8-7.908,12.356-15.453,16.22A20.593,20.593,0,0,0,84.656,152.937Z" fill="url(#radial-gradient-18)"/>
      <path id="Path_4163" data-name="Path 4163" d="M70.957,123.562a1.7,1.7,0,0,0-.3-.675,10.586,10.586,0,0,0-4.053-4.168,10.955,10.955,0,0,0-6.87-.445c-1.985.42-3.839,1.129-5.766,1.647a5.766,5.766,0,0,1-3.534.058,5.115,5.115,0,0,1-2.158-2.29c-.717-1.227-1.334-2.471-1.936-3.781a29.959,29.959,0,0,0-4.333-7.3,4.942,4.942,0,0,0-2.166-1.582,5.379,5.379,0,0,0-2.3-.14,10.593,10.593,0,0,0-5.667,2.405,17.6,17.6,0,0,1,3.46-1.087,6.92,6.92,0,0,1,3.624.255c3.138,1.227,3.55,4.737,3.921,7.249a14.275,14.275,0,0,0,1.2,4.514,6.87,6.87,0,0,0,5.148,3.443c2.274.321,4.555-.362,6.771-.89,2.9-.7,5.956-.89,8.3.972a21.055,21.055,0,0,1,2.784,2.974,2.175,2.175,0,0,0,1.03.824,2.554,2.554,0,0,0,2.241-.881,1.54,1.54,0,0,0,.634-1Z" fill="url(#radial-gradient-19)"/>
    </g>
    <path id="Path_4165" data-name="Path 4165" d="M49.812,261.226c-.206,1.961-.47,3.921-.766,5.873-.618,4.119-1.392,8.18-2.29,12.208q-.7,3.163-1.507,6.326c-.189.741-.379,1.474-.577,2.216h0l-.165.61a.239.239,0,0,0,0,.074c-.058.181-.107.371-.157.552-1.532,5.676-3.295,11.294-5.239,16.854q-1.647,4.794-3.493,9.514-.939,2.471-1.928,4.942c-3.336,8.237-6.491,16.64-10.915,24.4q-3.715,6.516-7.027,13.246-1.961,3.962-3.781,8.015c-.453.988-.89,1.985-1.326,2.982s-.972,2.216-1.45,3.295h0c-.206.461-.4.923-.6,1.392-.14.321-.272.651-.412.98-.741,1.8-1.458,3.6-2.109,5.428-.074.206-.148.4-.214.618-.181.535-.371,1.079-.552,1.647l-.132.4-.362,1.063H0V322.991c.387-1.557.824-3.122,1.2-4.679.568-2.158,1.178-4.292,1.829-6.425q2.545-8.419,5.906-16.549l2.076,7.859.964-14.745q2.471-5.214,5.223-10.247,2.718-4.942,5.766-9.621,3.888-6.013,8.336-11.656a155.214,155.214,0,0,1,11.8-13.46l.626-.626q1.31-1.318,2.661-2.611l1.788-1.689c.6-.56,1.211-1.112,1.82-1.647.049.42.091.824.132,1.26A109.847,109.847,0,0,1,49.812,261.226Z" fill="url(#radial-gradient-20)"/>
    <path id="Path_4166" data-name="Path 4166" d="M102.573,255.921c-.132.272-4.119,8.13-10.445,19.852-3.97,7.331-8.872,16.178-14.366,25.618h0c-2.471,4.209-5.008,8.542-7.669,12.908-1.82,3.015-3.7,6.055-5.6,9.061q-1.722,2.743-3.476,5.478c-2.315,3.6-4.662,7.167-7.027,10.643-.988,1.433-1.961,2.867-2.949,4.275-2.076,2.965-4.119,5.865-6.228,8.658h0c-1.524,2.051-3.056,4.045-4.572,5.972-.824,1.1-1.73,2.175-2.595,3.221h0q-1.483,1.82-2.949,3.517c-1.178,1.359-2.339,2.669-3.5,3.921a100.5,100.5,0,0,1-7.809,7.653,39.938,39.938,0,0,1-10.89,7.109H2.85l-.222-.115q-.559-.3-1.087-.651l-.329-.264c-.173-.132-.329-.272-.494-.42l.2-.3c.478-.708.964-1.417,1.433-2.125h0c.058-.082.107-.165.157-.247s.255-.354.371-.544l2.414-3.517h0l.387-.568c.61-.89,1.227-1.771,1.837-2.652l.049-.074h0l1.392-1.993c1-1.433,1.985-2.85,2.982-4.259C20.429,354,28.724,342.793,36.648,332.513h0c9.061-11.78,17.57-22.348,25.305-31.591l-.741,8.723,5.239-14.053,3.138-3.674,1.746-2.026.412-.47h0l2.389-2.743.906-1.038,1.211-1.45q1.647-1.853,3.171-3.583l2.175-2.471.148-.165c.074-.091.157-.181.239-.264.371-.42.75-.824,1.12-1.244l1.895-2.1,1.475-1.647,3.666-3.97c.577-.618,1.129-1.2,1.647-1.779l.371-.387h0l.231-.239.947-1,.568-.593,1.079-1.137c.181-.2.371-.387.552-.577.486-.519.956-1,1.4-1.466,1.1-1.137,2.043-2.109,2.825-2.908l.321-.321.577-.585.47-.478.255-.255.56-.552.148-.148.231-.231.091-.091.074-.074Z" fill="url(#radial-gradient-21)"/>
    <path id="Path_4167" data-name="Path 4167" d="M184.231,285.3a12.136,12.136,0,0,0-.931,1.021,43.727,43.727,0,0,1-3.213,5.107,71.782,71.782,0,0,1-13.04,13.353l-.428.346c-2.3,1.862-4.646,3.657-6.977,5.42-3.155,2.4-6.277,4.745-9.177,7.175l.222-.906,1.647-6.631-7.85,12.439-.346.272-1.895,1.5q-2.587,2.026-5.165,3.979-8.106,6.129-16.17,11.532-4.259,2.85-8.476,5.511h0q-1.647,1.063-3.295,2.084-4.424,2.718-8.781,5.231T91.839,357.5q-3.41,1.853-6.755,3.567c-6.4,3.295-12.644,6.269-18.65,8.938l-2.545,1.12c-9.967,4.333-19.267,7.859-27.62,10.709-2.15.733-4.242,1.417-6.26,2.059H5.33c.824-.626,1.647-1.269,2.471-1.944,6.417-4.992,15.025-11.45,25.536-18.773h0q3.295-2.3,6.862-4.7c6.911-4.687,14.506-9.646,22.735-14.753L64.31,353.93l.552,4.119,1.45-4.662h0l1.483-4.761,3.048-9.778c6.672-4.012,13.715-8.089,21.088-12.159,8.139-4.506,16.681-9,25.594-13.4q8.509-4.226,17.463-8.3,7.027-3.213,14.308-6.285,4.275-1.82,8.641-3.575c2.257-.914,4.522-1.812,6.812-2.694,1-.4,1.993-.774,3-1.161l1.112-.42q3.987-1.507,8.056-2.974c2.414-.873,4.852-1.73,7.3-2.57Z" fill="url(#radial-gradient-22)"/>
    <path id="Path_4168" data-name="Path 4168" d="M49.968,236.876l-.741,1.458c-.89,1.755-1.738,3.493-2.554,5.231h0c-.931,1.961-1.812,3.9-2.661,5.832h0c-1.647,3.8-3.2,7.537-4.621,11.252q-1.606,4.218-3.031,8.345-1.491,4.3-2.825,8.493-1.409,4.374-2.661,8.633c-2.867,9.6-5.338,18.724-8.048,27.274-3.163,10.083-5.964,19.564-8.3,28.114h0c-3.295,11.985-6.854,29.91-6.977,30.264L0,383.865V322.991c.387-1.557.824-3.122,1.2-4.679.568-2.158,1.178-4.292,1.829-6.425q2.545-8.419,5.906-16.549l2.076,7.859.964-14.745q2.471-5.214,5.223-10.247,2.718-4.942,5.766-9.621,3.888-6.013,8.336-11.656a155.214,155.214,0,0,1,11.8-13.46l.626-.626q1.31-1.318,2.661-2.611l1.788-1.689C48.749,237.98,49.359,237.428,49.968,236.876Z" fill="url(#linear-gradient)"/>
    <path id="Path_4169" data-name="Path 4169" d="M102.573,255.921,102.5,256l-.074.074-.091.091-.231.231-.148.148-.56.552-.255.255-.47.478-.577.585-.321.321c-.824.824-1.73,1.771-2.825,2.908-.445.461-.914.947-1.4,1.466-.181.189-.371.379-.552.577-.354.362-.717.741-1.079,1.137l-.568.593-.947,1-.231.239h0l-.371.387c-.527.577-1.079,1.161-1.647,1.779L86.493,272.8l-1.475,1.647-1.895,2.1c-.371.4-.75.824-1.12,1.244-.082.082-.165.173-.239.264l-.148.165-2.175,2.471q-1.54,1.73-3.171,3.583l-1.2,1.367-.931.964-2.389,2.743h0l-.412.47-1.746,2.026-3.138,3.674-5.239,14.053.741-8.723c-7.735,9.242-16.261,19.77-25.305,31.591h0c-7.9,10.28-16.195,21.483-24.712,33.568-1,1.409-1.985,2.825-2.982,4.259l-1.376,2.068h0l-.049.074c-.61.881-1.227,1.763-1.837,2.652l-.387.568h0l-2.422,3.493c-.115.189-.239.362-.371.544a2.641,2.641,0,0,0-.157.247h0c-.47.708-.956,1.417-1.433,2.125l-.2.3a2.7,2.7,0,0,1-.527-.675h0a2.889,2.889,0,0,1-.181-.4v-6.318a33,33,0,0,1,.824-3.336c2.1-7.537,6.887-18.188,13.74-30.067h0a271.832,271.832,0,0,1,17.884-27.118l1.516-1.993q2.471-3.246,5.115-6.483c.725-.89,1.458-1.771,2.2-2.652,3.526-4.209,7.216-8.336,11.046-12.307h0l.115-.115c2.735-2.867,5.593-5.643,8.5-8.328q4.819-4.456,9.885-8.452V283.4l1.647-4.942,2.471-7.513A118.4,118.4,0,0,1,92.2,260.3a85.812,85.812,0,0,1,10.371-4.382Z" fill="url(#linear-gradient-2)"/>
    <path id="Path_4170" data-name="Path 4170" d="M184.2,285.312c-2.471.824-4.885,1.7-7.3,2.57q-4.069,1.458-8.056,2.974l-1.112.42c-1,.387-2,.766-3,1.161-2.29.881-4.555,1.779-6.812,2.694q-4.358,1.755-8.641,3.575-7.274,3.081-14.308,6.285-8.946,4.069-17.463,8.3c-8.913,4.4-17.455,8.9-25.594,13.4-7.414,4.069-14.416,8.147-21.088,12.158l-3.031,9.77-1.483,4.77h0l-1.425,4.6-.552-4.119L62.959,343.65c-8.237,5.107-15.824,10.066-22.735,14.753q-3.559,2.4-6.862,4.7h0C22.834,370.43,14.226,376.888,7.826,381.88c-.865.675-1.7,1.318-2.471,1.944H.914c.2-.272.412-.552.626-.824,1.384-1.812,2.8-3.616,4.242-5.4h0c.824-.956,1.565-1.911,2.364-2.858l.371-.445.824-.931h0l.593-.692c1.647-1.961,3.4-3.9,5.14-5.816l.082-.1h0A313.449,313.449,0,0,1,40.833,341.8l.156-.14c2.29-1.985,4.613-3.929,6.944-5.832q8.015-6.524,16.524-12.406,2.595-1.8,5.231-3.5c1.73-1.145,3.476-2.249,5.239-3.336q8.32-5.115,17.043-9.514,8.526-4.3,17.4-7.826,7.521-2.99,15.256-5.387c6.195-1.911,12.472-3.534,18.831-4.827h.181c4.761-.964,9.6-1.763,14.506-2.356,3.295-.4,6.664-.717,10.008-.923.972-.066,1.952-.124,2.924-.165s1.771-.066,2.652-.091h1.557c2.57-.041,5.14,0,7.686.074A8.754,8.754,0,0,0,184.2,285.312Z" fill="url(#linear-gradient-3)"/>
    <path id="Path_4171" data-name="Path 4171" d="M0,381.831l.091-.091L0,381.847Z" fill="#007a49"/>
    <path id="Path_4172" data-name="Path 4172" d="M2.471,379.195c-.766.824-1.516,1.647-2.257,2.471h0a.354.354,0,0,0-.1.091l.091-.107C.923,380.818,1.647,380,2.471,379.195Z" fill="#007a49"/>
    <path id="Path_4173" data-name="Path 4173" d="M207.032,355.306s-8.419,3.163-21.912,7.842c-6.8,2.356-14.885,5.1-23.831,8.015l-4.432,1.433-15.322-4.028,3.987,2.068,6.228,3.221.437.231-.6.189c-4.992,1.582-10.165,3.2-15.495,4.8l-2.29.684-4.728,1.409c-3.04.89-6.12,1.788-9.218,2.661H0s2.776-5.989,4.185-6.771c22.439-12.521,47.349-19.951,72.49-25.24,19.136-4.012,38.156-7.414,57.712-7.982s39.087,1.1,57.909,6.236A105.751,105.751,0,0,1,207,355.3Z" fill="url(#radial-gradient-23)"/>
    <path id="Path_4174" data-name="Path 4174" d="M207.007,355.3c-1.738-.758-4.415-.667-6.269-.89-6.821-.824-13.608-1.54-20.487-1.705-7-.165-14-.049-21.006.222-13.839.535-27.653,1.45-41.41,3.056s-27.307,3.773-40.808,6.532q-5.264,1.079-10.5,2.265a557.378,557.378,0,0,0-61.369,18.04l-1.351.478-1.178.42-.321.148H0v-2.471a5.478,5.478,0,0,1,2.224-3.732,98.306,98.306,0,0,1,9.209-5.33,172.156,172.156,0,0,1,20.025-8.427,342.055,342.055,0,0,1,92.449-19.383c25.363-1.722,51.468-.544,75.644,7.933A75.714,75.714,0,0,1,207.007,355.3Z" fill="url(#linear-gradient-4)"/>
  </g>
</svg>
