<svg xmlns="http://www.w3.org/2000/svg" xmlns:xlink="http://www.w3.org/1999/xlink" width="42" height="50" viewBox="0 0 42 50">
  <defs>
    <filter id="Icon_awesome-map-marker" x="0" y="0" width="42" height="50" filterUnits="userSpaceOnUse">
      <feOffset dy="3" input="SourceAlpha"/>
      <feGaussianBlur stdDeviation="3" result="blur"/>
      <feFlood flood-opacity="0.161"/>
      <feComposite operator="in" in2="blur"/>
      <feComposite in="SourceGraphic"/>
    </filter>
  </defs>
  <g id="Pin-_Projects_Page" data-name="Pin- Projects Page" transform="translate(9 6)">
    <g transform="matrix(1, 0, 0, 1, -9, -6)" filter="url(#Icon_awesome-map-marker)">
      <path id="Icon_awesome-map-marker-2" data-name="Icon awesome-map-marker" d="M10.767,31.354C1.686,18.189,0,16.838,0,12a12,12,0,0,1,24,0c0,4.838-1.686,6.189-10.767,19.354a1.5,1.5,0,0,1-2.467,0Z" transform="translate(9 6)" fill="#d0e1b0"/>
    </g>
    <path id="Path_3783" data-name="Path 3783" d="M102.021,14V9.743a6.452,6.452,0,0,0,4.042-1.584,6.741,6.741,0,0,0,1.62-4.713.7.7,0,0,0-.665-.656,6.977,6.977,0,0,0-4.781,1.6,4.507,4.507,0,0,0-.5.589,6.489,6.489,0,0,0-1.653-3.064C97.974-.165,94.505,0,94.359.006a.7.7,0,0,0-.665.656c-.008.145-.174,3.564,1.934,5.642a7.817,7.817,0,0,0,4.983,1.9V14a6.359,6.359,0,0,1,1.41,0Z" transform="translate(-89.188 6)" fill="#fff"/>
  </g>
</svg>
