<svg xmlns="http://www.w3.org/2000/svg" xmlns:xlink="http://www.w3.org/1999/xlink" width="42" height="50" viewBox="0 0 42 50">
  <defs>
    <filter id="Icon_awesome-map-marker" x="0" y="0" width="42" height="50" filterUnits="userSpaceOnUse">
      <feOffset dy="3" input="SourceAlpha"/>
      <feGaussianBlur stdDeviation="3" result="blur"/>
      <feFlood flood-opacity="0.161"/>
      <feComposite operator="in" in2="blur"/>
      <feComposite in="SourceGraphic"/>
    </filter>
  </defs>
  <g id="Pin-_Projects_Page" data-name="Pin- Projects Page" transform="translate(9 6)">
    <g transform="matrix(1, 0, 0, 1, -9, -6)" filter="url(#Icon_awesome-map-marker)">
      <path id="Icon_awesome-map-marker-2" data-name="Icon awesome-map-marker" d="M10.767,31.354C1.686,18.189,0,16.838,0,12a12,12,0,0,1,24,0c0,4.838-1.686,6.189-10.767,19.354a1.5,1.5,0,0,1-2.467,0Z" transform="translate(9 6)" fill="#89b53a"/>
    </g>
    <g id="shovel" transform="matrix(-0.985, 0.174, -0.174, -0.985, 35.181, 14.403)">
      <g id="Group_2590" data-name="Group 2590" transform="translate(10.001 0)">
        <g id="Group_2588" data-name="Group 2588" transform="translate(4.221 0)">
          <path id="Path_3917" data-name="Path 3917" d="M223.986,10.8l-6.026-6.026a.617.617,0,0,1,0-.872l2.745-2.745C222.288-.43,226.6.014,228.019.21a.617.617,0,0,1,.527.527c.2,1.416.641,5.731-.942,7.313L224.859,10.8A.617.617,0,0,1,223.986,10.8Z" transform="translate(-215.257 0)" fill="#fff"/>
        </g>
        <g id="Group_2589" data-name="Group 2589" transform="translate(0 5.674)">
          <path id="Path_3919" data-name="Path 3919" d="M13.579,132.645l-.2-.2a1.373,1.373,0,0,1,0-1.942L19.5,124.08a1.373,1.373,0,0,1,1.942,0l.2.2a1.373,1.373,0,0,1,0,1.942l-6.124,6.42a1.373,1.373,0,0,1-1.942,0Z" transform="translate(-10.001 -123.678)" fill="rgba(255,255,255,0.62)"/>
        </g>
      </g>
    </g>
  </g>
</svg>
