<svg xmlns="http://www.w3.org/2000/svg" xmlns:xlink="http://www.w3.org/1999/xlink" width="42" height="50" viewBox="0 0 42 50">
  <defs>
    <filter id="Icon_awesome-map-marker" x="0" y="0" width="42" height="50" filterUnits="userSpaceOnUse">
      <feOffset dy="3" input="SourceAlpha"/>
      <feGaussianBlur stdDeviation="3" result="blur"/>
      <feFlood flood-opacity="0.161"/>
      <feComposite operator="in" in2="blur"/>
      <feComposite in="SourceGraphic"/>
    </filter>
  </defs>
  <g id="Pin-_Projects_Page" data-name="Pin- Projects Page" transform="translate(9 6)">
    <g transform="matrix(1, 0, 0, 1, -9, -6)" filter="url(#Icon_awesome-map-marker)">
      <path id="Icon_awesome-map-marker-2" data-name="Icon awesome-map-marker" d="M10.767,31.354C1.686,18.189,0,16.838,0,12a12,12,0,0,1,24,0c0,4.838-1.686,6.189-10.767,19.354a1.5,1.5,0,0,1-2.467,0Z" transform="translate(9 6)" fill="#d0e1b0"/>
    </g>
    <g id="water" transform="translate(2 -53.563)">
      <g id="Group_2587" data-name="Group 2587" transform="translate(0 57.569)">
        <g id="Group_2586" data-name="Group 2586" transform="translate(0 0)">
          <path id="Path_3913" data-name="Path 3913" d="M20.714,300.342h0a3.787,3.787,0,0,1-.843-.889,3.272,3.272,0,0,0-2.6-1.556,3.2,3.2,0,0,0-2.6,1.584c-.587.75-.97,1.2-1.839,1.2s-1.3-.528-1.839-1.2a3.281,3.281,0,0,0-2.6-1.584,3.165,3.165,0,0,0-2.6,1.584c-.587.75-.97,1.2-1.839,1.2s-1.3-.528-1.839-1.2A4.473,4.473,0,0,0,.743,298.2a.5.5,0,0,0-.69.25.583.583,0,0,0,.23.75,4.056,4.056,0,0,1,1.047,1,3.2,3.2,0,0,0,2.6,1.584,3.2,3.2,0,0,0,2.6-1.584c.587-.75.97-1.2,1.839-1.2s1.3.528,1.839,1.2a3.281,3.281,0,0,0,2.6,1.584,3.165,3.165,0,0,0,2.6-1.584c.587-.75.97-1.2,1.839-1.2s1.3.528,1.839,1.2a5.081,5.081,0,0,0,1.047,1.084.493.493,0,0,0,.715-.167A.593.593,0,0,0,20.714,300.342Z" transform="translate(-1 -286.365)" fill="#fff"/>
          <path id="Path_3914" data-name="Path 3914" d="M20.895,222h0a3.821,3.821,0,0,1-.85-.9,3.3,3.3,0,0,0-2.628-1.57,3.231,3.231,0,0,0-2.628,1.6c-.592.757-.979,1.206-1.855,1.206s-1.314-.533-1.855-1.206a3.31,3.31,0,0,0-2.628-1.6,3.193,3.193,0,0,0-2.628,1.6c-.592.757-.979,1.206-1.855,1.206s-1.314-.533-1.855-1.206a4.512,4.512,0,0,0-1.365-1.29.5.5,0,0,0-.7.252.588.588,0,0,0,.232.757,4.092,4.092,0,0,1,1.056,1.009,3.231,3.231,0,0,0,2.628,1.6,3.231,3.231,0,0,0,2.628-1.6c.592-.757.979-1.206,1.855-1.206s1.314.533,1.855,1.206a3.31,3.31,0,0,0,2.628,1.6,3.193,3.193,0,0,0,2.628-1.6c.592-.757.979-1.206,1.855-1.206s1.314.533,1.855,1.206a5.127,5.127,0,0,0,1.056,1.093.5.5,0,0,0,.721-.168A.6.6,0,0,0,20.895,222Z" transform="translate(0 -211.757)" fill="#fff"/>
          <path id="Path_3915" data-name="Path 3915" d="M20.895,138.4h0a3.82,3.82,0,0,1-.85-.9,3.3,3.3,0,0,0-2.628-1.57,3.231,3.231,0,0,0-2.628,1.6c-.593.757-.979,1.206-1.855,1.206s-1.314-.533-1.855-1.206a3.31,3.31,0,0,0-2.628-1.6,3.193,3.193,0,0,0-2.628,1.6c-.592.757-.979,1.206-1.855,1.206s-1.314-.533-1.855-1.206a4.512,4.512,0,0,0-1.365-1.29.5.5,0,0,0-.7.252.588.588,0,0,0,.232.757,4.092,4.092,0,0,1,1.056,1.009,3.231,3.231,0,0,0,2.628,1.6,3.231,3.231,0,0,0,2.628-1.6c.592-.757.979-1.206,1.855-1.206s1.314.533,1.855,1.206a3.31,3.31,0,0,0,2.628,1.6,3.193,3.193,0,0,0,2.628-1.6c.593-.757.979-1.206,1.855-1.206s1.314.533,1.855,1.206a5.127,5.127,0,0,0,1.056,1.093.5.5,0,0,0,.721-.168A.6.6,0,0,0,20.895,138.4Z" transform="translate(0 -132.176)" fill="#fff"/>
          <path id="Path_3916" data-name="Path 3916" d="M.272,58.821a3.889,3.889,0,0,1,1,.959,3.07,3.07,0,0,0,2.5,1.519,3.07,3.07,0,0,0,2.5-1.519c.563-.719.93-1.146,1.763-1.146s1.248.506,1.763,1.146a3.145,3.145,0,0,0,2.5,1.519,3.034,3.034,0,0,0,2.5-1.519c.563-.719.93-1.146,1.763-1.146s1.248.506,1.763,1.146a4.873,4.873,0,0,0,1,1.039.472.472,0,0,0,.685-.16.569.569,0,0,0-.147-.746h0a3.631,3.631,0,0,1-.808-.853,3.137,3.137,0,0,0-2.5-1.492,3.07,3.07,0,0,0-2.5,1.519c-.563.719-.93,1.146-1.763,1.146s-1.248-.506-1.763-1.146a3.145,3.145,0,0,0-2.5-1.519,3.034,3.034,0,0,0-2.5,1.519c-.563.719-.93,1.146-1.763,1.146s-1.248-.506-1.762-1.146a4.288,4.288,0,0,0-1.3-1.226.475.475,0,0,0-.661.24A.559.559,0,0,0,.272,58.821Z" transform="translate(0.672 -57.374)" fill="#fff"/>
        </g>
      </g>
    </g>
  </g>
</svg>
