<svg xmlns="http://www.w3.org/2000/svg" width="95" height="30" viewBox="0 0 95 30">
  <g id="Group_1933" data-name="Group 1933" transform="translate(-161 -398)">
    <g id="Group_1932" data-name="Group 1932" transform="translate(-69 49)">
      <g id="Group_1928" data-name="Group 1928" transform="translate(230 349)">
        <rect id="Rectangle_3" data-name="Rectangle 3" width="93" height="30" fill="#141619"/>
        <g id="Rectangle_4" data-name="Rectangle 4" transform="translate(56)" fill="#fff" stroke="#141619" stroke-width="1">
          <rect width="39" height="30" stroke="none"/>
          <rect x="0.5" y="0.5" width="38" height="29" fill="none"/>
        </g>
      </g>
      <text id="Demo" transform="translate(259 369)" fill="#fff" font-size="12" font-family="OpenSans-Bold, Open Sans" font-weight="700"><tspan x="-18.234" y="0">DEMO</tspan></text>
    </g>
    <g id="Planet-Logo" transform="translate(223.341 399.684)">
      <path id="Path_3965" data-name="Path 3965" d="M15.879,21.324l-.282.749-1.24-2.046-.567-2.584L16,17.212l.186,1.525Zm-4.1.432-.311.823-1.279-2.113-.567-2.578,2.275-.239.186,1.521ZM23.658,9.074l-.11-1.06a.3.3,0,0,0-.111-.205.307.307,0,0,0-.192-.068l-.032,0-2.038.215a2.184,2.184,0,0,0-.988-.414,2.532,2.532,0,0,0-.594-1.6,2.161,2.161,0,0,0-1.454-.705,3.853,3.853,0,0,0-.657-1.64l-.011-.107.335-.035a.305.305,0,0,0,.271-.335l-.111-1.059a.3.3,0,0,0-.111-.205.306.306,0,0,0-.192-.068l-.032,0-3.176.333a.3.3,0,0,0-.271.335l.048.456-.062.027-.585-.609a.306.306,0,0,0-.22-.093l-.032,0-1.073.112a.307.307,0,0,0-.205.111.3.3,0,0,0-.066.224l.021.2.023.225-.094.005-.254-.507a.3.3,0,0,0-.273-.168l-.032,0-1.122.117A.307.307,0,0,0,10,2.786l-.217.807a2.416,2.416,0,0,0-.71-.123L9.019,3a.3.3,0,0,0-.111-.205.306.306,0,0,0-.192-.068l-.032,0-1.176.124a.306.306,0,0,0-.253.193,1.745,1.745,0,0,0-.582-.093,2.381,2.381,0,0,0-.248.013l-1.384.145a.305.305,0,0,0-.271.335l.322,3.06a2.13,2.13,0,0,0-.882,2.166A2.89,2.89,0,0,0,2.529,9.92L.54,10.128a.305.305,0,0,0-.272.335L.38,11.522a.3.3,0,0,0,.111.205.306.306,0,0,0,.192.068l.032,0,.335-.035.211,2.015a.305.305,0,0,0,.3.273l.032,0,.154-.016A2.428,2.428,0,0,0,1.9,15.864a2.9,2.9,0,0,0,2.639,1.643,3.4,3.4,0,0,0,.39-.023,2.14,2.14,0,0,0,1.865.675c.266,0,.565-.015.934-.046l.182,1.494-.3,2.587-.618,1.638-.646.243a.269.269,0,0,0-.166.32l.19.722a.269.269,0,0,0,.358.182L8.11,24.76a.27.27,0,0,0,.162-.18l.878-3.211,1.265,3.175a.269.269,0,0,0,.347.151l1.9-.734a.269.269,0,0,0,.172-.263l-.048-1.091.526-1.7,1.274,3.2a.269.269,0,0,0,.347.151l1.9-.735A.269.269,0,0,0,17,23.26l-.044-.994.466-1.759,1.262,3.169a.269.269,0,0,0,.25.17.266.266,0,0,0,.1-.018l1.9-.736a.269.269,0,0,0,.172-.263l-.044-.991a.269.269,0,0,0-.269-.257.266.266,0,0,0-.077.011l-.885.263L18.457,19.6,17.9,17.064a3.167,3.167,0,0,0,2.627-1.2,2.894,2.894,0,0,0,2.306-1.936,2.29,2.29,0,0,0-.212-2.09l.37-.039a.305.305,0,0,0,.271-.335l-.211-2.017.334-.035a.305.305,0,0,0,.272-.335Z" transform="translate(0)" fill="#fff"/>
      <path id="Path_3966" data-name="Path 3966" d="M20.4,12.821l-.1.009.078.743.1-.012c.236-.029.5-.1.47-.424-.026-.248-.2-.349-.548-.317Zm.382,4.518.643-.067-.419-.925Zm7.994-2.066.243,2.32-.772.081-.244-2.32-1.469.156.052.5.871-.091.068.655-.87.092.054.513.918-.1.069.656-1.691.177L25.7,14.936l3.653-.384.068.655ZM24.871,18.03l-1.615-1.684.192,1.833-1.5.158-.247-.5-1.063.112-.152.539-2.364.248-.312-2.975.772-.081L18.824,18l1.023-.108.648-2.414.843-.089,1.3,2.566-.28-2.674.772-.08,1.614,1.679-.191-1.829.771-.082.312,2.975Zm-8.76-3.909a1.468,1.468,0,0,1,.385-1.155,1.746,1.746,0,0,1,2.285-.24,1.469,1.469,0,0,1,.617,1.051,1.589,1.589,0,0,1-1.471,1.811h0a1.6,1.6,0,0,1-1.814-1.467Zm1.4,3.44a1.119,1.119,0,0,1-.751.323l-.44.047.1.986L15.654,19l-.312-2.974,1.182-.125c.7-.073,1.116.234,1.182.865a1.006,1.006,0,0,1-.192.8ZM15.2,15.775l-.772.082-.312-2.974,1.707-.18.069.655-.934.1.053.5.847-.089.069.655-.847.089ZM12.412,19.34,12.1,16.367l1.689-.178.069.655-.918.1.053.5.87-.092.068.655-.869.092.053.512.917-.1.068.655Zm-1.139.12-.127-1.219-1.115.117.128,1.219-.772.081L9.144,17.34,8.56,17.4,8.8,19.719l-.772.081-.243-2.319-.639.067-.069-.655L9.847,16.6l.12,1.146,1.115-.117-.121-1.146.773-.082.311,2.974Zm.309-9.583,1.182-.124a1.191,1.191,0,0,1,.8.152.926.926,0,0,1,.378.714,1,1,0,0,1-.193.8,1.125,1.125,0,0,1-.753.323l-.438.046.1.986-.772.081Zm3.239-.34.243,2.32,1.024-.107.648-2.414.844-.088L19.01,12.1l-.824.086-.247-.5-1.063.113-.151.538-2.364.249-.312-2.975Zm5.73,5.675-.773.081-.312-2.973,1.155-.122a1.166,1.166,0,0,1,.76.142.862.862,0,0,1,.369.665.807.807,0,0,1-.428.857l-.125.06,1.052,1.11-.962.1-.857-1.076Zm-.978-6.175,1.614,1.68L21,8.887,23.718,8.6l.069.655-.638.067.243,2.32-.772.082L22.376,9.4l-.54.056.244,2.319-.772.081-1.615-1.683.191,1.832-.771.075L18.8,9.118Zm10.068,6.351-.021-.2-.068-.655-.021-.2-2.144.226a2.1,2.1,0,0,0-1.232-.458,1.976,1.976,0,0,0-2-2.286,3.627,3.627,0,0,0-.683-1.815l-.052-.5.638-.067-.021-.2-.09-.857-3.176.333.021.2.051.482a4.431,4.431,0,0,0-.456.2l-.737-.768-1.073.112.021.2.058.569a2.645,2.645,0,0,0-.611.017l-.348-.7-1.122.117-.036.135-.276,1.029a1.944,1.944,0,0,0-1.183-.251L15,9.313l-1.176.124.021.2.028.27a.969.969,0,0,0-.194-.174,1.385,1.385,0,0,0-.938-.185L11.359,9.7l.021.2.318,3.028a1.928,1.928,0,0,0-.837,2.253,2.779,2.779,0,0,0-1.884,1.313l-.125.013h0l-1.994.209.021.2.069.655.021.2.638-.067.243,2.319.729-.077c-1.039,1.3.308,3.94,2.815,3.484.262.745,1.379.766,2.653.655l-.035-.286L9.629,21.474l.492-1.093,1.037.422-.09-.327.471-.11.363.889,2.239,1.635L14.08,22l.934-.1.26.878.669-.606L13.8,21.035l.49-1.091,1.038.421-.09-.327.471-.11.364.89.758.554.384-.348.057-1.267.825.058-.022.512.7-.893.642.434-.072-.261.471-.11.364.89.792.579.418-.379.059-1.268.825.057-.023.511.729-.937.712,1.242-1.134.917.735-.078.26.88,1.938-1.756.058-1.267.823.058-.023.511.729-.937.712,1.24L24,22.818l.052.235c1.049-.1,2.119-.271,2.57-1.2a2.466,2.466,0,0,0,1.941-3.766c-.156-.19-.246-.215-.246-.215l.926-.1L29,15.454l.436-.046ZM16.7,16.561a.979.979,0,0,0-.393-.008h0l-.131.013.078.742.131-.013c.273-.029.554-.059.517-.422-.018-.172-.081-.271-.2-.312Zm-4.076-5.413c.273-.03.555-.061.517-.422-.04-.378-.3-.351-.6-.32l-.13.013.078.742Zm4.621-.949-.224.992.643-.067Zm1.345,3.665a.84.84,0,0,0-.922-.7.862.862,0,0,0-.568.3.769.769,0,0,0-.189.572.912.912,0,0,0,.313.61.819.819,0,0,0,.518.193s.051,0,.1-.005.1-.016.1-.016a.855.855,0,0,0,.646-.959ZM21.083,22.3l-1.181.954.048.219,2.365-.249-.035-.289Zm-4.137.412-1.212.981.048.219,2.433-.256-.035-.29Zm1.947-1.574-.513.414.8-.084.26.879.638-.578Zm-1.135.917.551.4-.056-.8Zm4.652-.029-.052-.757-.467.378Zm.328,3.01-.309,2.64,0,.012-.412,1.093-.16.048-1.463-2.413,0-.016-.708-3.225,1.382-1.117,1.409.748.27,2.218Zm-3.4-2.322-.3-1.027-.573.06.078,1.131-1.117-.815,1.445-1.168,1.562.83Zm-.7,2.754-.31,2.639-.443,1.171-.166.051-1.5-2.475-.713-3.241,1.414-1.144,1.445.767.271,2.22Zm7.35,2.991-1.5-2.473-.712-3.242,3.742-3.027-.475-.828-.935,1.2.043-.95-.419-.03-.053,1.144-2.24,2.03-.3-1.027-.573.061.078,1.13-1.085-.792,1.863-1.507-.476-.829-.935,1.2.043-.95-.42-.029-.053,1.145-.6.546L20,20.517l-.32-.783-.1.023.163.588-.941-.636-.969,1.245.041-.95-.42-.03-.051,1.143-.569.515-.938-.685-.32-.783-.1.022.144.52-1.238-.5-.332.739,2.232,1.185-1.122,1.017-.3-1.026-.572.06.078,1.131-2.637-1.926-.32-.782-.1.023.143.521-1.238-.5-.334.741L14.2,23.67l.27,2.218L14.16,28.54l-.672,1.782-.761.286.19.722,1.381-.538,1.09-3.987,1.562,3.922,1.9-.734-.05-1.138.765-2.473,1.556,3.906,1.9-.735-.046-1.035,0-.015.681-2.571,1.564,3.926,1.9-.736-.044-.991Z" transform="translate(-6.286 -6.282)" fill="#688716"/>
    </g>
  </g>
</svg>
