<?xml version="1.0" encoding="UTF-8" standalone="no"?>
<svg
   xmlns:dc="http://purl.org/dc/elements/1.1/"
   xmlns:cc="http://creativecommons.org/ns#"
   xmlns:rdf="http://www.w3.org/1999/02/22-rdf-syntax-ns#"
   xmlns:svg="http://www.w3.org/2000/svg"
   xmlns="http://www.w3.org/2000/svg"
   viewBox="0 0 690.08002 256.29333"
   height="256.29333"
   width="690.08002"
   xml:space="preserve"
   id="svg2"
   version="1.1"><metadata
     id="metadata8"><rdf:RDF><cc:Work
         rdf:about=""><dc:format>image/svg+xml</dc:format><dc:type
           rdf:resource="http://purl.org/dc/dcmitype/StillImage" /></cc:Work></rdf:RDF></metadata><defs
     id="defs6" /><g
     transform="matrix(1.3333333,0,0,-1.3333333,0,256.29333)"
     id="g10"><g
       transform="scale(0.1)"
       id="g12"><path
         id="path14"
         style="fill:#f68712;fill-opacity:1;fill-rule:nonzero;stroke:none"
         d="m 2404.39,682.41 c 0,-36.961 -17.28,-69.121 -64.09,-69.121 -46.79,0 -64.08,32.16 -64.08,69.121 v 105.129 h 20.17 V 685.301 c 0,-27.371 10.07,-53.289 43.91,-53.289 33.85,0 43.93,25.918 43.93,53.289 v 102.238 h 20.16 V 682.41" /><path
         id="path16"
         style="fill:#f68712;fill-opacity:1;fill-rule:nonzero;stroke:none"
         d="m 2444.22,799.059 h 18.72 v -181.45 h -18.72 v 181.45" /><path
         id="path18"
         style="fill:#f68712;fill-opacity:1;fill-rule:nonzero;stroke:none"
         d="m 2500.14,703.289 c 0,10.332 -0.97,19.211 -0.97,26.652 h 17.76 c 0,-6 0.48,-12.242 0.48,-18.48 h 0.49 c 5.04,11.039 18.96,21.348 37.44,21.348 24.24,0 31.93,-13.668 35.52,-21.348 8.16,13.199 18.49,21.348 35.53,21.348 32.15,0 42.72,-17.989 42.72,-47.039 v -68.161 h -18.72 v 67.211 c 0,15.59 -5.53,30.719 -27.36,30.719 -15.84,0 -29.05,-12.961 -29.05,-33.129 v -64.801 h -18.72 v 63.602 c 0,24.73 -6.24,34.328 -21.6,34.328 -24.25,0 -34.8,-17.519 -34.8,-43.199 v -54.731 h -18.72 v 85.68" /><path
         id="path20"
         style="fill:#f68712;fill-opacity:1;fill-rule:nonzero;stroke:none"
         d="m 2788.87,683.859 c -0.73,18.95 -13.21,31.68 -33.85,31.68 -20.64,0 -34.32,-12.73 -36.72,-31.68 z m 16.07,-45.847 c -13.19,-17.043 -29.04,-23.282 -49.92,-23.282 -35.28,0 -56.89,26.411 -56.89,59.04 0,34.808 24.49,59.039 57.61,59.039 31.68,0 53.28,-21.598 53.28,-58.789 v -6.008 h -90.72 c 1.44,-19.434 16.32,-36 36.72,-36 16.08,0 26.88,5.769 35.76,17.047 l 14.16,-11.047" /><path
         id="path22"
         style="fill:#f68712;fill-opacity:1;fill-rule:nonzero;stroke:none"
         d="m 2838.06,703.289 c 0,10.332 -0.97,19.211 -0.97,26.652 h 17.76 c 0,-6 0.48,-12.242 0.48,-18.48 h 0.49 c 5.04,11.039 18.96,21.348 37.44,21.348 2.4,0 5.04,-0.231 7.68,-1.188 l -1.2,-18.961 c -3.12,0.961 -6.72,1.43 -10.08,1.43 -22.8,0 -32.88,-16.07 -32.88,-41.75 v -54.731 h -18.72 v 85.68" /><path
         id="path24"
         style="fill:#f68712;fill-opacity:1;fill-rule:nonzero;stroke:none"
         d="m 2992.62,787.539 h 20.15 v -169.93 h -20.15 v 169.93" /><path
         id="path26"
         style="fill:#f68712;fill-opacity:1;fill-rule:nonzero;stroke:none"
         d="m 3051.65,703.289 c 0,10.332 -0.97,19.211 -0.97,26.652 h 17.77 c 0,-6 0.48,-12.242 0.48,-18.48 h 0.48 c 5.04,11.039 18.96,21.348 37.45,21.348 29.52,0 42.72,-18.719 42.72,-45.829 v -69.371 h -18.72 v 67.442 c 0,18.73 -8.16,30.488 -25.68,30.488 -24.25,0 -34.81,-17.519 -34.81,-43.199 v -54.731 h -18.72 v 85.68" /><path
         id="path28"
         style="fill:#f68712;fill-opacity:1;fill-rule:nonzero;stroke:none"
         d="m 3186.78,729.941 h 18.72 V 617.609 h -18.72 z m 9.35,57.598 c 7.69,0 13.68,-6.238 13.68,-13.68 0,-7.918 -5.76,-13.679 -13.68,-13.679 -7.92,0 -13.68,5.761 -13.68,13.679 0,7.442 6.01,13.68 13.68,13.68" /><path
         id="path30"
         style="fill:#f68712;fill-opacity:1;fill-rule:nonzero;stroke:none"
         d="m 3304.14,714.09 h -33.12 v -56.16 c 0,-14.399 0.24,-25.918 16.79,-25.918 5.53,0 11.53,1.207 16.57,3.84 l 0.72,-17.043 c -6.49,-2.879 -14.89,-4.079 -21.85,-4.079 -26.64,0 -30.96,14.399 -30.96,37.68 v 61.68 h -24.48 v 15.851 h 24.48 v 31.918 h 18.73 v -31.918 h 33.12 V 714.09" /><path
         id="path32"
         style="fill:#f68712;fill-opacity:1;fill-rule:nonzero;stroke:none"
         d="m 3328.85,729.941 h 18.72 V 617.609 h -18.72 z m 9.35,57.598 c 7.69,0 13.68,-6.238 13.68,-13.68 0,-7.918 -5.76,-13.679 -13.68,-13.679 -7.92,0 -13.68,5.761 -13.68,13.679 0,7.442 6.01,13.68 13.68,13.68" /><path
         id="path34"
         style="fill:#f68712;fill-opacity:1;fill-rule:nonzero;stroke:none"
         d="m 3437.57,671.609 c -23.76,0 -39.12,-6.48 -39.12,-21.597 0,-14.16 10.55,-19.442 24.71,-19.442 21.61,0 32.65,15.602 33.13,33.852 v 7.187 z m -54.25,43.93 c 11.52,11.762 28.33,17.27 44.65,17.27 33.12,0 47.04,-15.829 47.04,-47.508 v -48.25 c 0,-6.481 0.72,-13.68 1.68,-19.442 h -18 c -1.2,5.039 -1.2,12 -1.2,16.801 h -0.48 c -7.44,-11.519 -19.92,-19.68 -36.96,-19.68 -22.8,0 -41.77,11.52 -41.77,33.36 0,37.211 43.2,39.359 70.81,39.359 h 7.2 v 3.36 c 0,16.332 -10.32,24.73 -27.84,24.73 -12,0 -24.49,-4.078 -33.36,-12.25 l -11.77,12.25" /><path
         id="path36"
         style="fill:#f68712;fill-opacity:1;fill-rule:nonzero;stroke:none"
         d="m 3570.77,714.09 h -33.12 v -56.16 c 0,-14.399 0.24,-25.918 16.79,-25.918 5.53,0 11.53,1.207 16.57,3.84 l 0.72,-17.043 c -6.49,-2.879 -14.88,-4.079 -21.85,-4.079 -26.64,0 -30.95,14.399 -30.95,37.68 v 61.68 h -24.49 v 15.851 h 24.49 v 31.918 h 18.72 v -31.918 h 33.12 V 714.09" /><path
         id="path38"
         style="fill:#f68712;fill-opacity:1;fill-rule:nonzero;stroke:none"
         d="m 3595.49,729.941 h 18.72 V 617.609 h -18.72 z m 9.35,57.598 c 7.69,0 13.69,-6.238 13.69,-13.68 0,-7.918 -5.77,-13.679 -13.69,-13.679 -7.92,0 -13.68,5.761 -13.68,13.679 0,7.442 6.01,13.68 13.68,13.68" /><path
         id="path40"
         style="fill:#f68712;fill-opacity:1;fill-rule:nonzero;stroke:none"
         d="m 3702.53,617.609 h -20.65 l -45.84,112.332 h 21.84 l 35.05,-88.089 h 0.48 l 33.36,88.089 h 20.16 l -44.4,-112.332" /><path
         id="path42"
         style="fill:#f68712;fill-opacity:1;fill-rule:nonzero;stroke:none"
         d="m 3767.08,799.059 h 18.72 V 680.488 l 51.12,49.453 h 26.64 l -54.23,-51.132 59.75,-61.2 h -27.6 l -55.68,59.039 v -59.039 h -18.72 v 181.45" /><path
         id="path44"
         style="fill:#f68712;fill-opacity:1;fill-rule:nonzero;stroke:none"
         d="m 3887.08,703.289 c 0,10.332 -0.97,19.211 -0.97,26.652 h 17.77 c 0,-6 0.48,-12.242 0.48,-18.48 h 0.48 c 5.04,11.039 18.96,21.348 37.45,21.348 2.4,0 5.03,-0.231 7.67,-1.188 l -1.2,-18.961 c -3.12,0.961 -6.72,1.43 -10.08,1.43 -22.8,0 -32.88,-16.07 -32.88,-41.75 v -54.731 h -18.72 v 85.68" /><path
         id="path46"
         style="fill:#f68712;fill-opacity:1;fill-rule:nonzero;stroke:none"
         d="m 4051.48,683.859 c -0.72,18.95 -13.2,31.68 -33.84,31.68 -20.65,0 -34.32,-12.73 -36.72,-31.68 z m 16.08,-45.847 c -13.19,-17.043 -29.04,-23.282 -49.92,-23.282 -35.29,0 -56.89,26.411 -56.89,59.04 0,34.808 24.48,59.039 57.61,59.039 31.68,0 53.28,-21.598 53.28,-58.789 v -6.008 h -90.72 c 1.43,-19.434 16.32,-36 36.72,-36 16.08,0 26.88,5.769 35.76,17.047 l 14.16,-11.047" /><path
         id="path48"
         style="fill:#f68712;fill-opacity:1;fill-rule:nonzero;stroke:none"
         d="m 4102.36,729.941 h 18.72 V 617.609 h -18.72 z m 9.36,57.598 c 7.68,0 13.68,-6.238 13.68,-13.68 0,-7.918 -5.76,-13.679 -13.68,-13.679 -7.92,0 -13.68,5.761 -13.68,13.679 0,7.442 6,13.68 13.68,13.68" /><path
         id="path50"
         style="fill:#f68712;fill-opacity:1;fill-rule:nonzero;stroke:none"
         d="m 4160.68,647.129 c 7.44,-9.117 15.6,-15.117 28.8,-15.117 11.76,0 24.72,5.039 24.72,17.277 0,12 -11.99,15.133 -23.99,17.762 -21.37,4.808 -39.61,9.371 -39.61,32.648 0,21.84 21.12,33.11 42,33.11 15.85,0 30.49,-5.989 38.16,-20.399 l -15.59,-10.32 c -4.81,7.93 -12.73,13.449 -23.76,13.449 -10.33,0 -22.09,-5.039 -22.09,-15.609 0,-9.352 13.44,-13.43 28.33,-16.309 19.92,-3.84 36.72,-11.051 36.72,-33.609 0,-25.442 -22.56,-35.282 -44.89,-35.282 -18.96,0 -32.64,5.04 -43.68,20.879 l 14.88,11.52" /><path
         id="path52"
         style="fill:#f68712;fill-opacity:1;fill-rule:nonzero;stroke:none"
         d="m 2273.58,423.289 c 0,10.332 -0.96,19.211 -0.96,26.652 h 17.76 c 0,-6 0.48,-12.242 0.48,-18.48 h 0.49 c 5.04,11.039 18.95,21.348 37.44,21.348 29.52,0 42.72,-18.719 42.72,-45.829 v -69.371 h -18.72 v 67.442 c 0,18.73 -8.16,30.488 -25.68,30.488 -24.25,0 -34.81,-17.519 -34.81,-43.199 v -54.731 h -18.72 v 85.68" /><path
         id="path54"
         style="fill:#f68712;fill-opacity:1;fill-rule:nonzero;stroke:none"
         d="m 2459.82,391.609 c -23.76,0 -39.12,-6.48 -39.12,-21.597 0,-14.16 10.56,-19.442 24.72,-19.442 21.6,0 32.65,15.602 33.12,33.852 v 7.187 z m -54.24,43.93 c 11.52,11.762 28.33,17.27 44.64,17.27 33.13,0 47.05,-15.829 47.05,-47.508 v -48.25 c 0,-6.481 0.72,-13.68 1.68,-19.442 h -18 c -1.2,5.039 -1.2,12 -1.2,16.801 h -0.48 c -7.44,-11.519 -19.92,-19.68 -36.97,-19.68 -22.8,0 -41.76,11.52 -41.76,33.36 0,37.211 43.2,39.359 70.81,39.359 h 7.19 v 3.36 c 0,16.332 -10.32,24.73 -27.84,24.73 -12,0 -24.48,-4.078 -33.36,-12.25 l -11.76,12.25" /><path
         id="path56"
         style="fill:#f68712;fill-opacity:1;fill-rule:nonzero;stroke:none"
         d="m 2611.5,421.859 c -7.92,9.602 -17.04,13.68 -28.32,13.68 -25.2,0 -37.92,-18.719 -37.92,-41.769 0,-23.04 15.12,-41.758 37.92,-41.758 12.25,0 21.61,4.316 28.57,13.918 l 13.91,-13.2 c -10.8,-12.48 -26.16,-18 -42.48,-18 -34.8,0 -58.08,24.481 -58.08,59.04 0,34.082 23.52,59.039 58.08,59.039 16.57,0 31.93,-5.508 43.21,-17.75 l -14.89,-13.2" /><path
         id="path58"
         style="fill:#f68712;fill-opacity:1;fill-rule:nonzero;stroke:none"
         d="m 2647.27,519.059 h 18.72 V 434.34 h 0.47 c 5.04,8.879 18.49,18.469 36.01,18.469 29.52,0 42.73,-18.719 42.73,-45.829 v -69.371 h -18.73 v 67.442 c 0,18.73 -8.16,30.488 -25.68,30.488 -24.25,0 -34.8,-17.519 -34.8,-43.199 v -54.731 h -18.72 v 181.45" /><path
         id="path60"
         style="fill:#f68712;fill-opacity:1;fill-rule:nonzero;stroke:none"
         d="m 2780.7,519.059 h 18.72 V 434.34 h 0.48 c 5.04,8.879 18.49,18.469 36.01,18.469 29.52,0 42.72,-18.719 42.72,-45.829 v -69.371 h -18.72 v 67.442 c 0,18.73 -8.16,30.488 -25.68,30.488 -24.25,0 -34.81,-17.519 -34.81,-43.199 v -54.731 h -18.72 v 181.45" /><path
         id="path62"
         style="fill:#f68712;fill-opacity:1;fill-rule:nonzero;stroke:none"
         d="m 2966.94,391.609 c -23.76,0 -39.12,-6.48 -39.12,-21.597 0,-14.16 10.56,-19.442 24.72,-19.442 21.6,0 32.65,15.602 33.12,33.852 v 7.187 z m -54.24,43.93 c 11.52,11.762 28.33,17.27 44.64,17.27 33.13,0 47.04,-15.829 47.04,-47.508 v -48.25 c 0,-6.481 0.73,-13.68 1.68,-19.442 h -17.99 c -1.2,5.039 -1.2,12 -1.2,16.801 h -0.48 c -7.44,-11.519 -19.93,-19.68 -36.97,-19.68 -22.8,0 -41.76,11.52 -41.76,33.36 0,37.211 43.2,39.359 70.81,39.359 h 7.19 v 3.36 c 0,16.332 -10.32,24.73 -27.84,24.73 -12,0 -24.48,-4.078 -33.36,-12.25 l -11.76,12.25" /><path
         id="path64"
         style="fill:#f68712;fill-opacity:1;fill-rule:nonzero;stroke:none"
         d="m 3040.38,519.059 h 18.72 v -181.45 h -18.72 v 181.45" /><path
         id="path66"
         style="fill:#f68712;fill-opacity:1;fill-rule:nonzero;stroke:none"
         d="m 3157.74,434.09 h -33.12 v -56.16 c 0,-14.399 0.24,-25.918 16.8,-25.918 5.52,0 11.52,1.207 16.56,3.84 l 0.72,-17.043 c -6.48,-2.879 -14.88,-4.079 -21.84,-4.079 -26.65,0 -30.96,14.399 -30.96,37.68 v 61.68 h -24.48 v 15.851 h 24.48 v 31.918 h 18.72 v -31.918 h 33.12 V 434.09" /><path
         id="path68"
         style="fill:#f68712;fill-opacity:1;fill-rule:nonzero;stroke:none"
         d="m 3182.46,449.941 h 18.72 V 337.609 h -18.72 z m 9.36,57.598 c 7.68,0 13.68,-6.238 13.68,-13.68 0,-7.918 -5.76,-13.679 -13.68,-13.679 -7.92,0 -13.69,5.761 -13.69,13.679 0,7.442 6.01,13.68 13.69,13.68" /><path
         id="path70"
         style="fill:#f68712;fill-opacity:1;fill-rule:nonzero;stroke:none"
         d="m 3291.66,353.449 c 25.68,0 40.09,19.199 40.09,40.801 0,24.25 -16.33,41.289 -40.09,41.289 -23.53,0 -39.6,-18.238 -39.6,-41.769 0,-22.801 17.76,-40.321 39.6,-40.321 z m 58.81,-10.801 c 0,-40.57 -21.85,-62.648 -61.21,-62.648 -21.84,0 -39.36,5.762 -55.21,21.371 l 13.45,15.359 c 11.76,-12.718 24.48,-19.441 41.76,-19.441 33.6,0 42.49,21.602 42.49,45.359 v 14.403 h -0.48 c -8.89,-14.403 -24.73,-20.879 -39.61,-20.879 -35.28,0 -59.77,24.476 -59.77,57.598 0,36.73 24.01,59.039 59.77,59.039 15.13,0 32.17,-7.188 39.61,-22.079 h 0.48 v 19.211 h 18.72 V 342.648" /><path
         id="path72"
         style="fill:#f68712;fill-opacity:1;fill-rule:nonzero;stroke:none"
         d="m 3469.26,403.859 c -0.72,18.95 -13.21,31.68 -33.85,31.68 -20.64,0 -34.32,-12.73 -36.72,-31.68 z m 16.07,-45.847 c -13.19,-17.043 -29.04,-23.282 -49.92,-23.282 -35.28,0 -56.88,26.411 -56.88,59.04 0,34.812 24.48,59.039 57.6,59.039 31.68,0 53.28,-21.598 53.28,-58.789 v -6.008 h -90.72 c 1.44,-19.43 16.32,-36 36.72,-36 16.08,0 26.88,5.769 35.76,17.047 l 14.16,-11.047" /><path
         id="path74"
         style="fill:#f68712;fill-opacity:1;fill-rule:nonzero;stroke:none"
         d="m 2257.26,227.539 h 22.32 l 38.64,-141.1288 h 0.48 l 41.77,141.1288 h 22.56 l 41.52,-141.1288 h 0.49 l 39.35,141.1288 h 21.13 L 2435.6,57.6094 h -21.85 l -42,144.0116 h -0.48 L 2329.02,57.6094 h -22.08 l -49.68,169.9296" /><path
         id="path76"
         style="fill:#f68712;fill-opacity:1;fill-rule:nonzero;stroke:none"
         d="m 2506.39,169.941 h 18.72 V 57.6094 h -18.72 z m 9.35,57.598 c 7.69,0 13.68,-6.238 13.68,-13.68 0,-7.918 -5.76,-13.679 -13.68,-13.679 -7.92,0 -13.68,5.761 -13.68,13.679 0,7.442 6.01,13.68 13.68,13.68" /><path
         id="path78"
         style="fill:#f68712;fill-opacity:1;fill-rule:nonzero;stroke:none"
         d="m 2562.3,143.289 c 0,10.332 -0.96,19.211 -0.96,26.652 h 17.76 c 0,-6 0.48,-12.242 0.48,-18.48 h 0.49 c 5.04,11.039 18.95,21.348 37.44,21.348 2.4,0 5.04,-0.231 7.68,-1.188 l -1.21,-18.961 c -3.11,0.961 -6.71,1.43 -10.07,1.43 -22.81,0 -32.88,-16.07 -32.88,-41.75 V 57.6094 h -18.73 v 85.6796" /><path
         id="path80"
         style="fill:#f68712;fill-opacity:1;fill-rule:nonzero;stroke:none"
         d="M 2708.22,154.09 H 2675.1 V 97.9297 c 0,-14.3984 0.24,-25.918 16.79,-25.918 5.53,0 11.53,1.2071 16.57,3.8399 l 0.72,-17.043 c -6.48,-2.8789 -14.88,-4.0781 -21.85,-4.0781 -26.64,0 -30.95,14.3984 -30.95,37.6797 V 154.09 h -24.49 v 15.851 h 24.49 v 31.918 h 18.72 v -31.918 h 33.12 V 154.09" /><path
         id="path82"
         style="fill:#f68712;fill-opacity:1;fill-rule:nonzero;stroke:none"
         d="m 2733.66,87.1289 c 7.43,-9.1172 15.6,-15.1172 28.8,-15.1172 11.76,0 24.72,5.0391 24.72,17.2774 0,11.9999 -11.99,15.1329 -24,17.7619 -21.36,4.808 -39.61,9.371 -39.61,32.648 0,21.84 21.13,33.11 42.01,33.11 15.85,0 30.48,-5.989 38.16,-20.399 l -15.6,-10.32 c -4.8,7.93 -12.72,13.449 -23.76,13.449 -10.32,0 -22.09,-5.039 -22.09,-15.609 0,-9.352 13.45,-13.43 28.34,-16.309 19.92,-3.84 36.71,-11.051 36.71,-33.6093 0,-25.4414 -22.55,-35.2812 -44.88,-35.2812 -18.96,0 -32.65,5.039 -43.68,20.8789 l 14.88,11.5195" /><path
         id="path84"
         style="fill:#f68712;fill-opacity:1;fill-rule:nonzero;stroke:none"
         d="m 2913.42,141.859 c -7.92,9.602 -17.04,13.68 -28.32,13.68 -25.21,0 -37.92,-18.719 -37.92,-41.769 0,-23.0395 15.11,-41.7583 37.92,-41.7583 12.24,0 21.6,4.3164 28.56,13.918 l 13.92,-13.1992 c -10.8,-12.4805 -26.16,-18 -42.48,-18 -34.81,0 -58.09,24.4804 -58.09,59.0395 0,34.082 23.53,59.039 58.09,59.039 16.56,0 31.92,-5.508 43.2,-17.75 l -14.88,-13.2" /><path
         id="path86"
         style="fill:#f68712;fill-opacity:1;fill-rule:nonzero;stroke:none"
         d="m 2949.17,239.059 h 18.72 V 154.34 h 0.48 c 5.04,8.879 18.49,18.469 36.01,18.469 29.52,0 42.72,-18.719 42.72,-45.829 V 57.6094 h -18.72 v 67.4416 c 0,18.73 -8.17,30.488 -25.68,30.488 -24.25,0 -34.81,-17.519 -34.81,-43.199 V 57.6094 h -18.72 V 239.059" /><path
         id="path88"
         style="fill:#f68712;fill-opacity:1;fill-rule:nonzero;stroke:none"
         d="m 3135.42,111.609 c -23.76,0 -39.12,-6.48 -39.12,-21.5973 0,-14.1601 10.56,-19.4414 24.72,-19.4414 21.6,0 32.64,15.6016 33.12,33.8517 v 7.187 z m -54.25,43.93 c 11.53,11.762 28.33,17.27 44.65,17.27 33.13,0 47.04,-15.829 47.04,-47.508 V 77.0508 c 0,-6.4805 0.72,-13.6797 1.68,-19.4414 h -18 c -1.2,5.039 -1.2,12 -1.2,16.8008 h -0.48 c -7.44,-11.5196 -19.92,-19.6797 -36.96,-19.6797 -22.8,0 -41.77,11.5195 -41.77,33.3593 0,37.2112 43.21,39.3592 70.81,39.3592 h 7.2 v 3.36 c 0,16.332 -10.32,24.73 -27.84,24.73 -12,0 -24.48,-4.078 -33.36,-12.25 l -11.77,12.25" /><path
         id="path90"
         style="fill:#f68712;fill-opacity:1;fill-rule:nonzero;stroke:none"
         d="m 3216.77,154.09 h -24.48 v 15.851 h 24.48 v 25.2 c 0,27.359 9.6,46.808 39.84,46.808 4.8,0 10.8,-0.961 14.41,-2.89 l -2.65,-16.789 c -4.08,1.429 -8.4,2.39 -12.72,2.39 -19.44,0 -20.16,-14.16 -20.16,-33.601 v -21.118 h 27.36 V 154.09 h -27.36 V 57.6094 h -18.72 V 154.09" /><path
         id="path92"
         style="fill:#f68712;fill-opacity:1;fill-rule:nonzero;stroke:none"
         d="m 3344.22,154.09 h -33.13 V 97.9297 c 0,-14.3984 0.25,-25.918 16.8,-25.918 5.53,0 11.52,1.2071 16.56,3.8399 l 0.73,-17.043 c -6.49,-2.8789 -14.89,-4.0781 -21.85,-4.0781 -26.64,0 -30.96,14.3984 -30.96,37.6797 V 154.09 h -24.48 v 15.851 h 24.48 v 31.918 h 18.72 v -31.918 h 33.13 V 154.09" /><path
         id="path94"
         style="fill:#f68712;fill-opacity:1;fill-rule:nonzero;stroke:none"
         d="m 3369.65,87.1289 c 7.43,-9.1172 15.59,-15.1172 28.8,-15.1172 11.76,0 24.71,5.0391 24.71,17.2774 0,11.9999 -11.99,15.1329 -23.99,17.7619 -21.37,4.808 -39.61,9.371 -39.61,32.648 0,21.84 21.12,33.11 42,33.11 15.85,0 30.49,-5.989 38.17,-20.399 l -15.6,-10.32 c -4.8,7.93 -12.72,13.449 -23.76,13.449 -10.32,0 -22.09,-5.039 -22.09,-15.609 0,-9.352 13.45,-13.43 28.33,-16.309 19.92,-3.84 36.72,-11.051 36.72,-33.6093 0,-25.4414 -22.56,-35.2812 -44.88,-35.2812 -18.97,0 -32.65,5.039 -43.68,20.8789 l 14.88,11.5195" /><path
         id="path96"
         style="fill:#f68712;fill-opacity:1;fill-rule:nonzero;stroke:none"
         d="m 3553.73,123.859 c -0.72,18.95 -13.2,31.68 -33.85,31.68 -20.64,0 -34.31,-12.73 -36.72,-31.68 z m 16.07,-45.8473 c -13.19,-17.0429 -29.04,-23.2812 -49.92,-23.2812 -35.28,0 -56.88,26.4101 -56.88,59.0395 0,34.812 24.48,59.039 57.61,59.039 31.68,0 53.28,-21.598 53.28,-58.789 v -6.008 h -90.73 c 1.44,-19.43 16.32,-36.0003 36.72,-36.0003 16.09,0 26.89,5.7696 35.76,17.0469 l 14.16,-11.0469" /><path
         id="path98"
         style="fill:#f68712;fill-opacity:1;fill-rule:nonzero;stroke:none"
         d="m 3602.93,143.289 c 0,10.332 -0.97,19.211 -0.97,26.652 h 17.77 c 0,-6 0.48,-12.242 0.48,-18.48 h 0.48 c 5.04,11.039 18.96,21.348 37.44,21.348 29.53,0 42.73,-18.719 42.73,-45.829 V 57.6094 h -18.72 v 67.4416 c 0,18.73 -8.17,30.488 -25.68,30.488 -24.25,0 -34.81,-17.519 -34.81,-43.199 V 57.6094 h -18.72 v 85.6796" /><path
         id="path100"
         style="fill:#f68712;fill-opacity:1;fill-rule:nonzero;stroke:none"
         d="m 3797.81,154.09 h -33.12 V 97.9297 c 0,-14.3984 0.24,-25.918 16.79,-25.918 5.53,0 11.53,1.2071 16.57,3.8399 l 0.72,-17.043 c -6.48,-2.8789 -14.88,-4.0781 -21.85,-4.0781 -26.64,0 -30.95,14.3984 -30.95,37.6797 V 154.09 h -24.49 v 15.851 h 24.49 v 31.918 h 18.72 v -31.918 h 33.12 V 154.09" /><path
         id="path102"
         style="fill:#f68712;fill-opacity:1;fill-rule:nonzero;stroke:none"
         d="m 3941.33,57.6094 h -18.49 l -31.91,86.4106 h -0.49 l -28.32,-86.4106 h -19.2 l -36.48,112.3316 h 20.64 l 25.68,-86.4097 h 0.48 l 29.05,86.4097 h 19.67 l 29.52,-86.4097 h 0.48 l 25.45,86.4097 h 20.16 L 3941.33,57.6094" /><path
         id="path104"
         style="fill:#f68712;fill-opacity:1;fill-rule:nonzero;stroke:none"
         d="m 4000.36,169.941 h 18.72 V 57.6094 h -18.72 z m 9.36,57.598 c 7.68,0 13.68,-6.238 13.68,-13.68 0,-7.918 -5.76,-13.679 -13.68,-13.679 -7.92,0 -13.68,5.761 -13.68,13.679 0,7.442 6,13.68 13.68,13.68" /><path
         id="path106"
         style="fill:#f68712;fill-opacity:1;fill-rule:nonzero;stroke:none"
         d="m 4136.2,141.859 c -7.92,9.602 -17.04,13.68 -28.32,13.68 -25.2,0 -37.92,-18.719 -37.92,-41.769 0,-23.0395 15.12,-41.7583 37.92,-41.7583 12.25,0 21.6,4.3164 28.57,13.918 l 13.91,-13.1992 c -10.8,-12.4805 -26.16,-18 -42.48,-18 -34.8,0 -58.09,24.4804 -58.09,59.0395 0,34.082 23.53,59.039 58.09,59.039 16.56,0 31.92,-5.508 43.2,-17.75 l -14.88,-13.2" /><path
         id="path108"
         style="fill:#f68712;fill-opacity:1;fill-rule:nonzero;stroke:none"
         d="m 4171.96,239.059 h 18.72 V 120.488 l 51.13,49.453 h 26.64 l -54.24,-51.132 59.75,-61.1996 h -27.59 l -55.69,59.0386 V 57.6094 h -18.72 V 239.059" /><path
         id="path110"
         style="fill:#f68712;fill-opacity:1;fill-rule:nonzero;stroke:none"
         d="m 4293.64,239.059 h 18.72 V 57.6094 h -18.72 V 239.059" /><path
         id="path112"
         style="fill:#f68712;fill-opacity:1;fill-rule:nonzero;stroke:none"
         d="m 4447.49,84.25 c 0,-10.3203 0.96,-19.1992 0.96,-26.6406 h -17.77 c 0,6 -0.47,12.2422 -0.47,18.4922 h -0.48 c -5.04,-11.0508 -18.97,-21.3711 -37.44,-21.3711 -29.53,0 -42.73,18.7187 -42.73,45.8395 v 69.371 h 18.72 v -67.453 c 0,-18.7185 8.17,-30.4763 25.68,-30.4763 24.24,0 34.81,17.5196 34.81,43.2073 v 54.722 h 18.72 V 84.25" /><path
         id="path114"
         style="fill:#f68712;fill-opacity:1;fill-rule:nonzero;stroke:none"
         d="m 4483,143.289 c 0,10.332 -0.97,19.211 -0.97,26.652 h 17.76 c 0,-6 0.48,-12.242 0.48,-18.48 h 0.49 c 5.04,11.039 18.96,21.348 37.44,21.348 29.52,0 42.73,-18.719 42.73,-45.829 V 57.6094 h -18.72 v 67.4416 c 0,18.73 -8.17,30.488 -25.69,30.488 -24.24,0 -34.8,-17.519 -34.8,-43.199 V 57.6094 H 4483 v 85.6796" /><path
         id="path116"
         style="fill:#f68712;fill-opacity:1;fill-rule:nonzero;stroke:none"
         d="m 4669.72,73.4492 c 25.68,0 40.08,19.1992 40.08,40.8008 0,24.25 -16.32,41.289 -40.08,41.289 -23.53,0 -39.6,-18.238 -39.6,-41.769 0,-22.8012 17.76,-40.3208 39.6,-40.3208 z m 58.81,-10.8008 C 4728.53,22.0781 4706.68,0 4667.31,0 c -21.83,0 -39.35,5.76172 -55.2,21.3711 l 13.45,15.3594 c 11.75,-12.7188 24.48,-19.4414 41.75,-19.4414 33.61,0 42.49,21.6015 42.49,45.3593 v 14.4024 h -0.47 c -8.89,-14.4024 -24.73,-20.8789 -39.61,-20.8789 -35.29,0 -59.77,24.4765 -59.77,57.5981 0,36.73 24.01,59.039 59.77,59.039 15.12,0 32.16,-7.188 39.61,-22.079 h 0.47 v 19.211 h 18.73 V 62.6484" /><path
         id="path118"
         style="fill:#f68712;fill-opacity:1;fill-rule:nonzero;stroke:none"
         d="m 4914.04,123.859 c -0.72,18.95 -13.2,31.68 -33.84,31.68 -20.65,0 -34.32,-12.73 -36.72,-31.68 z m 16.08,-45.8473 c -13.2,-17.0429 -29.05,-23.2812 -49.92,-23.2812 -35.29,0 -56.89,26.4101 -56.89,59.0395 0,34.812 24.48,59.039 57.61,59.039 31.68,0 53.28,-21.598 53.28,-58.789 v -6.008 h -90.72 c 1.43,-19.43 16.31,-36.0003 36.72,-36.0003 16.08,0 26.88,5.7696 35.76,17.0469 l 14.16,-11.0469" /><path
         id="path120"
         style="fill:#f68712;fill-opacity:1;fill-rule:nonzero;stroke:none"
         d="m 4993.23,70.5703 c 0,-7.9219 -6.96,-14.3984 -14.4,-14.3984 -7.44,0 -14.4,6.4765 -14.4,14.3984 0,7.918 6.48,14.3985 14.4,14.3985 7.92,0 14.4,-6.4805 14.4,-14.3985" /><path
         id="path122"
         style="fill:#f68712;fill-opacity:1;fill-rule:nonzero;stroke:none"
         d="m 5010.03,227.539 h 22.8 l 52.33,-139.6874 h 0.47 l 54.01,139.6874 H 5161 L 5094.51,57.6094 h -19.44 l -65.04,169.9296" /><path
         id="path124"
         style="fill:#f68712;fill-opacity:1;fill-rule:nonzero;stroke:none"
         d="m 5175.63,70.5703 c 0,-7.9219 -6.96,-14.3984 -14.4,-14.3984 -7.44,0 -14.39,6.4765 -14.39,14.3984 0,7.918 6.47,14.3985 14.39,14.3985 7.92,0 14.4,-6.4805 14.4,-14.3985" /><path
         id="path126"
         style="fill:#00adef;fill-opacity:1;fill-rule:nonzero;stroke:none"
         d="m 2649.05,1015.06 h -106.76 v 72.11 h -1.87 c -20.6,-44.95 -62.73,-83.35 -137.66,-83.35 -120.79,0 -163.86,85.22 -163.86,176.99 v 283.74 h 112.36 V 1237 c 0,-49.63 3.75,-132.05 82.41,-132.05 73.98,0 103.01,54.32 103.01,114.25 v 245.35 h 112.37 v -449.49" /><path
         id="path128"
         style="fill:#00adef;fill-opacity:1;fill-rule:nonzero;stroke:none"
         d="m 2776.36,1464.55 h 106.75 v -72.1 h 1.87 c 20.6,44.94 62.74,83.34 137.66,83.34 120.8,0 163.87,-85.22 163.87,-176.99 v -283.74 h -112.37 v 227.55 c 0,49.63 -3.75,132.04 -82.41,132.04 -73.98,0 -103.01,-54.31 -103.01,-114.24 v -245.35 h -112.36 v 449.49" /><path
         id="path130"
         style="fill:#00adef;fill-opacity:1;fill-rule:nonzero;stroke:none"
         d="m 3252.95,1464.55 h 121.73 l 97.39,-314.64 h 1.88 l 90.83,314.64 h 121.73 l 97.4,-314.64 h 1.86 l 93.65,314.64 h 113.3 l -152.63,-449.49 h -111.44 l -106.75,307.15 h -1.87 l -94.58,-307.15 h -116.12 l -156.38,449.49" /><path
         id="path132"
         style="fill:#00adef;fill-opacity:1;fill-rule:evenodd;stroke:none"
         d="m 452.539,1468.64 h 452.52 L 452.539,1016.12 H 0 l 452.539,452.52" /><path
         id="path134"
         style="fill:#00adef;fill-opacity:1;fill-rule:evenodd;stroke:none"
         d="M 906.582,1922.19 H 453.555 l 453.027,-452.52 h 452.988 l -452.988,452.52" /><path
         id="path136"
         style="fill:#00adef;fill-opacity:1;fill-rule:evenodd;stroke:none"
         d="m 1356.84,1467.62 h 452.52 L 1356.84,1015.08 H 904.297 l 452.543,452.54" /><path
         id="path138"
         style="fill:#00adef;fill-opacity:1;fill-rule:evenodd;stroke:none"
         d="M 906.582,1015.08 H 453.555 L 906.582,562.559 H 1359.57 L 906.582,1015.08" /><path
         id="path140"
         style="fill:#f68712;fill-opacity:1;fill-rule:nonzero;stroke:none"
         d="M 1134.82,1696.33 H 227.344 V 788.828 h 907.476 v 907.502 z m -17.99,-18 V 806.828 H 245.344 v 871.502 h 871.486" /></g></g></svg>